<svg width="29" height="40" viewBox="0 0 29 40" fill="none" xmlns="http://www.w3.org/2000/svg">
<path d="M27.9468 6.42853H25.804V4.28568H26.5182C27.7021 4.28568 28.6611 3.32674 28.6611 2.14284C28.6611 0.958942 27.7021 0 26.5182 0H2.23269C1.04879 0 0.0898438 0.958942 0.0898438 2.14284C0.0898438 3.32674 1.04879 4.28568 2.23269 4.28568H2.94697V15.0001C2.94875 15.3948 3.26661 15.7126 3.66125 15.7144H7.94693V17.4501C5.43266 18.1287 3.66125 19.2858 3.66125 20.9787C3.72018 22.6537 4.00767 24.3108 4.51839 25.9071C5.35408 28.5142 7.00408 31.4426 10.2541 32.7999L9.38272 38.4643C9.34165 38.7286 9.45236 38.9928 9.66843 39.15C9.797 39.2357 10.947 40 14.1969 40H14.3827C17.7541 39.9714 18.9326 39.25 19.0542 39.1643C19.2881 39.0143 19.4113 38.7393 19.3685 38.4643L18.4971 32.7999C24.9971 30.0785 25.0899 21.0857 25.0899 20.9787C25.0542 20.1019 24.6006 19.2966 23.8685 18.8145C22.9435 18.168 21.9042 17.7055 20.8042 17.4502V15.7145H25.0899C25.4846 15.7127 25.8024 15.3948 25.8042 15.0002V7.85736H27.2328V10.0002C27.2328 10.3948 27.5524 10.7145 27.9471 10.7145C28.3417 10.7145 28.6613 10.3948 28.6613 10.0002V7.14308C28.6595 6.74844 28.3414 6.43031 27.9468 6.42853ZM14.3684 38.5709C13.188 38.6299 12.0077 38.4888 10.8756 38.1495L11.6255 33.2494C13.4344 33.678 15.3166 33.678 17.1254 33.2494L17.8682 38.1353C16.7307 38.455 15.5505 38.6013 14.3684 38.5709ZM23.6611 20.9784C23.6611 22.3498 20.1111 23.8355 14.3757 23.8355C12.7203 23.8462 11.0686 23.6998 9.43995 23.3998C9.05424 23.3248 8.67923 23.5784 8.60425 23.9641C8.52928 24.3498 8.78282 24.7248 9.16855 24.7998C10.8846 25.1212 12.6292 25.2766 14.3758 25.264C17.8901 25.264 21.4117 24.6855 23.4117 23.4497C22.826 26.7426 20.8831 32.1427 14.3758 32.1427C7.86853 32.1427 5.91874 26.7357 5.34 23.4429C5.64 23.6322 5.95248 23.7982 6.27572 23.9429C6.63822 24.1001 7.06145 23.934 7.21857 23.5715C7.37569 23.209 7.20964 22.7858 6.84715 22.6286C5.73287 22.1429 5.08999 21.5429 5.08999 20.9786C5.08999 19.6072 8.63996 18.1215 14.3754 18.1215C20.1109 18.1215 23.6611 19.607 23.6611 20.9784ZM20.754 2.85689C20.3593 2.85689 20.0397 3.17654 20.0397 3.57118C20.0397 3.96581 20.3593 4.28546 20.754 4.28546H24.3754V14.2854H20.804V13.114C20.804 12.7193 20.4843 12.3997 20.0897 12.3997C19.6951 12.3997 19.3754 12.7193 19.3754 13.114V17.1211C16.0665 16.5496 12.6843 16.5496 9.37549 17.1211V9.28524C9.37549 6.52453 11.6147 4.28504 14.3757 4.28504C17.1366 4.28504 19.3759 6.5243 19.3759 9.28524V10.2567C19.3759 10.6513 19.6955 10.9709 20.0902 10.9709C20.4848 10.9709 20.8044 10.6513 20.8044 10.2567V9.28524C20.8044 5.73527 17.9259 2.85694 14.3761 2.85694C10.8264 2.85694 7.94785 5.7355 7.94785 9.28524V14.2854H4.37644V4.2855H7.99786C8.3925 4.2855 8.71214 3.96586 8.71214 3.57122C8.71214 3.17658 8.3925 2.85694 7.99786 2.85694H2.23378C1.83914 2.85694 1.5195 2.5373 1.5195 2.14266C1.5195 1.74802 1.83914 1.42838 2.23378 1.42838H26.5193C26.914 1.42838 27.2336 1.74802 27.2336 2.14266C27.2336 2.5373 26.914 2.85694 26.5193 2.85694L20.754 2.85689Z" fill="#10B2BE"/>
</svg>
