<svg width="24" height="17" viewBox="0 0 24 17" fill="none" xmlns="http://www.w3.org/2000/svg">
<path d="M2.34146 0C1.04236 0 0 1.09266 0 2.40549V14.561C0 15.8738 1.04236 16.9756 2.34146 16.9756H21.6585C22.9576 16.9756 24 15.8738 24 14.561V2.40549C24 1.09266 22.9576 0 21.6585 0H2.34146ZM2.34146 1.17073H21.6585C21.8318 1.17073 21.9954 1.22063 22.1433 1.28962L12.7226 10.2348C12.2902 10.6453 11.7289 10.6453 11.2957 10.2348L1.85672 1.28962C2.00464 1.22063 2.16822 1.17073 2.34146 1.17073ZM1.18902 2.26829L7.85672 8.58843L1.29878 15.1372C1.21665 14.9667 1.17073 14.7714 1.17073 14.561V2.40549C1.17073 2.35796 1.18463 2.3141 1.18902 2.26829ZM22.811 2.26829C22.8157 2.3141 22.8291 2.35796 22.8291 2.40549V14.561C22.8291 14.7684 22.781 14.9593 22.7011 15.128L16.1615 8.57927L22.811 2.26829ZM15.311 9.39331L21.7134 15.8049C21.695 15.8049 21.6771 15.8049 21.6585 15.8049H2.34146C2.32595 15.8049 2.31102 15.8049 2.29575 15.8049L8.70732 9.40244L10.4909 11.0854C11.3403 11.8906 12.6782 11.8917 13.5275 11.0854L15.311 9.39331Z" fill="#102634"/>
</svg>
