<svg width="40" height="40" viewBox="0 0 40 40" fill="none" xmlns="http://www.w3.org/2000/svg">
<path d="M39.4989 8.82487H33.8074C35.103 7.90204 35.9478 6.4095 35.9478 4.72658V3.53679C35.9478 3.26661 35.7241 3.0485 35.447 3.0485H33.4101C33.1613 1.32975 31.6403 0 29.8087 0C28.7786 0 27.8052 0.426416 27.1207 1.15883C26.6532 0.88865 26.1139 0.742166 25.563 0.742166C24.1288 0.742166 22.9016 1.72525 22.5878 3.05012H20.5091C20.232 3.05012 20.0082 3.26822 20.0082 3.53842V4.72821C20.0082 6.40954 20.8531 7.90204 22.1486 8.8265L0.500889 8.82487C0.223735 8.82487 0 9.04297 0 9.31316V13.9094C0 14.1796 0.223727 14.3977 0.500889 14.3977H18.7126V35.6852H14.9293C12.9776 35.6852 11.3881 37.2347 11.3881 39.1374V39.5117C11.3881 39.7819 11.6118 40 11.889 40H28.1124C28.3896 40 28.6133 39.7819 28.6133 39.5117V39.1374C28.6133 37.2331 27.0238 35.6852 25.0721 35.6852H22.3123L22.3106 14.3977H39.4991C39.7763 14.3977 40 14.1796 40 13.9094V9.31316C40 9.04298 39.7744 8.82487 39.4989 8.82487ZM29.8085 0.974875C31.0874 0.974875 32.1576 1.87004 32.3947 3.05008H28.5397C28.4295 2.58296 28.2074 2.15167 27.8869 1.78708C28.3828 1.27437 29.0756 0.974875 29.8085 0.974875ZM25.5644 1.71871C26.0519 1.71871 26.5244 1.88798 26.8934 2.19558C27.1739 2.42833 27.3793 2.72292 27.4978 3.05171H23.631C23.9149 2.27208 24.6812 1.71871 25.5644 1.71871ZM21.0116 4.72817V4.02666H34.9462V4.72817C34.9462 6.98729 33.0612 8.82646 30.7438 8.82646L25.2139 8.82483C22.8965 8.82483 21.0116 6.98725 21.0116 4.72817ZM21.3104 35.6852H19.7126V14.3977H21.3104V35.6852ZM27.608 39.0251H12.3911C12.4512 37.7116 13.5665 36.6618 14.9289 36.6618H25.0685C26.4326 36.6602 27.5479 37.7116 27.608 39.0251ZM38.9978 13.423H1.00136V9.80158H38.9978V13.423Z" fill="#10B2BE"/>
</svg>
