<svg width="32" height="23" viewBox="0 0 32 23" fill="none" xmlns="http://www.w3.org/2000/svg">
<path d="M2.8 0.799805C1.24748 0.799805 0 2.07663 0 3.63577V19.9516C0 21.5107 1.24748 22.7998 2.8 22.7998H29.2C30.7525 22.7998 32 21.5107 32 19.9516V3.63577C32 2.07663 30.7525 0.799805 29.2 0.799805H2.8ZM2.8 1.58552H29.2C29.6998 1.58552 30.1498 1.7819 30.5 2.08884L17.2625 14.4393C16.5292 15.1232 15.4968 15.1106 14.7625 14.4272L1.5 2.08896C1.85016 1.78202 2.30016 1.58552 2.8 1.58552ZM1.025 2.72724L10.9125 11.9349L1.31248 21.3389C0.99572 20.9753 0.8 20.4866 0.8 19.9516V3.63577C0.8 3.30148 0.8914 3.0029 1.025 2.72724ZM30.975 2.72724C31.1086 3.0029 31.2 3.30148 31.2 3.63577V19.9516C31.2 20.4866 31.0043 20.9753 30.6875 21.3389L21.1125 11.9226L30.975 2.72724ZM20.5375 12.4628L30.0375 21.8177C29.7811 21.9396 29.502 22.0141 29.2 22.0141H2.8C2.49796 22.0141 2.21892 21.9396 1.96248 21.8177L11.4875 12.4751L14.2125 15.004C15.2313 15.9525 16.7943 15.9536 17.8125 15.004L20.5375 12.4628Z" fill="#FEFEFE"/>
</svg>
