<svg width="42" height="39" viewBox="0 0 42 39" fill="none" xmlns="http://www.w3.org/2000/svg">
<path d="M27.4438 0.000115632C24.5004 0.000115632 22.0119 1.90341 21.0144 4.55539L14.9023 1.93178C14.7616 1.87102 14.6081 1.84624 14.4554 1.85968C14.361 1.86947 14.2686 1.8938 14.1816 1.93178L1.26535 7.4673C1.09844 7.53814 0.956095 7.65658 0.856103 7.80784C0.756112 7.9591 0.702904 8.13646 0.703126 8.31778V37.8406C0.705299 37.9919 0.744633 38.1403 0.817663 38.2728C0.890693 38.4053 0.995179 38.5177 1.12192 38.6003C1.24866 38.6829 1.39377 38.7331 1.54446 38.7464C1.69515 38.7597 1.84681 38.7358 1.98607 38.6767L14.5419 33.2997L27.0978 38.6767C27.2118 38.7251 27.3343 38.75 27.4581 38.75C27.582 38.75 27.7045 38.7251 27.8185 38.6767L40.7347 33.1412C40.8994 33.0714 41.0402 32.9551 41.14 32.8067C41.2399 32.6582 41.2944 32.4839 41.2969 32.3051V2.78226C41.2971 2.62978 41.2595 2.47963 41.1875 2.34524C41.1154 2.21085 41.0112 2.09642 40.8841 2.01216C40.757 1.92791 40.611 1.87649 40.4592 1.86246C40.3073 1.84843 40.1544 1.87224 40.014 1.93178L33.9163 4.541C32.8703 1.70774 30.1643 -0.0162603 27.4438 0.000115632ZM27.4438 1.84529C30.2423 1.84529 32.5324 4.16859 32.5324 7.10689C32.5324 7.71658 32.3298 8.65979 32.1143 9.24037C30.5729 12.5142 29.0118 15.7865 27.4581 19.0573C25.9113 15.7832 24.3368 12.5174 22.8019 9.24037C22.5868 8.65803 22.3839 7.71501 22.3839 7.10689C22.499 3.75559 25.0189 1.86918 27.4438 1.84529ZM27.4581 4.15176C25.9404 4.15176 24.6903 5.40186 24.6903 6.91952C24.6903 8.43717 25.9404 9.68728 27.4581 9.68728C28.9757 9.68728 30.2258 8.43722 30.2258 6.91952C30.2258 5.40182 28.9757 4.15176 27.4581 4.15176ZM13.6192 4.16606V31.6996L2.54821 36.4422V8.90876L13.6192 4.16606ZM15.4644 4.16606L20.5675 6.3572C20.5421 6.60427 20.5389 6.85319 20.5389 7.1068C20.5389 8.06662 20.7737 9.10242 21.0722 9.90345C22.8821 13.7401 24.7141 17.5836 26.5357 21.4213V36.4422L15.4647 31.6996L15.4644 4.16606ZM39.4517 4.16606V31.6996L28.3806 36.4422V21.4213C30.1796 17.5736 32.0662 13.7542 33.8441 9.90345C34.145 9.1002 34.3775 8.06574 34.3775 7.1068C34.3775 6.85037 34.3576 6.60256 34.3341 6.3572L39.4517 4.16606ZM27.4581 5.99693C27.9785 5.99693 28.3807 6.39909 28.3807 6.91952C28.3807 7.43995 27.9785 7.8421 27.4581 7.8421C26.9376 7.8421 26.5356 7.43999 26.5356 6.91952C26.5356 6.39904 26.9376 5.99693 27.4581 5.99693Z" fill="#10B2BE"/>
</svg>
