<svg width="40" height="41" viewBox="0 0 40 41" fill="none" xmlns="http://www.w3.org/2000/svg">
<path d="M5.38929 23.5705L5.31272 23.6764V23.6748C5.23126 23.8002 5.10255 23.885 4.95593 23.9127C4.8093 23.9404 4.65778 23.9061 4.53723 23.8182C4.41667 23.7302 4.33683 23.5982 4.31729 23.45C4.29774 23.3033 4.33847 23.1535 4.43133 23.0362L4.50953 22.927C4.59588 22.8113 4.72296 22.7331 4.86633 22.7103C5.00806 22.6875 5.1547 22.7217 5.27037 22.8064C5.51475 22.984 5.56851 23.3245 5.39093 23.5673L5.38929 23.5705ZM7.82984 19.2843C7.71254 19.1995 7.56754 19.1637 7.42417 19.1865C7.28243 19.2093 7.15372 19.2875 7.06901 19.4048L6.43038 20.2862C6.33752 20.4019 6.29679 20.5518 6.31634 20.6984C6.33752 20.8467 6.41572 20.9803 6.53628 21.0666C6.65684 21.1546 6.80835 21.1888 6.95498 21.1611C7.1016 21.135 7.23031 21.0487 7.31177 20.9249L7.9504 20.0435C8.12635 19.7991 8.07259 19.4602 7.82984 19.2843ZM10.3909 15.7587C10.1482 15.5827 9.80769 15.6365 9.6301 15.8793L8.99147 16.7607C8.89861 16.878 8.85788 17.0262 8.87743 17.1745C8.89698 17.3211 8.97681 17.4547 9.09737 17.5427C9.21793 17.629 9.36944 17.6632 9.51607 17.6372C9.6627 17.6095 9.79141 17.5247 9.87286 17.3993L10.5115 16.5179C10.6874 16.2751 10.6337 15.9363 10.3909 15.7587ZM11.7953 21.5735C11.52 21.4513 11.199 21.5751 11.0768 21.8505L10.6385 22.8475C10.5766 22.9795 10.5717 23.131 10.6222 23.2678C10.6744 23.4047 10.7787 23.5155 10.9122 23.5741C11.0458 23.6328 11.1974 23.636 11.3342 23.5823C11.4694 23.5285 11.5786 23.4226 11.6356 23.2874L12.0739 22.2903C12.1944 22.015 12.0706 21.6941 11.7953 21.5735ZM10.0341 25.5585C9.90215 25.4999 9.75227 25.4966 9.61704 25.5487C9.48345 25.6009 9.37429 25.7035 9.31564 25.8355L9.26351 25.9544C9.2016 26.088 9.19671 26.2395 9.24721 26.3764C9.29935 26.5132 9.40362 26.624 9.53721 26.6827C9.6708 26.7413 9.82232 26.7446 9.95916 26.6908C10.0944 26.637 10.2035 26.5295 10.2589 26.3959L10.3111 26.277H10.3127C10.4333 26.0016 10.3095 25.6791 10.0341 25.5585ZM13.5581 17.5886C13.2827 17.4665 12.9618 17.5903 12.8396 17.8656L12.3997 18.8627H12.3981C12.341 18.9946 12.3361 19.1445 12.3883 19.2781C12.4404 19.4133 12.5447 19.5225 12.6766 19.5811C12.7451 19.6121 12.82 19.6268 12.8966 19.6268C13.1116 19.6268 13.3071 19.4997 13.3951 19.3025L13.835 18.3055C13.8936 18.1735 13.8969 18.0236 13.8448 17.89C13.7926 17.7548 13.69 17.6457 13.5581 17.5886ZM16.7448 19.4459C16.6046 19.4084 16.4564 19.428 16.3309 19.4997C16.2055 19.573 16.1143 19.6919 16.0784 19.8304L15.7966 20.8845C15.7249 21.1728 15.8976 21.4645 16.1843 21.541C16.4694 21.6176 16.7643 21.4514 16.8474 21.1679L17.1292 20.1155C17.1683 19.9754 17.1488 19.8255 17.0755 19.7001C17.0038 19.5746 16.8849 19.4834 16.7448 19.4459ZM15.6174 23.6542C15.4789 23.6167 15.329 23.6362 15.2052 23.7095C15.0797 23.7812 14.9885 23.9002 14.951 24.0403L14.6692 25.0927V25.0911C14.6268 25.2328 14.6447 25.3843 14.7164 25.513C14.7881 25.6417 14.9087 25.7346 15.0504 25.7721C15.1921 25.8112 15.3437 25.79 15.4691 25.7151C15.5962 25.6401 15.6874 25.5163 15.7216 25.3729L16.0035 24.3205V24.3221C16.08 24.0305 15.909 23.7324 15.6174 23.6542ZM14.49 27.8658C14.3499 27.8283 14.2016 27.8478 14.0762 27.9195C13.9507 27.9912 13.8595 28.1101 13.822 28.2503L13.7878 28.3773C13.7177 28.6657 13.8904 28.9573 14.1772 29.0339C14.4623 29.1105 14.7571 28.9443 14.8402 28.6608L14.8744 28.5337V28.5321C14.9119 28.392 14.8924 28.2437 14.8207 28.1183C14.7474 27.9945 14.6284 27.9032 14.49 27.8658ZM3.33825 17.0123L2.56762 17.7796C2.46172 17.8806 2.39981 18.0191 2.39818 18.1673C2.39655 18.314 2.45357 18.4557 2.55784 18.56C2.66211 18.6642 2.80222 18.7213 2.95048 18.7196C3.09711 18.718 3.23722 18.6561 3.33823 18.5486L4.10886 17.7779V17.7796C4.2229 17.6802 4.29133 17.5368 4.29622 17.3853C4.30273 17.2338 4.24408 17.0872 4.13656 16.9796C4.02903 16.8737 3.8824 16.8167 3.73088 16.8216C3.57937 16.8281 3.436 16.8982 3.33825 17.0123ZM0.257447 20.0914L0.164581 20.1827C0.0603127 20.2853 0.00166384 20.4238 3.30766e-05 20.5704C-0.00159643 20.7154 0.0570554 20.8555 0.159693 20.9598C0.262331 21.0624 0.402443 21.1194 0.549069 21.1194C0.694069 21.1178 0.834177 21.0575 0.935188 20.9533L1.02805 20.862C1.23496 20.6486 1.23333 20.3081 1.02154 20.0963C0.811369 19.8862 0.470864 19.8845 0.257447 20.0914ZM7.1913 14.7003C7.39495 14.4853 7.39006 14.148 7.18153 13.9395C6.97299 13.731 6.63574 13.7261 6.42233 13.9297L5.6517 14.7004C5.54743 14.8014 5.48715 14.9398 5.48552 15.0865C5.48552 15.2331 5.54254 15.3732 5.64518 15.4758C5.74945 15.5785 5.88956 15.6355 6.03455 15.6355C6.18118 15.6339 6.31966 15.5752 6.4223 15.4693L7.1913 14.7003ZM40 14.6384V39.3371C40 39.6369 39.7556 39.8813 39.4558 39.8813H34.9252C34.6238 39.8813 34.381 39.6369 34.3794 39.3371V14.6384C34.3778 12.4765 33.5175 10.4043 31.9893 8.87612C30.4611 7.34792 28.3888 6.48771 26.2287 6.48608C23.1593 6.48608 21.4178 7.44406 19.8829 10.0019L21.7989 16.5187L21.8527 16.5496L21.851 16.548C22.7357 17.0758 23.0338 18.2163 22.519 19.1091C22.0042 20.0002 20.867 20.313 19.9677 19.8096L6.4716 12.017C5.6 11.4843 5.31326 10.3536 5.82317 9.46896C6.33476 8.5843 7.45727 8.26824 8.35494 8.75701L8.4087 8.78797L15.0135 7.18649C17.5436 2.93609 21.2141 0.868652 26.229 0.868652C29.8768 0.878427 33.3731 2.33329 35.9535 4.91231C38.5342 7.49295 39.9874 10.9891 39.9972 14.6385L40 14.6384ZM21.3084 17.4911L7.80899 9.69851C7.69005 9.62845 7.55483 9.59261 7.41635 9.59261C7.34629 9.59261 7.27624 9.60239 7.20781 9.62031C6.89664 9.7034 6.66691 9.96407 6.62458 10.2817C6.58222 10.6011 6.73699 10.9139 7.01558 11.0735L20.5117 18.8661C20.8913 19.0747 21.367 18.9427 21.5821 18.568C21.7987 18.1933 21.6765 17.7159 21.3067 17.4911L21.3084 17.4911ZM18.832 10.2916L15.2837 8.24205L9.77536 9.57635L20.4304 15.7265L18.832 10.2916ZM20.0523 7.89016L17.0383 6.15017C16.7076 6.57212 16.4013 7.01364 16.1194 7.46983L19.1025 9.19189C19.386 8.73407 19.7037 8.2991 20.0523 7.89016ZM38.9086 14.6384C38.9054 11.2758 37.5678 8.05324 35.1908 5.67633C32.8138 3.29935 29.5895 1.96179 26.2287 1.95849C22.6624 1.95849 19.9109 3.03701 17.7617 5.31139L20.849 7.09372C22.2322 5.90276 23.9168 5.39773 26.2284 5.39773V5.3961C28.6787 5.39936 31.0264 6.37364 32.7598 8.10545C34.4916 9.83889 35.4675 12.1882 35.4692 14.6385V38.7912H38.9084L38.9086 14.6384Z" fill="#10B2BE"/>
</svg>
