<svg width="32" height="27" viewBox="0 0 32 27" fill="none" xmlns="http://www.w3.org/2000/svg">
<path d="M25.6245 26.7998H6.37463C6.27489 26.7998 6.17892 26.7616 6.10643 26.6931L0.140871 21.582C0.100711 21.5471 0.0680681 21.5043 0.044926 21.4564C0.021784 21.4085 0.00862567 21.3564 0.0062506 21.3032C0.00387553 21.2501 0.0123333 21.197 0.0311099 21.1472C0.0498866 21.0974 0.0785903 21.0519 0.115477 21.0136L6.09271 14.8842C6.16788 14.8103 6.26922 14.7693 6.37459 14.7699C6.47996 14.7706 6.58077 14.813 6.655 14.8877L9.62406 18.015H12.1593C9.97054 15.1598 8.76545 11.6723 8.72443 8.0749C8.72443 6.14542 9.49092 4.29497 10.8553 2.93063C12.2196 1.56629 14.0701 0.799805 15.9995 0.799805C17.929 0.799805 19.7795 1.56629 21.1438 2.93063C22.5081 4.29497 23.2746 6.14542 23.2746 8.0749C23.2334 11.6724 22.0281 15.1598 19.8392 18.015H22.375L25.3441 14.8877C25.4185 14.8133 25.5192 14.7712 25.6245 14.7705C25.7298 14.7699 25.831 14.8107 25.9064 14.8842L31.8837 21.0136C31.9209 21.0518 31.9498 21.0972 31.9688 21.147C31.9877 21.1968 31.9963 21.25 31.9939 21.3033C31.9915 21.3565 31.9783 21.4087 31.9549 21.4567C31.9316 21.5046 31.8987 21.5472 31.8583 21.582L25.8927 26.6931C25.8202 26.7616 25.7243 26.7998 25.6245 26.7998ZM6.94307 26.0196H25.0561L22.2704 18.7953H19.2287C18.3497 19.8907 17.3415 20.8758 16.2261 21.7293C16.16 21.7764 16.0808 21.8017 15.9996 21.8017C15.9184 21.8017 15.8392 21.7764 15.773 21.7293C14.6572 20.8762 13.649 19.8911 12.7704 18.7953H9.72873L6.94307 26.0196ZM22.9927 18.4973L25.7921 25.7516L31.0344 21.2602L25.6306 15.719L22.9927 18.4973ZM0.96479 21.2602L6.207 25.7516L9.0064 18.4973L6.36854 15.719L0.96479 21.2602ZM13.3043 18.2152C14.1046 19.2097 15.008 20.1165 15.9996 20.9204C19.245 18.1723 22.405 14.0719 22.4945 8.07498C22.493 6.35344 21.808 4.70292 20.5902 3.48615C19.3723 2.26937 17.7212 1.58588 15.9996 1.58587C14.2781 1.58586 12.627 2.26934 11.4091 3.4861C10.1912 4.70287 9.50627 6.35337 9.50472 8.07492C9.56111 11.7926 10.9038 15.3759 13.3043 18.2152ZM15.9996 12.068C14.9405 12.0668 13.9251 11.6455 13.1762 10.8965C12.4273 10.1476 12.0061 9.13223 12.0049 8.07312C12.2205 2.77489 19.7795 2.77642 19.9942 8.07315C19.993 9.13226 19.5718 10.1476 18.8229 10.8966C18.074 11.6455 17.0587 12.0668 15.9996 12.068ZM15.9996 4.85846C15.1473 4.85948 14.3303 5.19851 13.7277 5.80116C13.1251 6.40381 12.7861 7.22087 12.7852 8.07312C12.9362 12.3277 19.0636 12.3266 19.214 8.07307C19.213 7.22083 18.8741 6.40378 18.2714 5.80113C17.6688 5.19849 16.8518 4.85948 15.9996 4.85846ZM12.4118 24.5206C12.1422 24.5544 11.8382 24.4139 11.8581 24.1043C11.9151 23.5563 12.582 23.8136 12.9452 23.6862C13.0465 23.6656 13.1519 23.686 13.2382 23.743C13.3245 23.8 13.3846 23.8889 13.4054 23.9902C13.4862 24.5385 12.7826 24.5035 12.4118 24.5206ZM21.319 24.4682C21.2621 24.476 21.2041 24.4714 21.1491 24.4548C21.0941 24.4382 21.0433 24.41 21.0001 24.3721C20.957 24.3341 20.9225 24.2874 20.899 24.235C20.8754 24.1825 20.8635 24.1257 20.8638 24.0682C20.9176 23.5275 21.5773 23.7499 21.9362 23.6153C21.986 23.6034 22.0377 23.6014 22.0883 23.6095C22.1389 23.6175 22.1875 23.6355 22.2312 23.6623C22.2748 23.6891 22.3128 23.7243 22.3429 23.7658C22.373 23.8073 22.3946 23.8543 22.4065 23.9041C22.5006 24.4915 21.7107 24.441 21.319 24.4682ZM14.5392 24.0893C14.4448 24.0875 14.3544 24.0516 14.2844 23.9883C14.2144 23.9251 14.1697 23.8386 14.1584 23.745C14.1472 23.6513 14.1702 23.5567 14.2231 23.4787C14.2761 23.4006 14.3555 23.3443 14.4467 23.3202L15.2046 23.1343C15.3042 23.1121 15.4086 23.1298 15.4953 23.1836C15.5821 23.2374 15.6443 23.3231 15.6686 23.4222C15.6929 23.5214 15.6774 23.6261 15.6254 23.714C15.5734 23.8018 15.4891 23.8658 15.3905 23.8922C15.339 23.9017 14.5673 24.1047 14.5392 24.0893ZM10.7629 24.0743C10.4628 23.9823 10.1713 23.8642 9.89177 23.7213C9.79939 23.6777 9.72779 23.5996 9.69235 23.5038C9.65691 23.4079 9.66045 23.3021 9.70222 23.2088C9.74398 23.1156 9.82064 23.0425 9.91573 23.0051C10.0108 22.9678 10.1168 22.9692 10.2108 23.0091L10.9224 23.3281C11.0021 23.366 11.0667 23.4297 11.1058 23.5088C11.1448 23.5879 11.156 23.6779 11.1376 23.7642C11.1191 23.8505 11.0721 23.9281 11.0041 23.9844C10.9362 24.0406 10.8512 24.0723 10.7629 24.0743ZM19.7687 24.0459C19.4557 24.0111 19.2314 23.7147 18.9366 23.6139C18.8425 23.5709 18.7693 23.4923 18.7331 23.3954C18.6969 23.2985 18.7007 23.1911 18.7436 23.097C19.0426 22.5635 19.6193 23.1256 19.9668 23.3195C20.039 23.3639 20.0949 23.4305 20.126 23.5094C20.1572 23.5882 20.162 23.675 20.1397 23.7568C20.1174 23.8386 20.0692 23.911 20.0023 23.9631C19.9354 24.0152 19.8534 24.0442 19.7687 24.0459ZM23.4286 23.7149C23.3439 23.7133 23.262 23.6843 23.1952 23.6323C23.1283 23.5803 23.0801 23.5081 23.0577 23.4264C23.0353 23.3447 23.0399 23.258 23.0709 23.1792C23.1018 23.1003 23.1575 23.0336 23.2295 22.989L23.901 22.5916C23.9451 22.565 23.994 22.5475 24.0449 22.5399C24.0959 22.5324 24.1478 22.535 24.1977 22.5476C24.2476 22.5602 24.2945 22.5826 24.3357 22.6134C24.377 22.6442 24.4117 22.6829 24.4379 22.7272C24.4641 22.7715 24.4813 22.8206 24.4885 22.8715C24.4956 22.9225 24.4926 22.9744 24.4796 23.0242C24.4667 23.074 24.4439 23.1208 24.4128 23.1618C24.3817 23.2028 24.3427 23.2372 24.2982 23.2631C24.158 23.3267 23.5861 23.7393 23.4286 23.7149ZM16.8123 23.5316C16.718 23.5297 16.6275 23.4939 16.5576 23.4306C16.4876 23.3673 16.4429 23.2809 16.4316 23.1872C16.4204 23.0936 16.4434 22.999 16.4963 22.921C16.5493 22.8429 16.6287 22.7866 16.7199 22.7625C16.9899 22.6864 17.2658 22.6334 17.5448 22.604C17.6467 22.5975 17.7472 22.6311 17.8246 22.6978C17.902 22.7644 17.9502 22.8588 17.9588 22.9605C17.9674 23.0623 17.9358 23.1634 17.8708 23.2421C17.8057 23.3209 17.7124 23.371 17.6108 23.3817C17.3514 23.3912 17.0676 23.5 16.8123 23.5316ZM8.62746 23.1168C8.32714 23.0247 8.03547 22.9065 7.75578 22.7635C7.6634 22.7199 7.5918 22.6418 7.55636 22.546C7.52092 22.4502 7.52446 22.3443 7.56622 22.2511C7.60799 22.1578 7.68465 22.0847 7.77974 22.0474C7.87483 22.01 7.98077 22.0115 8.07482 22.0514L8.78696 22.3706C8.86666 22.4085 8.93125 22.4722 8.97029 22.5513C9.00932 22.6304 9.02052 22.7204 9.00208 22.8067C8.98363 22.893 8.93662 22.9706 8.86864 23.0268C8.80066 23.0831 8.71568 23.1148 8.62746 23.1168Z" fill="#FEFEFE"/>
</svg>
