<svg width="77" height="52" viewBox="0 0 77 52" fill="none" xmlns="http://www.w3.org/2000/svg">
<path d="M38.5 1.40879e-05C32.2616 -0.00741448 28.4612 2.92407 25.3991 6.20983C22.337 9.4956 19.8811 13.0871 16.0823 14.9442C13.313 16.298 9.4308 17.1435 6.13477 18.6585C4.48676 19.416 2.96495 20.3499 1.8347 21.6763C0.704448 23.0027 0 24.7505 0 26.8705C0 29.8424 1.78711 32.1209 3.72673 34.7344C5.57412 37.2237 7.63301 40.0862 8.97282 44.2232C7.94907 44.6482 6.94863 45.1026 5.99144 45.5871C5.83574 45.6637 5.70466 45.7835 5.61335 45.9324C5.52204 46.0813 5.47422 46.2533 5.47543 46.4286C5.47543 47.6189 6.3219 48.5305 7.39613 49.1853C8.47035 49.8401 9.87473 50.3423 11.5529 50.7522C14.9091 51.5723 19.3233 52 23.8224 52H53.1776C57.6767 52 62.0909 51.5723 65.4471 50.7522C67.1253 50.3423 68.5296 49.8401 69.6039 49.1853C70.6781 48.5305 71.5246 47.6189 71.5246 46.4286C71.5258 46.2533 71.478 46.0813 71.3866 45.9324C71.2953 45.7835 71.1643 45.6637 71.0086 45.5871C70.0514 45.1026 69.0509 44.6482 68.0272 44.2232C69.367 40.0862 71.4259 37.2237 73.2733 34.7344C75.2129 32.1209 77 29.8424 77 26.8705C77 24.7505 76.2956 23.0027 75.1653 21.6763C74.0351 20.3499 72.5132 19.416 70.8652 18.6585C67.5692 17.1435 63.687 16.298 60.9177 14.9442C57.1189 13.0871 54.663 9.49561 51.6009 6.20983C48.5388 2.92406 44.7384 -0.00737734 38.5 1.40879e-05ZM38.5 1.85716C44.1871 1.85066 47.3227 4.34167 50.2535 7.48662C53.1844 10.6316 55.7781 14.4781 60.115 16.5982C63.2018 18.1072 67.0951 18.9512 70.1199 20.3415C71.6323 21.0367 72.9152 21.8694 73.7893 22.8951C74.6633 23.9208 75.1653 25.1464 75.1653 26.8705C75.1653 29.0669 73.7578 30.9799 71.8112 33.6027C70.8553 34.8908 69.8046 36.3415 68.8012 38.0424C59.6622 34.0609 47.9236 32.5 38.5 32.5C29.0764 32.5 17.3378 34.0609 8.19881 38.0424C7.19543 36.3415 6.14474 34.8908 5.18876 33.6027C3.24225 30.9799 1.8347 29.0669 1.8347 26.8705C1.8347 25.1464 2.33666 23.9208 3.21072 22.8951C4.08478 21.8694 5.36771 21.0367 6.88012 20.3415C9.90494 18.9512 13.7982 18.1072 16.885 16.5982C21.2219 14.4781 23.8156 10.6316 26.7465 7.48662C29.6773 4.34167 32.8129 1.85042 38.5 1.85716ZM38.5 34.3571C47.664 34.3571 59.1584 35.9264 67.9125 39.6964C67.3221 40.8584 66.7716 42.1405 66.3071 43.5558C57.5929 40.3076 47.0899 39 38.5 39C29.9101 39 19.4071 40.3076 10.6929 43.5558C10.2284 42.1405 9.67788 40.8584 9.08749 39.6964C17.8416 35.9264 29.336 34.3571 38.5 34.3571ZM38.5 40.8571C48.1581 40.8571 60.3628 42.6719 69.2599 46.8929C69.1164 47.1136 69.1354 47.2982 68.6579 47.5893C67.8519 48.0806 66.5861 48.5698 65.0171 48.9531C61.8792 49.7198 57.5608 50.1429 53.1776 50.1429H23.8224C19.4392 50.1429 15.1208 49.7198 11.9829 48.9531C10.4139 48.5698 9.14812 48.0806 8.34214 47.5893C7.86457 47.2982 7.88358 47.1136 7.74013 46.8929C16.6372 42.6719 28.8419 40.8571 38.5 40.8571Z" fill="#10B2BE"/>
<path d="M47.6735 22.4654C47.6735 27.1083 43.5583 29.894 38.5 29.894C33.4417 29.894 29.3265 27.1083 29.3265 22.4654H31.1612C31.1612 26.1797 33.9692 28.1037 37.5827 28.4473V13.5065C36.0039 13.0915 34.8306 11.6494 34.8306 9.92412C34.8306 7.87569 36.4763 6.20983 38.5 6.20983C40.5237 6.20983 42.1694 7.87569 42.1694 9.92412C42.1694 11.6494 40.9961 13.0915 39.4173 13.5065V28.4473C43.0308 28.1037 45.8388 26.1797 45.8388 22.4654H47.6735Z" fill="#10B2BE"/>
<path d="M40.3347 9.92505C40.3347 11.0568 39.26 11.7822 38.5 11.7822C37.2452 11.7822 36.6653 10.6943 36.6653 9.92505C36.6653 8.75288 37.74 8.0679 38.5 8.0679C39.26 8.0679 40.3347 8.61921 40.3347 9.92505Z" fill="#102634"/>
</svg>
