<svg width="40" height="34" viewBox="0 0 40 34" fill="none" xmlns="http://www.w3.org/2000/svg">
<path d="M22.4524 18.9546H4.05619C3.73103 18.955 3.41929 19.0843 3.18937 19.3142C2.95944 19.5442 2.83012 19.8559 2.82978 20.1811V29.9923C2.83012 30.3175 2.95944 30.6292 3.18937 30.8592C3.41929 31.0891 3.73103 31.2184 4.05619 31.2188H22.4524C22.7775 31.2184 23.0893 31.0891 23.3192 30.8592C23.5491 30.6293 23.6784 30.3175 23.6788 29.9923V20.1811C23.6784 19.8559 23.5491 19.5441 23.3192 19.3142C23.0893 19.0843 22.7775 18.955 22.4524 18.9546ZM4.05619 29.9923V20.1811H22.4524L22.4533 29.9923H4.05619Z" fill="#10B2BE"/>
<path d="M20.9193 24.3585H5.5892C5.42657 24.3585 5.2706 24.4231 5.1556 24.5381C5.0406 24.6531 4.976 24.8091 4.976 24.9717C4.976 25.1344 5.0406 25.2903 5.1556 25.4053C5.2706 25.5203 5.42657 25.5849 5.5892 25.5849H20.9193C21.082 25.5849 21.2379 25.5203 21.3529 25.4053C21.4679 25.2903 21.5325 25.1344 21.5325 24.9717C21.5325 24.8091 21.4679 24.6531 21.3529 24.5381C21.2379 24.4231 21.082 24.3585 20.9193 24.3585Z" fill="#10B2BE"/>
<path d="M5.8958 23.7453C6.05843 23.7453 6.2144 23.6807 6.3294 23.5657C6.44439 23.4507 6.509 23.2947 6.50901 23.1321V21.2925C6.50901 21.1299 6.4444 20.9739 6.32941 20.8589C6.21441 20.7439 6.05844 20.6793 5.8958 20.6793C5.73317 20.6793 5.5772 20.7439 5.4622 20.8589C5.3472 20.9739 5.2826 21.1299 5.2826 21.2925V23.1321C5.28261 23.2947 5.34721 23.4507 5.46221 23.5657C5.57721 23.6807 5.73317 23.7453 5.8958 23.7453Z" fill="#10B2BE"/>
<path d="M7.73542 23.4387C7.89805 23.4387 8.05402 23.3741 8.16901 23.2591C8.28401 23.1441 8.34862 22.9881 8.34863 22.8255V21.5991C8.34863 21.4365 8.28402 21.2805 8.16902 21.1655C8.05402 21.0505 7.89805 20.9859 7.73542 20.9859C7.57279 20.9859 7.41682 21.0505 7.30182 21.1655C7.18682 21.2805 7.12222 21.4365 7.12222 21.5991V22.8255C7.12222 22.9881 7.18683 23.1441 7.30183 23.2591C7.41682 23.3741 7.57279 23.4387 7.73542 23.4387Z" fill="#10B2BE"/>
<path d="M13.2543 23.7453C13.4169 23.7453 13.5729 23.6807 13.6879 23.5657C13.8029 23.4507 13.8675 23.2947 13.8675 23.1321V21.2925C13.8675 21.1299 13.8029 20.9739 13.6879 20.8589C13.5729 20.7439 13.4169 20.6793 13.2543 20.6793C13.0916 20.6793 12.9357 20.7439 12.8207 20.8589C12.7057 20.9739 12.6411 21.1299 12.6411 21.2925V23.1321C12.6411 23.2947 12.7057 23.4507 12.8207 23.5657C12.9357 23.6807 13.0916 23.7453 13.2543 23.7453Z" fill="#10B2BE"/>
<path d="M11.4147 23.4387C11.5773 23.4387 11.7333 23.3741 11.8482 23.2591C11.9632 23.1441 12.0279 22.9881 12.0279 22.8255V21.5991C12.0279 21.4365 11.9633 21.2805 11.8483 21.1655C11.7333 21.0505 11.5773 20.9859 11.4147 20.9859C11.252 20.9859 11.0961 21.0505 10.9811 21.1655C10.8661 21.2805 10.8014 21.4365 10.8014 21.5991V22.8255C10.8015 22.9881 10.8661 23.1441 10.9811 23.2591C11.0961 23.3741 11.252 23.4387 11.4147 23.4387Z" fill="#10B2BE"/>
<path d="M15.0939 23.4387C15.2565 23.4387 15.4125 23.3741 15.5275 23.2591C15.6425 23.1441 15.7071 22.9881 15.7071 22.8255V21.5991C15.7071 21.4365 15.6425 21.2805 15.5275 21.1655C15.4125 21.0505 15.2565 20.9859 15.0939 20.9859C14.9313 20.9859 14.7753 21.0505 14.6603 21.1655C14.5453 21.2805 14.4807 21.4365 14.4807 21.5991V22.8255C14.4807 22.9881 14.5453 23.1441 14.6603 23.2591C14.7753 23.3741 14.9313 23.4387 15.0939 23.4387Z" fill="#10B2BE"/>
<path d="M18.7731 23.4387C18.9358 23.4387 19.0917 23.3741 19.2067 23.2591C19.3217 23.1441 19.3863 22.9881 19.3863 22.8255V21.5991C19.3863 21.4365 19.3217 21.2805 19.2067 21.1655C19.0917 21.0505 18.9358 20.9859 18.7731 20.9859C18.6105 20.9859 18.4545 21.0505 18.3395 21.1655C18.2245 21.2805 18.1599 21.4365 18.1599 21.5991V22.8255C18.1599 22.9881 18.2245 23.1441 18.3395 23.2591C18.4545 23.3741 18.6105 23.4387 18.7731 23.4387Z" fill="#10B2BE"/>
<path d="M9.57504 23.1321C9.73767 23.1321 9.89363 23.0675 10.0086 22.9525C10.1236 22.8375 10.1882 22.6815 10.1882 22.5189V21.9057C10.1882 21.7431 10.1236 21.5871 10.0086 21.4721C9.89364 21.3571 9.73767 21.2925 9.57504 21.2925C9.41241 21.2925 9.25643 21.3571 9.14144 21.4721C9.02644 21.5871 8.96183 21.7431 8.96183 21.9057V22.5189C8.96184 22.6815 9.02645 22.8375 9.14145 22.9525C9.25644 23.0675 9.41241 23.1321 9.57504 23.1321Z" fill="#10B2BE"/>
<path d="M16.9335 23.1321C17.0961 23.1321 17.2521 23.0675 17.3671 22.9525C17.4821 22.8375 17.5467 22.6815 17.5467 22.5189V21.9057C17.5467 21.7431 17.4821 21.5871 17.3671 21.4721C17.2521 21.3571 17.0961 21.2925 16.9335 21.2925C16.7709 21.2925 16.6149 21.3571 16.4999 21.4721C16.3849 21.5871 16.3203 21.7431 16.3203 21.9057V22.5189C16.3203 22.6815 16.3849 22.8375 16.4999 22.9525C16.6149 23.0675 16.7709 23.1321 16.9335 23.1321Z" fill="#10B2BE"/>
<path d="M20.6127 23.1321C20.7754 23.1321 20.9313 23.0675 21.0463 22.9525C21.1613 22.8375 21.2259 22.6815 21.2259 22.5189V21.9057C21.2259 21.7431 21.1613 21.5871 21.0463 21.4721C20.9313 21.3571 20.7754 21.2925 20.6127 21.2925C20.4501 21.2925 20.2941 21.3571 20.1791 21.4721C20.0641 21.5871 19.9995 21.7431 19.9995 21.9057V22.5189C19.9995 22.6815 20.0641 22.8375 20.1791 22.9525C20.2941 23.0675 20.4501 23.1321 20.6127 23.1321Z" fill="#10B2BE"/>
<path d="M7.42882 26.1981C7.12562 26.1981 6.82922 26.288 6.57712 26.4565C6.32502 26.6249 6.12853 26.8644 6.0125 27.1445C5.89647 27.4246 5.86611 27.7328 5.92526 28.0302C5.98441 28.3276 6.13042 28.6008 6.34481 28.8152C6.55921 29.0296 6.83237 29.1756 7.12974 29.2347C7.42712 29.2939 7.73536 29.2635 8.01548 29.1475C8.2956 29.0314 8.53502 28.835 8.70347 28.5828C8.87192 28.3307 8.96183 28.0344 8.96183 27.7311C8.96135 27.3247 8.79969 26.9351 8.5123 26.6477C8.2249 26.3603 7.83525 26.1986 7.42882 26.1981ZM7.42882 28.0378C7.36818 28.0378 7.3089 28.0198 7.25848 27.9861C7.20806 27.9524 7.16876 27.9045 7.14556 27.8485C7.12235 27.7925 7.11628 27.7308 7.12811 27.6713C7.13994 27.6119 7.16914 27.5572 7.21202 27.5143C7.2549 27.4715 7.30953 27.4423 7.369 27.4304C7.42848 27.4186 7.49013 27.4247 7.54615 27.4479C7.60217 27.4711 7.65006 27.5104 7.68375 27.5608C7.71744 27.6112 7.73542 27.6705 7.73542 27.7311C7.73534 27.8124 7.70301 27.8904 7.64553 27.9479C7.58805 28.0053 7.51011 28.0377 7.42882 28.0378Z" fill="#10B2BE"/>
<path d="M12.0279 26.1981C11.7247 26.1981 11.4283 26.288 11.1762 26.4565C10.9241 26.6249 10.7276 26.8644 10.6115 27.1445C10.4955 27.4246 10.4652 27.7328 10.5243 28.0302C10.5835 28.3276 10.7295 28.6008 10.9439 28.8152C11.1583 29.0296 11.4314 29.1756 11.7288 29.2347C12.0262 29.2939 12.3344 29.2635 12.6145 29.1475C12.8946 29.0314 13.1341 28.835 13.3025 28.5828C13.471 28.3307 13.5609 28.0344 13.5609 27.7311C13.5604 27.3247 13.3987 26.9351 13.1113 26.6477C12.8239 26.3603 12.4343 26.1986 12.0279 26.1981ZM12.0279 28.0378C11.9672 28.0378 11.9079 28.0198 11.8575 27.9861C11.8071 27.9524 11.7678 27.9045 11.7446 27.8485C11.7214 27.7925 11.7153 27.7308 11.7271 27.6713C11.739 27.6119 11.7682 27.5572 11.8111 27.5143C11.8539 27.4715 11.9086 27.4423 11.968 27.4304C12.0275 27.4186 12.0892 27.4247 12.1452 27.4479C12.2012 27.4711 12.2491 27.5104 12.2828 27.5608C12.3165 27.6112 12.3345 27.6705 12.3345 27.7311C12.3344 27.8124 12.3021 27.8904 12.2446 27.9479C12.1871 28.0053 12.1092 28.0377 12.0279 28.0378Z" fill="#10B2BE"/>
<path d="M20.9193 26.1981H16.0137C15.8511 26.1981 15.6951 26.2628 15.5801 26.3777C15.4651 26.4927 15.4005 26.6487 15.4005 26.8113V28.651C15.4005 28.8136 15.4651 28.9696 15.5801 29.0846C15.6951 29.1995 15.8511 29.2642 16.0137 29.2642H20.9193C21.082 29.2642 21.2379 29.1995 21.3529 29.0846C21.4679 28.9696 21.5325 28.8136 21.5325 28.651V26.8113C21.5325 26.6487 21.4679 26.4927 21.3529 26.3777C21.2379 26.2628 21.082 26.1981 20.9193 26.1981ZM20.3061 28.0378H16.6269V27.4245H20.3061V28.0378Z" fill="#10B2BE"/>
<path d="M39.6176 20.9709C39.6034 20.768 39.5489 20.57 39.4574 20.3884C39.3658 20.2068 39.239 20.0452 39.0844 19.9131C38.8003 19.6698 38.4341 19.5442 38.0606 19.562C38.3618 19.4122 38.6052 19.1671 38.753 18.8649C38.9007 18.5626 38.9445 18.22 38.8776 17.8903C38.8107 17.5605 38.6368 17.2621 38.3829 17.0413C38.1291 16.8205 37.8094 16.6897 37.4736 16.6692C37.6779 16.4505 37.8133 16.1765 37.8632 15.8814C37.913 15.5863 37.875 15.2831 37.7539 15.0094C37.6328 14.7357 37.4339 14.5037 37.1819 14.3421C36.93 14.1806 36.6362 14.0966 36.3369 14.1007C36.6477 13.8728 36.8611 13.5359 36.9344 13.1575C37.0077 12.7791 36.9356 12.387 36.7323 12.0595C36.5291 11.732 36.2098 11.4932 35.8383 11.3908C35.4667 11.2884 35.0701 11.33 34.7278 11.5073L34.7191 11.5118C34.5534 10.3789 34.5982 9.22518 34.8513 8.10857H35.4851C35.8518 8.11945 36.2103 7.99919 36.4963 7.7694C36.7823 7.53961 36.977 7.21536 37.0453 6.85491L37.7687 2.39779C37.8026 2.14924 37.7662 1.89617 37.6636 1.66727C37.653 1.63468 37.6396 1.60305 37.6236 1.57273C37.5722 1.47325 37.5095 1.38007 37.4367 1.29504C37.2827 1.12136 37.0932 0.982813 36.8809 0.888793C36.6687 0.794773 36.4388 0.747475 36.2067 0.750104H32.6131C32.381 0.747475 32.151 0.794774 31.9388 0.888795C31.7266 0.982816 31.5371 1.12136 31.3831 1.29504C31.2499 1.44529 31.1512 1.62292 31.0941 1.81541C31.037 2.00791 31.0228 2.21059 31.0525 2.40917L31.7729 6.84322C31.8392 7.20592 32.0331 7.53291 32.3195 7.76501C32.606 7.99711 32.9661 8.11899 33.3347 8.10857H33.5956C32.95 11.3441 33.9633 14.0713 35.105 16.9096L35.1051 16.9102L35.1066 16.9134C35.1576 17.0403 35.2087 17.1673 35.2599 17.2944C35.4959 17.8791 35.7372 18.4774 35.9725 19.0963C37.6154 23.4187 35.3932 27.1916 32.4679 28.5474C31.5339 29.007 30.534 29.3182 29.5042 29.4698V28.9576C29.5042 28.7949 29.4396 28.639 29.3246 28.524C29.2096 28.409 29.0536 28.3444 28.891 28.3444H26.1316V18.5331C26.1311 18.0453 25.9371 17.5777 25.5922 17.2328C25.2473 16.888 24.7797 16.694 24.292 16.6934H2.21657C1.72884 16.694 1.26123 16.888 0.916352 17.2328C0.571473 17.5777 0.377486 18.0453 0.376953 18.5331V31.4104C0.377486 31.8981 0.571473 32.3657 0.916352 32.7106C1.26123 33.0555 1.72884 33.2495 2.21657 33.25H24.292C24.672 33.2494 25.0425 33.1311 25.3526 32.9115C25.6628 32.692 25.8974 32.3818 26.0243 32.0236H28.891C29.0536 32.0236 29.2096 31.959 29.3246 31.844C29.4396 31.729 29.5042 31.573 29.5042 31.4104V30.7064C29.6843 30.6847 29.8622 30.6584 30.0379 30.6274L30.1567 31.1418C30.2481 31.538 30.4931 31.8816 30.8379 32.0971C31.1826 32.3126 31.5989 32.3824 31.9951 32.291C32.3912 32.1996 32.7349 31.9545 32.9504 31.6098C33.1659 31.265 33.2356 30.8487 33.1442 30.4526L32.9829 29.7527L33.229 30.119C33.4559 30.4559 33.8073 30.6889 34.206 30.7669C34.6047 30.8449 35.018 30.7615 35.3552 30.535C35.6924 30.3085 35.9259 29.9574 36.0044 29.5588C36.0829 29.1603 36.0001 28.7468 35.774 28.4093L35.7069 28.3094C36.0254 28.5611 36.4307 28.6761 36.8339 28.6293C37.2372 28.5826 37.6054 28.3777 37.8578 28.0598C38.1102 27.7419 38.2262 27.3369 38.1804 26.9335C38.1346 26.5302 37.9306 26.1615 37.6133 25.9083L37.2637 25.6298L37.4873 25.6897C37.6817 25.742 37.8846 25.7554 38.0843 25.7293C38.2839 25.7031 38.4765 25.6379 38.651 25.5373C38.8254 25.4367 38.9783 25.3027 39.101 25.143C39.2236 24.9833 39.3136 24.801 39.3658 24.6065C39.418 24.412 39.4313 24.2091 39.4051 24.0095C39.3788 23.8098 39.3135 23.6173 39.2128 23.4429C39.1121 23.2685 38.978 23.1156 38.8183 22.9931C38.6585 22.8705 38.4761 22.7806 38.2816 22.7285L37.9542 22.6407L38.2415 22.6174C38.6414 22.5793 39.0102 22.3851 39.2678 22.0769C39.5254 21.7686 39.6511 21.3712 39.6176 20.9709ZM32.9852 6.6585L32.9357 6.35376C32.9401 6.35012 32.945 6.34761 32.9493 6.34381L36.381 3.29342L36.2917 3.84373L33.0257 6.74704C33.0049 6.72142 32.991 6.69096 32.9852 6.6585ZM32.612 4.36116L35.124 2.12832C35.172 2.0845 35.2127 2.03324 35.2444 1.97652H36.0161L32.703 4.92143L32.612 4.36116ZM35.4851 6.88216H34.72L35.9804 5.76174L35.833 6.67017C35.8063 6.73879 35.7578 6.79671 35.6949 6.83502C35.632 6.87333 35.5583 6.88989 35.4851 6.88216ZM32.3095 2.09868C32.3486 2.05813 32.3959 2.0263 32.4482 2.00525C32.5006 1.9842 32.5567 1.97441 32.6131 1.97652H33.4483L32.379 2.92698L32.2648 2.22412C32.262 2.20118 32.2646 2.17791 32.2723 2.15613C32.2801 2.13436 32.2928 2.11469 32.3095 2.09868ZM24.292 32.0236H2.21657C2.05399 32.0234 1.89813 31.9587 1.78317 31.8438C1.66822 31.7288 1.60355 31.573 1.60336 31.4104V18.5331C1.60355 18.3705 1.66822 18.2146 1.78317 18.0997C1.89813 17.9847 2.05399 17.92 2.21657 17.9199H24.292C24.4545 17.9201 24.6104 17.9847 24.7253 18.0997C24.8403 18.2147 24.905 18.3705 24.9052 18.5331V31.4104C24.905 31.573 24.8403 31.7288 24.7253 31.8438C24.6104 31.9587 24.4545 32.0234 24.292 32.0236ZM26.1316 29.5708H26.5915V30.7972H26.1316V29.5708ZM28.2778 30.7972H27.8179V29.5708H28.2778V30.7972ZM37.6705 18.1136C37.6809 18.1525 37.6834 18.1931 37.6781 18.233C37.6727 18.2729 37.6595 18.3113 37.6393 18.3461C37.619 18.3809 37.5921 18.4114 37.5601 18.4357C37.528 18.4601 37.4915 18.4779 37.4525 18.4882L37.0891 18.5845C37.015 18.3904 36.9402 18.2001 36.8653 18.0097L37.2957 17.8956C37.3742 17.8753 37.4577 17.8868 37.5279 17.9276C37.598 17.9684 37.6493 18.0352 37.6705 18.1136ZM36.6477 15.55C36.6581 15.5889 36.6607 15.6294 36.6554 15.6693C36.65 15.7092 36.6369 15.7477 36.6167 15.7825C36.5964 15.8173 36.5695 15.8477 36.5375 15.8721C36.5055 15.8965 36.469 15.9143 36.43 15.9245L36.0701 16.0199C35.9935 15.8273 35.9184 15.6358 35.8449 15.4454L36.2728 15.332C36.3514 15.3115 36.4349 15.323 36.5051 15.3638C36.5754 15.4046 36.6266 15.4715 36.6477 15.55ZM35.2907 12.5965C35.3265 12.578 35.3656 12.5668 35.4057 12.5634C35.4459 12.56 35.4863 12.5646 35.5246 12.5768C35.563 12.5891 35.5986 12.6087 35.6293 12.6347C35.6601 12.6607 35.6855 12.6925 35.7039 12.7283C35.7224 12.7641 35.7337 12.8031 35.7371 12.8433C35.7404 12.8834 35.7359 12.9238 35.7236 12.9622C35.7114 13.0005 35.6917 13.0361 35.6658 13.0669C35.6398 13.0976 35.608 13.123 35.5722 13.1415L35.1267 13.3719C35.0677 13.1698 35.0133 12.9678 34.9634 12.7657L35.2907 12.5965ZM31.9103 30.9598C31.8891 30.9939 31.8613 31.0235 31.8286 31.0468C31.7958 31.0702 31.7588 31.0868 31.7196 31.0957L31.7193 31.096C31.6801 31.1054 31.6394 31.1067 31.5996 31.1C31.5599 31.0933 31.5218 31.0787 31.4878 31.0571C31.4537 31.0358 31.4241 31.008 31.4007 30.9752C31.3774 30.9424 31.3608 30.9053 31.3519 30.8661L31.2827 30.5672L31.8801 30.4295L31.9492 30.7283C31.9583 30.7676 31.9596 30.8082 31.9529 30.8479C31.9462 30.8876 31.9317 30.9257 31.9103 30.9598ZM34.6724 29.5187C34.6049 29.564 34.5222 29.5806 34.4424 29.565C34.3626 29.5493 34.2923 29.5026 34.247 29.4351L34.0098 29.0821C34.1792 28.9695 34.346 28.851 34.5082 28.7244L34.756 29.0932C34.8012 29.1607 34.8178 29.2434 34.8021 29.3232C34.7865 29.4029 34.7398 29.4732 34.6724 29.5187ZM36.8977 27.2985C36.8727 27.33 36.8417 27.3563 36.8065 27.3758C36.7713 27.3953 36.7326 27.4077 36.6926 27.4122C36.6526 27.4168 36.6121 27.4134 36.5734 27.4023C36.5348 27.3913 36.4986 27.3727 36.4671 27.3476L36.1146 27.0665C36.2354 26.9021 36.3506 26.7325 36.4603 26.5578L36.8489 26.8673C36.9125 26.9181 36.9533 26.992 36.9625 27.0728C36.9716 27.1536 36.9483 27.2348 36.8977 27.2985ZM38.1807 24.2885C38.1703 24.3274 38.1523 24.3639 38.1278 24.3958C38.1033 24.4278 38.0727 24.4546 38.0378 24.4748C38.0029 24.4949 37.9643 24.5079 37.9244 24.5132C37.8844 24.5184 37.8438 24.5157 37.8049 24.5052L37.4273 24.404C37.4837 24.209 37.5332 24.0106 37.5758 23.8089L37.9636 23.913C38.0421 23.9341 38.1091 23.9855 38.1498 24.0558C38.1905 24.1262 38.2016 24.2099 38.1807 24.2885ZM37.7402 21.4277C37.7262 21.2265 37.7032 21.0229 37.6749 20.818L38.1026 20.7832C38.136 20.7807 38.1696 20.7849 38.2013 20.7955C38.2331 20.8062 38.2624 20.8231 38.2876 20.8452C38.319 20.8726 38.3447 20.906 38.3631 20.9434C38.3815 20.9808 38.3923 21.0215 38.3948 21.0631C38.4045 21.1405 38.3835 21.2187 38.3363 21.2808C38.289 21.3428 38.2193 21.3839 38.1421 21.3952L37.7402 21.4277Z" fill="#10B2BE"/>
</svg>
