<svg width="32" height="34" viewBox="0 0 32 34" fill="none" xmlns="http://www.w3.org/2000/svg">
<path d="M21.8206 17.4506C21.0471 16.6772 19.8021 16.6772 19.0286 17.4506L17.8692 18.6537C15.5505 17.6235 14.3474 15.5178 13.9179 14.6587L15.0773 13.4993C15.8508 12.7258 15.8508 11.4809 15.0773 10.7074L12.9296 8.55972C12.5437 8.17381 12.0706 8.00098 11.5555 8.00098C11.0404 8.00098 10.5253 8.21575 10.1813 8.55972L9.32226 9.41878C8.63433 10.1486 8.16288 11.0513 8.11924 12.0396C7.99004 13.7141 8.20481 17.023 11.1259 20.2007L11.7266 20.845C14.6897 23.9372 17.8255 24.5396 19.8022 24.5396C20.0606 24.5396 20.3173 24.5396 20.5321 24.496C21.5203 24.4104 22.4649 23.9809 23.1948 23.293L24.0539 22.4339C24.4398 22.048 24.6126 21.5748 24.6126 21.0597C24.6126 20.5447 24.3978 20.0296 24.0539 19.6856L21.8206 17.4506ZM22.7652 21.1872L21.9061 22.0463C21.4766 22.4758 20.9179 22.7342 20.3591 22.7761C18.8121 22.9053 15.7636 22.6469 12.9278 19.6402L12.3272 19.0396C9.87919 16.3332 9.66443 13.585 9.79363 12.2109C9.83725 11.6522 10.094 11.0934 10.5235 10.6639L11.3825 9.80484C11.4262 9.76122 11.5117 9.71927 11.5537 9.71927C11.5973 9.71927 11.6829 9.71927 11.7248 9.80484L13.8725 11.9525C13.9581 12.0381 13.9581 12.2109 13.8725 12.2964L12.7131 13.4558C12.198 13.9709 12.0688 14.7881 12.3691 15.4324C13.0134 16.721 14.4312 19.0397 17.1794 20.2427C17.8237 20.543 18.5972 20.3719 19.1123 19.8987L20.3154 18.6957C20.4009 18.6101 20.5737 18.6101 20.6593 18.6957L22.807 20.8433C22.8506 20.887 22.8925 20.9725 22.8925 21.0145C22.8942 21.0581 22.8524 21.1016 22.7652 21.1872Z" fill="#FEFEFE"/>
<path d="M16.1512 0.957547C11.8995 0.957547 7.94631 2.59011 4.9396 5.5969C-0.214765 10.7513 -1.20311 18.6121 2.49162 24.882L0 33.043L7.73154 30.2511C13.9597 34.1605 22.1646 33.2578 27.3606 28.0179C30.3674 25.0112 32 21.0599 32 16.8063C32 12.5546 30.3674 8.60138 27.3606 5.59467C24.3556 2.58796 20.4027 0.957031 16.1508 0.957031L16.1512 0.957547ZM26.1597 26.8148C21.391 31.5835 13.9181 32.3133 8.33417 28.5766L7.99021 28.3182L2.6649 30.2511L4.38302 24.6234L4.16826 24.2794C0.646452 18.6517 1.46187 11.479 6.14478 6.79798C8.80753 4.13524 12.373 2.6738 16.1533 2.6738C19.9335 2.6738 23.4991 4.13352 26.1617 6.79798C28.8245 9.46073 30.2859 13.0262 30.2859 16.8065C30.2826 20.5867 28.8225 24.1522 26.1597 26.8148Z" fill="#FEFEFE"/>
</svg>
