<svg width="80" height="80" viewBox="0 0 80 80" fill="none" xmlns="http://www.w3.org/2000/svg">
<path d="M39.9986 17.3578C27.5138 17.3578 17.3576 27.5151 17.3576 39.9991C17.3576 52.4831 27.5138 62.6404 39.9986 62.6404C52.4835 62.6404 62.6396 52.484 62.6396 39.9991C62.6396 27.5142 52.4835 17.3578 39.9986 17.3578ZM49.4322 38.8325C49.2274 37.1643 48.5823 35.5403 47.4969 34.1509L55.1522 26.4955C58.1142 29.8157 60.0034 34.1103 60.2722 38.8325H49.4322ZM34.1496 47.4984C35.5092 48.563 37.1179 49.2297 38.8321 49.4381V60.2738C34.1099 60.005 29.8145 58.1157 26.4952 55.1537L34.1496 47.4984ZM41.1652 49.4372C42.8794 49.2288 44.4881 48.5621 45.8477 47.4975L53.5029 55.1528C50.1828 58.1148 45.8883 60.0041 41.1661 60.2729L41.1652 49.4372ZM45.0745 45.075C43.7185 46.431 41.9158 47.1772 39.9986 47.1772C38.0814 47.1772 36.2788 46.4301 34.9228 45.075C32.1241 42.2763 32.1241 37.7219 34.9228 34.9232C37.7215 32.1245 42.2758 32.1245 45.0745 34.9232C47.8731 37.7219 47.8731 42.2763 45.0745 45.075ZM45.8468 32.5007C44.4574 31.4154 42.8334 30.7703 41.1652 30.5655V19.7253C45.8874 19.9941 50.1828 21.8834 53.502 24.8454L45.8468 32.5007ZM38.8321 30.5655C37.1639 30.7703 35.5399 31.4154 34.1505 32.5007L26.4952 24.8454C29.8154 21.8834 34.1099 19.9941 38.8321 19.7253V30.5655ZM24.8451 26.4955L32.5004 34.1509C31.415 35.5403 30.7699 37.1643 30.5651 38.8325H19.725C19.9939 34.1103 21.8831 29.8148 24.8451 26.4955ZM19.725 41.1657H30.566C30.7708 42.8339 31.4159 44.4579 32.5013 45.8473L24.846 53.5027C21.8831 50.1834 19.9939 45.8879 19.725 41.1657ZM55.1522 53.5036L47.4969 45.8482C48.5823 44.4588 49.2274 42.8348 49.4322 41.1666H60.2731C60.0034 45.8879 58.1142 50.1834 55.1522 53.5036ZM77.7535 37.7553C76.9424 37.7553 76.2333 38.1874 75.839 38.8325H68.6403C68.3579 31.8069 65.5348 25.4237 61.0671 20.5797L66.1664 15.4803C66.9017 15.6581 67.7083 15.4623 68.2821 14.8885C69.1581 14.0124 69.1581 12.5914 68.2821 11.7144C67.406 10.8384 65.985 10.8384 65.1081 11.7144C64.5343 12.2883 64.3385 13.0948 64.5163 13.8302L59.4169 18.9295C54.573 14.4617 48.1907 11.6387 41.1643 11.3563V4.15834C41.8094 3.76407 42.2415 3.05582 42.2415 2.24383C42.2415 1.00417 41.2365 0 39.9977 0C38.759 0 37.7539 1.00507 37.7539 2.24383C37.7539 3.05492 38.1861 3.76407 38.8312 4.15834V11.3572C31.8057 11.6396 25.4225 14.4626 20.5785 18.9304L15.4792 13.8311C15.657 13.0957 15.4612 12.2892 14.8874 11.7153C14.0113 10.8393 12.5904 10.8393 11.7134 11.7153C10.8374 12.5914 10.8374 14.0124 11.7134 14.8894C12.2872 15.4632 13.0938 15.659 13.8291 15.4812L18.9284 20.5806C14.4606 25.4246 11.6376 31.8069 11.3552 38.8334H4.15829C3.76403 38.1883 3.05489 37.7562 2.2438 37.7562C1.00416 37.7562 0 38.7612 0 40C0 41.2397 1.00506 42.2438 2.2438 42.2438C3.05579 42.2438 3.76403 41.8117 4.15829 41.1666H11.357C11.6394 48.1922 14.4625 54.5754 18.9302 59.4194L13.8309 64.5188C13.0956 64.341 12.289 64.5368 11.7152 65.1106C10.8392 65.9867 10.8392 67.4077 11.7152 68.2847C12.5913 69.1607 14.0122 69.1607 14.8892 68.2847C15.463 67.7108 15.6588 66.9043 15.481 66.1689L20.5803 61.0696C25.4243 65.5374 31.8066 68.3604 38.833 68.6428V75.8417C38.1879 76.2359 37.7557 76.9442 37.7557 77.7562C37.7557 78.9958 38.7608 80 39.9995 80C41.2383 80 42.2433 78.9949 42.2433 77.7562C42.2433 76.9442 41.8112 76.2359 41.1661 75.8417V68.6428C48.1916 68.3604 54.5748 65.5374 59.4188 61.0696L64.5181 66.1689C64.3403 66.9043 64.5361 67.7108 65.1099 68.2847C65.9859 69.1607 67.4069 69.1607 68.2839 68.2847C69.1599 67.4086 69.1599 65.9876 68.2839 65.1106C67.7101 64.5368 66.9035 64.341 66.1682 64.5188L61.0689 59.4194C65.5366 54.5754 68.3597 48.1931 68.6421 41.1666H75.8408C76.2351 41.8117 76.9433 42.2438 77.7553 42.2438C78.9949 42.2438 80 41.2388 80 40C79.9982 38.7594 78.9931 37.7553 77.7535 37.7553ZM39.9986 66.3341C25.4776 66.3341 13.664 54.5204 13.664 39.9991C13.664 25.4778 25.4776 13.6641 39.9986 13.6641C54.5197 13.6641 66.3333 25.4778 66.3333 39.9991C66.3333 54.5204 54.5197 66.3341 39.9986 66.3341Z" fill="#FEFEFE"/>
</svg>
