<svg width="26" height="12" viewBox="0 0 26 12" fill="none" xmlns="http://www.w3.org/2000/svg">
<path d="M1 1V0.75H0.75V1H1ZM25 1H25.25V0.75H25V1ZM25 11V11.25H25.25V11H25ZM1 11H0.75V11.25H1V11ZM2.82322 5.82322C2.72559 5.92085 2.72559 6.07915 2.82322 6.17678L4.41421 7.76777C4.51184 7.8654 4.67014 7.8654 4.76777 7.76777C4.8654 7.67014 4.8654 7.51184 4.76777 7.41421L3.35355 6L4.76777 4.58579C4.8654 4.48816 4.8654 4.32986 4.76777 4.23223C4.67014 4.1346 4.51184 4.1346 4.41421 4.23223L2.82322 5.82322ZM23.1768 6.17678C23.2744 6.07915 23.2744 5.92085 23.1768 5.82322L21.5858 4.23223C21.4882 4.1346 21.3299 4.1346 21.2322 4.23223C21.1346 4.32986 21.1346 4.48816 21.2322 4.58579L22.6464 6L21.2322 7.41421C21.1346 7.51184 21.1346 7.67014 21.2322 7.76777C21.3299 7.8654 21.4882 7.8654 21.5858 7.76777L23.1768 6.17678ZM1 1V1.25H25V1V0.75H1V1ZM25 1H24.75V11H25H25.25V1H25ZM25 11V10.75H1V11V11.25H25V11ZM1 11H1.25V1H1H0.75V11H1ZM3 6V6.25H23V6V5.75H3V6Z" fill="#10B2BE"/>
</svg>
