<svg width="38" height="15" viewBox="0 0 38 15" fill="none" xmlns="http://www.w3.org/2000/svg">
<path fill-rule="evenodd" clip-rule="evenodd" d="M34.1392 8.17463L4.74777 10.9185L5.16927 12.1862C5.35154 12.2009 5.51429 12.3083 5.60056 12.471C5.8821 12.8079 6.26457 13.0455 6.69256 13.1497C8.2679 13.6151 9.94905 13.5793 11.5033 13.0455C11.8434 12.9495 12.138 12.7379 12.3365 12.4466C12.3333 12.4076 12.3317 12.3669 12.3317 12.3278C12.3382 12.087 12.5351 11.8965 12.7759 11.8965C13.0168 11.8965 13.2137 12.0869 13.2219 12.3278C13.2219 12.3669 13.2186 12.4076 13.2154 12.4466C13.4139 12.7379 13.7085 12.9495 14.0486 13.0455C15.6028 13.5793 17.2839 13.6151 18.861 13.1497C19.2906 13.0553 19.6763 12.8161 19.953 12.4727C20.0409 12.2969 20.2215 12.1879 20.4168 12.1879C20.6121 12.1879 20.7911 12.2969 20.8807 12.4727C21.1622 12.8095 21.5447 13.0471 21.9727 13.1513C23.4504 13.5826 25.0208 13.5826 26.4984 13.1513C26.8467 13.0374 27.4245 12.7965 27.5904 12.4727C27.68 12.2969 27.859 12.1879 28.0543 12.1879C28.2512 12.1879 28.4302 12.2969 28.5197 12.4727C28.5392 12.5101 28.5653 12.5475 28.593 12.5801C28.7427 12.5671 29.3774 12.5199 29.4783 12.4857C29.5141 12.4727 29.5483 12.4564 29.5808 12.4352C31.384 11.3514 32.9382 9.89971 34.1424 8.17444L34.1392 8.17463ZM4.44822 12.725L3.82329 10.8453C2.79802 11.1513 1.72551 11.2652 0.657915 11.1822C0.543994 11.1773 0.434956 11.1252 0.358468 11.039C0.28198 10.9543 0.242922 10.8404 0.251058 10.7249C0.259195 10.6109 0.312902 10.5035 0.399155 10.4287C0.487038 10.3538 0.600959 10.318 0.716505 10.3278C1.69298 10.4043 2.67592 10.2985 3.61332 10.0137L3.48801 8.28861L2.78009 8.35371C2.66616 8.36347 2.55224 8.32767 2.46436 8.2528C2.37648 8.17794 2.32278 8.07216 2.31464 7.95824L2.16491 5.88488C2.15678 5.7677 2.19583 5.65378 2.27558 5.56753C2.35369 5.47965 2.46436 5.4292 2.58154 5.42757L5.04548 5.20136C6.20094 5.27459 6.88937 5.9874 7.15951 7.08591L12.7789 6.56188L12.4453 1.95445L11.6072 2.03257V2.03094C11.4932 2.04396 11.3777 2.00979 11.2882 1.93818C11.1987 1.86494 11.1433 1.75916 11.132 1.64361C11.1222 1.52969 11.158 1.41577 11.2329 1.32789C11.3093 1.24001 11.4151 1.18631 11.5307 1.17817C15.0524 0.846167 18.5741 0.517444 22.0958 0.191937C22.2423 0.170781 22.3904 0.226113 22.4864 0.340034L26.6526 5.26451L28.8138 5.06271L28.7113 3.64361H28.7129C28.7048 3.52643 28.7439 3.41251 28.822 3.32463C28.9017 3.23838 29.0124 3.18793 29.1296 3.1863L36.6288 2.4865V2.48487C36.8615 2.47348 37.0861 2.57764 37.226 2.76316C37.3676 2.95032 37.4067 3.19445 37.3302 3.41576C36.6092 5.89921 35.361 8.19734 33.6701 10.1534C34.212 10.0281 35.0176 9.74489 35.2275 9.34455C35.3154 9.17041 35.4961 9.05975 35.6914 9.05975C35.8883 9.05975 36.0673 9.17041 36.1552 9.34455C36.3244 9.66678 36.9299 9.92553 37.3286 10.0492C37.5499 10.1225 37.6736 10.3584 37.6052 10.5814C37.5369 10.8043 37.3025 10.9313 37.0796 10.8678C36.5653 10.7295 36.0917 10.4756 35.6914 10.1257C34.7263 11.0599 32.6985 11.1591 32.6709 11.1721C31.8572 11.9191 30.9735 12.5864 30.0328 13.1641C29.9905 13.1901 29.9466 13.2145 29.9026 13.2357C31.2973 13.5807 32.7572 13.5498 34.1372 13.1495C34.5685 13.0551 34.9541 12.8158 35.2292 12.4724C35.3171 12.2967 35.4977 12.186 35.693 12.186C35.8899 12.186 36.0689 12.2967 36.1568 12.4724C36.3375 12.8175 37.0129 13.0876 37.4441 13.2097H37.4457C37.6687 13.2764 37.7973 13.5124 37.7338 13.7369C37.6687 13.9631 37.436 14.095 37.2098 14.0347C36.6483 13.898 36.1291 13.6295 35.6914 13.252C34.8581 14.0575 33.1559 14.3326 31.8734 14.3326C31.0158 14.3407 30.1614 14.217 29.3428 13.9648C28.9766 13.8492 28.63 13.68 28.3142 13.4636L27.7121 13.5205C27.4175 13.7077 27.1001 13.8574 26.7665 13.9632C25.1147 14.453 23.3555 14.453 21.7038 13.9632C21.2269 13.8216 20.7875 13.5791 20.4165 13.2488C18.9258 14.6939 14.2746 14.6825 12.7773 13.2553C11.28 14.6825 6.63044 14.6939 5.1381 13.2488C4.30486 14.056 2.60096 14.3294 1.31851 14.3294H1.21598C0.984886 14.3213 0.802613 14.1292 0.804242 13.8981C0.80587 13.667 0.991398 13.4799 1.22249 13.4734H1.31688C2.32752 13.4734 3.76454 13.265 4.44805 12.7231L4.44822 12.725ZM34.7787 7.17223L6.62091 9.80216L6.49234 8.00873L35.7309 5.27627C35.451 5.92724 35.132 6.5603 34.7756 7.17223H34.7787ZM3.8187 7.39682L6.2989 7.16572H6.29727C6.23054 6.90045 6.10035 6.65469 5.91971 6.44801C5.6821 6.20715 5.35985 6.06881 5.02139 6.05905L3.05218 6.24295L3.14006 7.46191L3.81707 7.39844L3.8187 7.39682ZM5.6398 8.0852L5.76837 9.87864L4.47292 9.99907L4.3411 8.20726L5.63654 8.08683L5.6398 8.0852ZM19.1375 3.34612L23.5658 2.93276L21.9823 1.06121L13.3016 1.87329L13.6352 6.48071L16.7403 6.1894L16.5808 4.00701C16.5727 3.88983 16.6118 3.77429 16.6915 3.68803C16.7696 3.60178 16.8803 3.55133 16.9975 3.54807L19.1343 3.3479L19.1375 3.34612ZM19.6632 4.15658L19.7592 5.47481L20.7861 5.3788L20.6917 4.06056L19.6648 4.15658H19.6632ZM18.9016 5.55618L18.8072 4.23795L17.4661 4.36326L17.5622 5.68149L18.9016 5.55618ZM21.5412 3.98247L21.6356 5.30071L25.2762 4.96057L24.2346 3.73025L21.5396 3.98087L21.5412 3.98247ZM31.6393 3.80997L31.7109 4.79294L32.7378 4.69693L32.6662 3.71395L31.6393 3.80997ZM30.8565 4.87269L30.7849 3.88971L29.6018 4.00037L29.6734 4.98335L30.8565 4.87269ZM33.5206 3.63582L33.5922 4.6188L34.6191 4.52278L34.5475 3.5398L33.5206 3.63582ZM35.4019 3.46005L35.4735 4.44303L36.0936 4.38445C36.2189 4.05571 36.3377 3.71394 36.4516 3.36243L35.4019 3.46005Z" fill="#10B2BE"/>
</svg>
