<svg width="38" height="38" viewBox="0 0 38 38" fill="none" xmlns="http://www.w3.org/2000/svg">
<path d="M18.9662 8.52791C13.1919 8.52791 8.49471 13.2256 8.49471 18.9994C8.49471 24.7732 13.1919 29.4708 18.9662 29.4708C24.7404 29.4708 29.4376 24.7736 29.4376 18.9994C29.4376 13.2252 24.7404 8.52791 18.9662 8.52791ZM23.3292 18.4598C23.2345 17.6883 22.9361 16.9372 22.4341 16.2946L25.9747 12.7541C27.3446 14.2896 28.2184 16.2758 28.3427 18.4598H23.3292ZM16.261 22.4677C16.8898 22.9601 17.6338 23.2685 18.4266 23.3649V28.3763C16.2426 28.252 14.256 27.3782 12.7208 26.0083L16.261 22.4677ZM19.5057 23.3645C20.2985 23.2681 21.0425 22.9597 21.6714 22.4673L25.2119 26.0079C23.6763 27.3778 21.6901 28.2516 19.5061 28.3759L19.5057 23.3645ZM21.3137 21.347C20.6866 21.9741 19.8529 22.3192 18.9662 22.3192C18.0795 22.3192 17.2458 21.9737 16.6186 21.347C15.3242 20.0526 15.3242 17.9462 16.6186 16.6518C17.913 15.3574 20.0194 15.3574 21.3137 16.6518C22.6081 17.9462 22.6081 20.0526 21.3137 21.347ZM21.6709 15.5314C21.0283 15.0294 20.2772 14.7311 19.5057 14.6364V9.62284C21.6897 9.74718 23.6763 10.621 25.2115 11.9909L21.6709 15.5314ZM18.4266 14.6364C17.6551 14.7311 16.904 15.0294 16.2614 15.5314L12.7208 11.9909C14.2564 10.621 16.2426 9.74718 18.4266 9.62284V14.6364ZM11.9577 12.7541L15.4982 16.2946C14.9962 16.9372 14.6979 17.6883 14.6032 18.4598H9.58963C9.71398 16.2758 10.5878 14.2892 11.9577 12.7541ZM9.58963 19.5389H14.6036C14.6983 20.3104 14.9967 21.0615 15.4986 21.7041L11.9581 25.2447C10.5878 23.7096 9.71398 21.7229 9.58963 19.5389ZM25.9747 25.2451L22.4341 21.7046C22.9361 21.062 23.2345 20.3109 23.3292 19.5393H28.3431C28.2184 21.7229 27.3446 23.7096 25.9747 25.2451ZM36.4278 17.9616C36.0527 17.9616 35.7247 18.1615 35.5423 18.4598H32.2129C32.0823 15.2105 30.7767 12.2583 28.7103 10.018L31.0688 7.65957C31.4088 7.74177 31.7819 7.65122 32.0473 7.38584C32.4524 6.98066 32.4524 6.32346 32.0473 5.91787C31.6421 5.5127 30.9849 5.5127 30.5793 5.91787C30.3139 6.18326 30.2234 6.5563 30.3056 6.89638L27.9471 9.2548C25.7068 7.18847 22.755 5.88282 19.5053 5.75221V2.42321C19.8036 2.24086 20.0035 1.9133 20.0035 1.53776C20.0035 0.964425 19.5387 0.5 18.9658 0.5C18.3928 0.5 17.928 0.964842 17.928 1.53776C17.928 1.91289 18.1279 2.24086 18.4262 2.42321V5.75263C15.1769 5.88324 12.2247 7.18888 9.98437 9.25522L7.62595 6.89679C7.70815 6.55672 7.6176 6.18367 7.35222 5.91829C6.94704 5.51312 6.28984 5.51312 5.88425 5.91829C5.47908 6.32346 5.47908 6.98067 5.88425 7.38625C6.14964 7.65164 6.52268 7.74219 6.86275 7.65999L9.22118 10.0184C7.15485 12.2587 5.8492 15.2105 5.71859 18.4603H2.39001C2.20766 18.1619 1.87968 17.962 1.50455 17.962C0.931222 17.962 0.466797 18.4269 0.466797 18.9998C0.466797 19.5731 0.931639 20.0375 1.50455 20.0375C1.8801 20.0375 2.20766 19.8377 2.39001 19.5393H5.71943C5.85003 22.7886 7.15568 25.7408 9.22202 27.9812L6.86359 30.3396C6.52351 30.2574 6.15047 30.3479 5.88508 30.6133C5.47991 31.0185 5.47991 31.6757 5.88508 32.0813C6.29026 32.4865 6.94746 32.4865 7.35305 32.0813C7.61844 31.8159 7.70898 31.4429 7.62678 31.1028L9.98521 28.7444C12.2255 30.8107 15.1773 32.1163 18.4271 32.247V35.5764C18.1287 35.7587 17.9288 36.0863 17.9288 36.4618C17.9288 37.0352 18.3937 37.4996 18.9666 37.4996C19.5395 37.4996 20.0043 37.0347 20.0043 36.4618C20.0043 36.0863 19.8045 35.7587 19.5061 35.5764V32.247C22.7554 32.1163 25.7076 30.8107 27.948 28.7444L30.3064 31.1028C30.2242 31.4429 30.3147 31.8159 30.5801 32.0813C30.9853 32.4865 31.6425 32.4865 32.0481 32.0813C32.4533 31.6761 32.4533 31.0189 32.0481 30.6133C31.7827 30.3479 31.4097 30.2574 31.0696 30.3396L28.7112 27.9812C30.7775 25.7408 32.0831 22.789 32.2138 19.5393H35.5432C35.7255 19.8377 36.0531 20.0375 36.4286 20.0375C37.002 20.0375 37.4668 19.5727 37.4668 18.9998C37.466 18.426 37.0011 17.9616 36.4278 17.9616ZM18.9662 31.1792C12.2502 31.1792 6.78639 25.7154 6.78639 18.9994C6.78639 12.2834 12.2502 6.8196 18.9662 6.8196C25.6822 6.8196 31.146 12.2834 31.146 18.9994C31.146 25.7154 25.6822 31.1792 18.9662 31.1792Z" fill="#102634"/>
</svg>
