<svg width="24" height="24" viewBox="0 0 24 24" fill="none" xmlns="http://www.w3.org/2000/svg">
<path d="M16.3654 12.3371C15.7853 11.7585 14.8516 11.7585 14.2715 12.3371L13.4019 13.2369C11.6628 12.4663 10.7606 10.8913 10.4384 10.2487L11.308 9.3815C11.8881 8.80293 11.8881 7.87172 11.308 7.29315L9.69722 5.68673C9.40779 5.39808 9.05293 5.26881 8.66661 5.26881C8.28029 5.26881 7.89397 5.42945 7.63599 5.68673L6.9917 6.3293C6.47575 6.87523 6.12216 7.55044 6.08943 8.28965C5.99253 9.54214 6.15361 12.0172 8.34446 14.394L8.79495 14.876C11.0173 17.189 13.3691 17.6395 14.8516 17.6395C15.0454 17.6395 15.238 17.6395 15.399 17.6069C16.1402 17.5429 16.8487 17.2216 17.3961 16.7071L18.0404 16.0645C18.3298 15.7758 18.4594 15.4219 18.4594 15.0366C18.4594 14.6513 18.2984 14.2661 18.0404 14.0088L16.3654 12.3371ZM17.0739 15.132L16.4296 15.7745C16.1074 16.0958 15.6884 16.2891 15.2693 16.3205C14.1091 16.4171 11.8227 16.2238 9.69587 13.9748L9.24538 13.5256C7.40939 11.5012 7.24832 9.44557 7.34522 8.41778C7.37794 7.99985 7.57048 7.58192 7.89262 7.26064L8.53691 6.61807C8.56963 6.58544 8.63381 6.55406 8.66527 6.55406C8.69799 6.55406 8.76217 6.55406 8.79363 6.61807L10.4044 8.22449C10.4685 8.2885 10.4685 8.41776 10.4044 8.48177L9.53482 9.34898C9.1485 9.73426 9.0516 10.3455 9.27685 10.8274C9.76007 11.7913 10.8234 13.5257 12.8846 14.4255C13.3678 14.6501 13.9479 14.5221 14.3343 14.1682L15.2365 13.2683C15.3007 13.2043 15.4303 13.2043 15.4945 13.2683L17.1052 14.8748C17.1379 14.9074 17.1694 14.9714 17.1694 15.0028C17.1707 15.0354 17.1393 15.068 17.0739 15.132Z" fill="#102634"/>
<path d="M12.1134 0.000385758C8.92465 0.000385758 5.95973 1.22152 3.7047 3.47058C-0.161074 7.32599 -0.902336 13.2058 1.86871 17.8956L0 24L5.79866 21.9117C10.4698 24.8359 16.6235 24.1606 20.5205 20.2412C22.7755 17.9922 24 15.0367 24 11.8551C24 8.67487 22.7756 5.7179 20.5205 3.46891C18.2667 1.21992 15.302 0 12.1131 0L12.1134 0.000385758ZM19.6198 19.3414C16.0433 22.9083 10.4385 23.4541 6.25063 20.6592L5.99266 20.4659L1.99868 21.9117L3.28727 17.7022L3.12619 17.4449C0.484839 13.2355 1.0964 7.87033 4.60859 4.36897C6.60564 2.37727 9.27973 1.28413 12.1149 1.28413C14.9501 1.28413 17.6243 2.37598 19.6213 4.36897C21.6184 6.36068 22.7144 9.02759 22.7144 11.8552C22.7119 14.6828 21.6168 17.3497 19.6198 19.3414Z" fill="#102634"/>
</svg>
