<svg width="61" height="80" viewBox="0 0 61 80" fill="none" xmlns="http://www.w3.org/2000/svg">
<path d="M4.10542 30.2411V75.0936C4.10542 77.7987 6.30659 79.9999 9.01167 79.9999H55.6103C58.3159 79.9999 60.517 77.7987 60.517 75.0936V16.8983C60.517 15.2811 60.0883 12.8436 58.0463 10.4208C57.2695 9.49791 56.2875 8.68053 55.0449 7.92174L46.4682 2.68346C44.6889 1.59752 42.6479 1.0233 40.5649 1.0233H34.5761C31.5649 1.0233 28.7304 2.19225 26.5947 4.31334L23.9973 6.89317L20.7436 3.57213C19.3818 2.2108 17.1674 2.2108 15.8066 3.57213L15.0762 4.30254L7.12446 0.115097C6.73726 -0.0890044 6.26167 -0.0167387 5.95161 0.292832L0.292919 5.95103C-0.020069 6.26353 -0.0898932 6.74498 0.120556 7.13463L4.37898 15.0002L3.5102 15.869C2.14888 17.2303 2.14888 19.4442 3.50288 20.7987L6.70521 24.0679L6.65083 24.1219C5.03315 25.7294 4.10542 27.9598 4.10542 30.2411ZM55.6103 77.9999H9.01167C7.40913 77.9999 6.10542 76.6962 6.10542 75.0936V30.8973H58.517V75.0936C58.517 76.6962 57.2128 77.9999 55.6103 77.9999ZM28.0039 5.73228C29.7626 3.98521 32.0966 3.0233 34.5761 3.0233H40.5649C42.2797 3.0233 43.9609 3.49596 45.4262 4.39049L54.0029 9.62877C55.0581 10.2733 55.8803 10.954 56.517 11.7098C58.1699 13.6708 58.517 15.6141 58.517 16.8983V28.8973H6.24733C6.51161 27.635 7.1396 26.456 8.0605 25.5409L8.76863 24.8375C8.78572 24.8229 8.80738 24.8176 8.82368 24.8016C8.84095 24.7847 8.84694 24.7618 8.86274 24.744L28.0039 5.73228ZM2.23433 6.83775L6.84468 2.22838L13.5957 5.78313L5.85475 13.5244L2.23433 6.83775ZM4.92427 19.3915C4.34321 18.8104 4.34321 17.8641 4.92427 17.2831L17.2207 4.98619C17.8027 4.40416 18.749 4.40514 19.3222 4.97935L22.5778 8.30296L8.12465 22.6581L4.92427 19.3915Z" fill="#10B2BE"/>
<path d="M32.9584 38.8026C32.5922 38.4901 32.0581 38.4852 31.685 38.784C31.2421 39.1395 20.8378 47.5858 20.8378 56.1805C20.8378 62.5067 25.9848 67.6542 32.311 67.6542C38.6376 67.6542 43.7846 62.5067 43.7846 56.1805C43.7846 48.0936 33.4003 39.1776 32.9584 38.8026ZM32.311 65.6542C27.0874 65.6542 22.8378 61.4042 22.8378 56.1805C22.8378 49.6883 30.0698 42.8426 32.2944 40.8915C34.5092 42.9256 41.7846 50.077 41.7846 56.1805C41.7846 61.4042 37.5346 65.6542 32.311 65.6542Z" fill="#10B2BE"/>
</svg>
