<svg width="40" height="38" viewBox="0 0 40 38" fill="none" xmlns="http://www.w3.org/2000/svg">
<path fill-rule="evenodd" clip-rule="evenodd" d="M19.9425 37.7458C18.6048 37.7458 17.3106 37.3129 16.1034 36.4345C14.6477 35.3833 13.0077 34.9712 11.0881 35.1772C9.82704 35.3063 8.75856 35.8829 7.78736 36.4782C7.15166 36.8799 6.3855 37.3129 5.56548 37.5189C3.62313 38.006 1.82369 37.6813 0.216732 36.5427C-0.00897616 36.3803 -0.0752392 36.0556 0.0986986 35.8266C0.270569 35.5997 0.583246 35.5331 0.811053 35.708C2.15911 36.6614 3.67902 36.9444 5.31901 36.5323C5.99818 36.3595 6.6774 35.9682 7.26136 35.6227C8.32984 34.9607 9.52671 34.3321 10.9928 34.1697C13.1381 33.9428 15.0597 34.4299 16.7079 35.6227C18.1636 36.6634 19.727 36.9778 21.367 36.5552C21.982 36.3928 22.6509 36.0681 23.417 35.5581C25.1751 34.4092 27.0304 33.9533 29.0907 34.1697C30.3849 34.3113 31.6253 34.7984 32.876 35.6768C34.0832 36.5218 35.4209 36.8487 36.9304 36.6634C37.6966 36.5656 38.4193 36.2721 39.2062 35.7538C39.4443 35.6019 39.757 35.6664 39.9185 35.9058C40.0697 36.1451 40.0055 36.4595 39.7674 36.6218C38.8625 37.2172 37.9762 37.5752 37.0609 37.6834C35.2822 37.8999 33.7167 37.5211 32.2941 36.524C31.1842 35.7435 30.1054 35.3105 28.983 35.1897C27.1608 34.9941 25.5208 35.3958 23.9781 36.4158C23.127 36.9799 22.3609 37.3483 21.6278 37.544C21.0459 37.6855 20.4952 37.7501 19.9464 37.7501L19.9425 37.7458Z" fill="#10B2BE"/>
<path fill-rule="evenodd" clip-rule="evenodd" d="M4.07647 32.4133C2.74915 32.4133 1.49842 31.9908 0.33468 31.1665C0.108972 31.0042 0.0551348 30.6794 0.216647 30.4504C0.378164 30.2236 0.701194 30.1694 0.929001 30.3318C2.33086 31.3289 3.87357 31.6224 5.52394 31.2102C6.2135 31.0249 6.89267 30.6357 7.4663 30.288C8.50165 29.6594 9.75237 28.9871 11.2516 28.8247C13.3658 28.6082 15.2522 29.0953 16.8818 30.2568C18.1657 31.1664 19.524 31.5245 21.044 31.3413C21.8205 31.2539 22.5639 30.95 23.4066 30.3984C24.4089 29.7469 25.5105 29.1078 26.815 28.9122C28.9499 28.577 30.7846 28.9122 32.4225 29.9321C32.5509 30.0196 32.6813 30.0945 32.8118 30.1819C33.5676 30.669 34.2778 31.1353 35.131 31.2872C36.6944 31.5578 37.999 31.3413 39.1006 30.6482C39.3387 30.4962 39.6617 30.5733 39.8025 30.8105C39.9537 31.0499 39.8771 31.3747 39.641 31.5162C38.3137 32.3613 36.773 32.6111 34.9487 32.3072C33.8927 32.1219 33.0623 31.5807 32.2527 31.0499C32.1347 30.975 32.0042 30.8876 31.8862 30.8105C30.4615 29.9321 28.8546 29.6511 26.9786 29.9425C25.9225 30.1049 25.0155 30.5941 23.9802 31.2768C23.009 31.9158 22.1145 32.2739 21.1764 32.3717C19.4287 32.5882 17.7908 32.1656 16.302 31.1144C14.867 30.0841 13.2601 29.6823 11.3736 29.8676C10.0794 30.0092 9.00057 30.5837 8.01908 31.179C7.38338 31.5703 6.61722 32.0033 5.7972 32.2197C5.20497 32.3384 4.6438 32.4154 4.08263 32.4154L4.07647 32.4133Z" fill="#10B2BE"/>
<path fill-rule="evenodd" clip-rule="evenodd" d="M36.2697 27.0883C35.1163 27.0883 33.9608 26.7532 32.8178 26.0683C32.646 25.9705 32.4844 25.8623 32.3333 25.7644C32.1386 25.6458 31.9564 25.525 31.7618 25.4168C29.4218 24.1158 27.1358 24.1055 24.7835 25.3731C24.5453 25.5022 24.3093 25.6541 24.0711 25.8186C23.8868 25.9372 23.6818 26.0683 23.4892 26.187C21.7954 27.207 19.8655 27.3693 17.9353 26.6637C17.397 26.4576 16.9207 26.1537 16.4568 25.8727C16.2187 25.7207 15.993 25.5792 15.7673 25.4501C13.3942 24.1158 11.075 24.095 8.70415 25.396C8.43495 25.5479 8.17611 25.7103 7.89452 25.8956C7.74335 25.9934 7.60254 26.0912 7.45138 26.1766C6.03913 27.055 4.43228 27.3048 2.78191 26.9134C2.00541 26.7282 1.18539 26.3597 0.28045 25.7852C0.0423163 25.6333 -0.0322272 25.319 0.118932 25.0796C0.270091 24.8402 0.582774 24.7653 0.820896 24.9172C1.64091 25.4272 2.35322 25.7519 3.02205 25.9143C4.41357 26.2494 5.72849 26.0433 6.91503 25.3065C7.05584 25.2191 7.19457 25.1212 7.33538 25.0359C7.61493 24.8506 7.90689 24.6675 8.20921 24.5051C10.8846 23.0418 13.5908 23.0626 16.2663 24.5592C16.5251 24.7008 16.7632 24.8527 16.9993 25.0047C17.43 25.2753 17.8504 25.5355 18.2831 25.7103C19.9335 26.3181 21.5176 26.187 22.963 25.319C23.1473 25.2107 23.3295 25.0921 23.5138 24.9714C23.7623 24.809 24.0211 24.6466 24.2903 24.4947C26.9429 23.0626 29.6184 23.075 32.2604 24.5384C32.4758 24.657 32.6808 24.7882 32.8858 24.9172C33.0369 25.0151 33.1881 25.1129 33.3393 25.1982C35.3023 26.3701 37.2218 26.3701 39.1847 25.2086C39.4332 25.0671 39.7459 25.1441 39.8867 25.3939C40.0275 25.6437 39.9509 25.958 39.7024 26.0995C38.5697 26.7511 37.4163 27.0862 36.2732 27.0862L36.2697 27.0883Z" fill="#10B2BE"/>
<path d="M28.1522 17.0921V18.1447H11.8478V17.0921H28.1522ZM31.413 13.9342L29.2391 4.46053C29.2391 2.71647 27.7792 1.30263 25.9783 1.30263H14.0217C12.2208 1.30263 10.7609 2.71647 10.7609 4.46053L8.58696 13.9342C8.58696 15.6783 10.0469 17.0921 11.8478 17.0921V18.1447L11.6239 18.1396C9.32669 18.0267 7.5 16.1869 7.5 13.9342L9.67391 4.46053C9.67391 2.13512 11.6205 0.25 14.0217 0.25H25.9783C28.3795 0.25 30.3261 2.13512 30.3261 4.46053L32.5 13.9342C32.5 16.2596 30.5534 18.1447 28.1522 18.1447V17.0921C29.9531 17.0921 31.413 15.6783 31.413 13.9342Z" fill="#10B2BE"/>
<path d="M28.1522 19.1974V20.25H11.8478V19.1974H28.1522ZM31.413 13.9342L29.2391 4.46053C29.2391 2.71647 27.7792 1.30263 25.9783 1.30263H14.0217C12.2208 1.30263 10.7609 2.71647 10.7609 4.46053L8.58696 13.9342C8.58696 15.6783 10.0469 19.1974 11.8478 19.1974V20.25L11.6239 20.2449C9.32669 20.132 7.5 16.1869 7.5 13.9342L9.67391 4.46053C9.67391 2.13512 11.6205 0.25 14.0217 0.25H25.9783C28.3795 0.25 30.3261 2.13512 30.3261 4.46053L32.5 13.9342C32.5 16.2596 30.5534 20.25 28.1522 20.25V19.1974C29.9531 19.1974 31.413 15.6783 31.413 13.9342Z" fill="#10B2BE"/>
</svg>
