<svg width="31" height="36" viewBox="0 0 31 36" fill="none" xmlns="http://www.w3.org/2000/svg">
<path d="M14.8382 6.36445e-05C15.214 -0.00430527 15.5561 0.216586 15.7074 0.56061L30.5462 34.3106C30.7079 34.6787 30.6166 35.1089 30.3197 35.3799C30.0226 35.651 29.5856 35.7026 29.2337 35.5079L14.8627 27.5577L1.41441 35.4952C1.06736 35.7 0.628046 35.6596 0.323588 35.3956C0.0192919 35.1316 -0.0828631 34.7026 0.0706584 34.3301L13.9828 0.580142L14.0453 0.456118C14.2108 0.179552 14.5094 0.003888 14.8382 6.36445e-05ZM2.87144 32.4571L14.3724 25.671L14.4828 25.6153C14.7461 25.5035 15.0488 25.5176 15.3031 25.6583L27.7113 32.5225L14.8763 3.33014L2.87144 32.4571Z" fill="#10B2BE"/>
</svg>
