<svg width="81" height="65" viewBox="0 0 81 65" fill="none" xmlns="http://www.w3.org/2000/svg">
<path d="M54.3207 0H7.59786C3.53001 0 0.222656 3.30735 0.222656 7.3752V18.5524C0.222656 19.2473 0.786452 19.8111 1.48135 19.8111H12.4488V61.8533C12.4488 63.5905 13.8583 65 15.5955 65H58.5423C60.2795 65 61.689 63.5905 61.689 61.8533V7.3752C61.689 3.30735 58.3819 0 54.3207 0ZM2.74013 7.3752C2.74013 4.6972 4.92322 2.51739 7.59795 2.51739C10.2759 2.51739 12.4558 4.70047 12.4558 7.3752V17.3004L2.7403 17.3037L2.74013 7.3752ZM59.1717 61.8533C59.1717 62.2073 58.8865 62.4826 58.5423 62.4826H15.6023C15.2483 62.4826 14.973 62.1974 14.973 61.8533V7.3752C14.973 5.51334 14.2781 3.81872 13.1439 2.51739H54.3268C57.0048 2.51739 59.1846 4.70047 59.1846 7.3752L59.1879 61.8533H59.1717ZM79.5206 19.3916H76.2886V18.0312C76.2886 16.8578 75.3315 15.9006 74.158 15.9006H74.1416V12.744C74.1416 11.8197 73.3942 11.0658 72.4731 11.0658H69.3854C68.461 11.0658 67.7169 11.8197 67.7169 12.744V15.9006H67.6874C66.514 15.9006 65.5568 16.8577 65.5568 18.0312V34.9154C65.5568 35.7873 66.078 36.5347 66.8253 36.8624V46.6794C66.8253 47.2825 66.9859 47.83 67.3203 48.3413L68.3594 49.9442C68.6872 50.449 69.1395 50.8325 69.6672 51.0685V52.6812C69.6672 53.3761 70.231 53.9399 70.9259 53.9399C71.6208 53.9399 72.1846 53.3761 72.1846 52.6812V51.0685C72.7124 50.8325 73.168 50.449 73.4925 49.9442L74.5251 48.3512C74.8594 47.8464 75.02 47.2925 75.02 46.6828L75.0233 36.8624C75.7706 36.5281 76.2918 35.7807 76.2918 34.9154V21.9089H78.2618V29.6806C78.2618 30.3755 78.8256 30.9393 79.5205 30.9393C80.2154 30.9393 80.7792 30.3755 80.7792 29.6806V20.6499C80.7792 19.955 80.2155 19.3916 79.5206 19.3916ZM68.0681 34.532V18.4182H73.7749V34.5387H68.0681V34.532ZM70.2151 13.5764H71.6181V15.8938H70.2151V13.5764ZM72.4146 46.9746L71.3755 48.5775C71.2509 48.7709 71.0739 48.8135 70.9559 48.8201H70.9232H70.8805C70.7625 48.8103 70.5855 48.7709 70.461 48.5775L69.4219 46.9746C69.3563 46.873 69.3301 46.7976 69.3301 46.6796L69.3268 37.0489H72.4899V46.6796C72.5063 46.7976 72.4802 46.8665 72.4146 46.9746ZM37.0696 30.9128C43.3467 30.9128 48.4473 25.8125 48.4473 19.535C48.4473 13.2576 43.347 8.15727 37.0696 8.15727C30.7924 8.15727 25.6918 13.2576 25.6918 19.535C25.6918 25.8125 30.7921 30.9128 37.0696 30.9128ZM37.0696 10.6654C41.9601 10.6654 45.9392 14.6415 45.9392 19.535C45.9392 24.4256 41.9631 28.4047 37.0696 28.4047C32.179 28.4047 28.1999 24.4286 28.1999 19.535C28.1999 14.6415 32.1858 10.6654 37.0696 10.6654ZM33.0739 22.2295C32.8051 21.5903 33.1067 20.8528 33.7458 20.584C34.385 20.3153 35.1225 20.6168 35.3913 21.256C35.6765 21.9345 36.1386 22.3902 36.7352 22.5737C37.263 22.7343 37.8694 22.6655 38.2693 22.3967C38.4692 22.2623 38.6134 22.0361 38.6397 21.8165C38.656 21.6231 38.5905 21.4559 38.4299 21.3052C38.2529 21.138 37.6661 20.9938 37.1875 20.8856C36.2566 20.666 35.0995 20.3906 34.2342 19.5089C33.4803 18.7353 33.1755 17.5782 33.4377 16.4867C33.7065 15.3722 34.503 14.5069 35.6273 14.1299C35.6863 14.1135 35.7519 14.0873 35.8109 14.0709V13.2318C35.8109 12.5369 36.3747 11.9731 37.0696 11.9731C37.7645 11.9731 38.3283 12.5369 38.3283 13.2318V14.0381C38.6626 14.1234 38.9904 14.2479 39.2854 14.4085C40.1671 14.8937 40.7539 15.6509 40.9898 16.6145C41.157 17.2865 40.7473 17.9748 40.0654 18.1322C39.3935 18.2994 38.7051 17.8896 38.5478 17.2078C38.4822 16.939 38.3282 16.7456 38.0791 16.6047C37.6431 16.3621 36.981 16.3293 36.4336 16.5129C36.132 16.6145 35.9485 16.8079 35.8796 17.0767C35.8206 17.3291 35.8797 17.5979 36.0304 17.7552C36.3844 18.1158 37.0465 18.2764 37.7579 18.4337C38.6232 18.6337 39.5115 18.8434 40.1835 19.499C40.898 20.1873 41.2324 21.092 41.1471 22.0492C41.0553 23.0424 40.5014 23.9569 39.6623 24.5109C39.2591 24.7698 38.8068 24.9632 38.3282 25.0747V25.8286C38.3282 26.5235 37.7644 27.0873 37.0695 27.0873C36.3746 27.0873 35.8108 26.5235 35.8108 25.8286V24.9239C34.5849 24.4847 33.6212 23.5374 33.0739 22.2295ZM54.7176 38.1042C54.7176 38.7991 54.1538 39.3629 53.4589 39.3629H20.6807C19.9858 39.3629 19.4221 38.7991 19.4221 38.1042C19.4221 37.4093 19.9858 36.8455 20.6807 36.8455H53.4656C54.1539 36.8455 54.7176 37.4093 54.7176 38.1042ZM54.7176 46.8496C54.7176 47.5445 54.1538 48.1083 53.4589 48.1083H20.6807C19.9858 48.1083 19.4221 47.5445 19.4221 46.8496C19.4221 46.1547 19.9858 45.5909 20.6807 45.5909H53.4656C54.1539 45.5909 54.7176 46.1514 54.7176 46.8496ZM54.7176 55.5917C54.7176 56.2866 54.1538 56.8504 53.4589 56.8504H20.6807C19.9858 56.8504 19.4221 56.2866 19.4221 55.5917C19.4221 54.8968 19.9858 54.333 20.6807 54.333H53.4656C54.1539 54.333 54.7176 54.8968 54.7176 55.5917Z" fill="#10B2BE"/>
</svg>
