<svg width="40" height="27" viewBox="0 0 40 27" fill="none" xmlns="http://www.w3.org/2000/svg">
<path d="M39.8109 21.3847C39.8109 21.3649 39.8109 21.3649 39.8109 21.345C39.8109 21.3251 39.8109 21.3053 39.791 21.2854V21.2655L33.4719 0.758327C33.4322 0.599356 33.2732 0.5 33.1143 0.5H6.904C6.74503 0.5 6.60593 0.599356 6.54632 0.758327L0.207371 21.2854V21.3053C0.207371 21.3251 0.207371 21.345 0.1875 21.3649C0.1875 21.3847 0.1875 21.3847 0.1875 21.4046C0.1875 21.4245 0.1875 21.4245 0.1875 21.4444L0.604797 26.4321C0.624669 26.6109 0.783639 26.75 0.962481 26.75H39.016C39.1949 26.75 39.3539 26.6109 39.3737 26.4321L39.6519 22.7757C39.6519 22.7559 39.6519 22.7161 39.6519 22.6963L39.791 21.4444C39.8109 21.4046 39.8109 21.4046 39.8109 21.3847ZM24.3113 22.3187L24.351 21.7623H31.3258L31.2662 22.3187H24.3113ZM8.89113 22.3187V21.7623H15.866V22.3187H8.89113ZM0.982352 21.7424H8.1559V22.2988H1.04197L0.982352 21.7424ZM27.5503 1.21537L29.7958 13.0587H23.8344L23.0594 1.21537H27.5503ZM24.3311 21.0271L23.8542 13.8138H29.8951L31.2662 21.0271H24.3311ZM22.4831 3.89799H17.6345L17.7935 1.21537H22.3241L22.4831 3.89799ZM17.5749 4.6531H22.5229L23.5959 21.0072H16.6409L17.5749 4.6531ZM32.0611 21.7424H39.0359L38.9763 22.2988H32.0015L32.0611 21.7424ZM38.9564 21.0271H32.0213L28.2855 1.23524H32.8361L38.9564 21.0271ZM7.1822 1.21537H11.7923L11.2161 4.33516C11.1763 4.53388 11.3154 4.73259 11.5141 4.77233C11.534 4.77233 11.5539 4.77233 11.5738 4.77233C11.7526 4.77233 11.9116 4.6531 11.9314 4.47426L12.5276 1.21537H17.0384L15.8858 21.0072H8.95075L10.2623 13.6151C10.302 13.5555 10.3219 13.4958 10.3219 13.4362C10.3219 13.4164 10.3219 13.3965 10.3219 13.3766L11.4148 7.19663C11.4545 6.99792 11.3154 6.79921 11.1167 6.77933C10.918 6.73959 10.7193 6.87869 10.6994 7.0774L9.62637 13.0984H3.52588L7.1822 1.21537ZM3.28742 13.7939H9.48727L8.21551 21.0072H1.06184L3.28742 13.7939ZM1.32016 26.0148L1.12145 23.0539H21.8472C22.0459 23.0539 22.2049 22.895 22.2049 22.6963C22.2049 22.4975 22.0459 22.3386 21.8472 22.3386H16.6012V21.7822H23.5959L23.5562 22.3386H22.9401C22.7414 22.3386 22.5825 22.4975 22.5825 22.6963C22.5825 22.895 22.7414 23.0539 22.9401 23.0539H38.8769L38.6782 26.0148H1.32016Z" fill="#10B2BE"/>
<path d="M11.1962 6.32229C11.2161 6.32229 11.2558 6.32229 11.2757 6.32229C11.4545 6.32229 11.5936 6.20307 11.6334 6.02422L11.7129 5.64667C11.7526 5.44796 11.6334 5.24924 11.4347 5.2095C11.2359 5.16976 11.0372 5.28899 10.9975 5.4877L10.918 5.88513C10.8783 6.08384 10.9975 6.28255 11.1962 6.32229Z" fill="#10B2BE"/>
<path d="M14.3955 9.70042C14.5545 9.70042 14.6737 9.60106 14.6737 9.46196L15.25 4.19606C15.2698 4.05696 15.1506 3.91786 15.0115 3.89799C14.8724 3.87812 14.7333 3.99735 14.7134 4.13645L14.1372 9.40235C14.1372 9.56132 14.2365 9.70042 14.3955 9.70042Z" fill="#10B2BE"/>
<path d="M14.1173 11.9459C14.2763 11.9459 14.3955 11.8465 14.3955 11.7074L14.4948 10.694C14.5147 10.5549 14.3955 10.4158 14.2564 10.3959C14.1173 10.376 13.9782 10.4953 13.9583 10.6344L13.859 11.6478C13.859 11.8068 13.9583 11.9459 14.1173 11.9459Z" fill="#10B2BE"/>
<path d="M34.4258 13.3369L35.6379 18.6028C35.6578 18.722 35.777 18.8015 35.8962 18.8015C35.9161 18.8015 35.936 18.8015 35.9559 18.8015C36.095 18.7617 36.1943 18.6226 36.1546 18.4835L34.9424 13.2176C34.9027 13.0785 34.7636 12.9792 34.6245 13.0189C34.4854 13.0587 34.386 13.1978 34.4258 13.3369Z" fill="#10B2BE"/>
</svg>
