<svg width="23" height="22" viewBox="0 0 23 22" fill="none" xmlns="http://www.w3.org/2000/svg">
<path d="M6.20055 20.3721C7.81966 21.2536 9.64435 21.7158 11.5 21.7158C17.5643 21.7158 22.5 16.8439 22.5 10.8579C22.5 4.87189 17.5643 0 11.5 0C5.43565 0 0.5 4.87189 0.5 10.8579C0.5 12.7807 1.01314 14.6629 1.99208 16.319L0.592177 22L6.20055 20.3721ZM6.78467 5.78412C7.01757 5.57266 7.32022 5.45957 7.63658 5.45957H7.97161C8.41499 5.45957 8.80982 5.73372 8.96053 6.14312L9.64553 8.00687C9.70905 8.18267 9.67791 8.37815 9.55959 8.52566L9.01782 9.19321C8.80359 9.45384 8.7463 9.81035 8.87085 10.1214C9.52722 11.7516 11.4789 12.8973 12.4989 13.4014C12.8689 13.5834 13.3122 13.5145 13.6049 13.2281L14.204 12.6367C14.3472 12.4954 14.5615 12.445 14.7558 12.504L16.5729 13.0769C17.0101 13.2158 17.3065 13.6153 17.3065 14.0677V14.5238C17.3065 14.857 17.172 15.1779 16.9328 15.4139C15.163 17.1387 12.2261 15.8737 10.3233 14.7218C8.952 13.8907 7.75634 12.799 6.86703 11.4738C4.71486 8.26744 6.02245 6.47021 6.78467 5.78412Z" fill="#5AF26F"/>
</svg>
