<svg width="40" height="31" viewBox="0 0 40 31" fill="none" xmlns="http://www.w3.org/2000/svg">
<path d="M39.207 18.6467C39.206 17.7221 38.9714 16.8259 38.5098 15.9831C38.0724 15.1845 37.4513 14.4696 36.6636 13.8584C35.5816 13.0188 34.2654 12.437 32.8368 12.152C33.1201 11.9505 33.3884 11.7238 33.6389 11.4728C34.8038 10.3053 35.4443 8.75411 35.4424 7.10489C35.4406 5.45567 34.7966 3.9059 33.6291 2.74104C32.4616 1.57615 30.9107 0.935106 29.2612 0.937507C26.5133 0.940574 24.1487 2.7472 23.367 5.28882C22.3745 4.63868 21.2145 4.28887 20.0002 4.28751H19.9932C18.781 4.28751 17.6222 4.63503 16.6299 5.28221C15.8462 2.74405 13.4832 0.940574 10.7377 0.937507C9.08938 0.936706 7.53731 1.57618 6.36983 2.74104C5.20236 3.9059 4.5584 5.4557 4.55654 7.10489C4.55467 8.75409 5.19518 10.3053 6.36004 11.4728C6.61055 11.7239 6.87892 11.9505 7.16218 12.152C5.73356 12.437 4.41727 13.0188 3.33532 13.8584C2.54764 14.4696 1.92649 15.1845 1.4891 15.9831C1.0275 16.8259 0.79292 17.7221 0.791906 18.6467L0.785157 24.6852C0.784863 24.9447 0.935122 25.1808 1.17031 25.2904C3.89922 26.5622 6.88258 27.2277 10.0485 27.2724L10.0476 28.0352C10.0473 28.2947 10.1976 28.5308 10.4328 28.6404C13.2581 29.9571 16.3609 30.6248 19.6549 30.625C19.6544 30.625 19.6555 30.625 19.6549 30.625C22.5573 30.625 25.0753 30.0948 26.6753 29.65C28.4179 29.1656 29.4692 28.682 29.5131 28.6617C29.7485 28.5526 29.8993 28.3169 29.8996 28.0574L29.9004 27.2731C33.0847 27.2347 36.0855 26.5688 38.8286 25.2904C39.0637 25.1808 39.214 24.9447 39.2137 24.6852L39.207 18.6467ZM29.2628 2.27122C29.2647 2.27122 29.2665 2.27122 29.2683 2.27122C30.5591 2.27122 31.7731 2.77324 32.6871 3.68514C33.6024 4.59837 34.1072 5.81338 34.1087 7.10636C34.1101 8.39931 33.608 9.61547 32.6947 10.5307C31.7815 11.446 30.5665 11.9509 29.2736 11.9523C29.2717 11.9523 29.2699 11.9523 29.268 11.9523C28.1172 11.9523 27.0276 11.553 26.1571 10.8203C26.1637 10.7036 26.1675 10.5865 26.1677 10.4687C26.1694 8.88725 25.5802 7.39613 24.5047 6.24687C24.9151 3.96282 26.9096 2.27386 29.2628 2.27122ZM19.9988 5.62124C21.2917 5.62268 22.5067 6.12756 23.42 7.04282C24.3332 7.95811 24.8354 9.17424 24.8339 10.4672C24.8309 13.1333 22.6595 15.3024 19.9935 15.3024H19.9874C18.6946 15.3008 17.4798 14.7959 16.5667 13.8808C16.2389 13.5522 15.9644 13.1848 15.7468 12.789C15.7356 12.7651 15.723 12.7419 15.709 12.7194C15.3448 12.0302 15.1519 11.2581 15.1528 10.4564C15.1558 7.79033 17.3272 5.6213 19.9932 5.6213L19.9988 5.62124ZM5.8903 7.10639C5.89174 5.81341 6.39661 4.5984 7.31188 3.68516C8.22586 2.77321 9.43972 2.27124 10.7306 2.27124C10.7324 2.27124 10.7344 2.27124 10.7362 2.27124C13.0856 2.27388 15.0775 3.95743 15.4923 6.23594C14.4137 7.38295 13.8208 8.87324 13.819 10.4549C13.8189 10.5806 13.8229 10.7057 13.8302 10.8301C12.9616 11.5566 11.8768 11.9523 10.731 11.9523C10.7292 11.9523 10.7272 11.9523 10.7254 11.9523C9.43247 11.9509 8.21746 11.446 7.30422 10.5308C6.39099 9.61547 5.88886 8.39934 5.8903 7.10639ZM2.11943 24.2561L2.1257 18.6482C2.12724 17.2522 2.84725 15.9253 4.15303 14.9121C5.50595 13.8622 7.3043 13.2844 9.21805 13.2844C9.22155 13.2844 9.22515 13.2844 9.22867 13.2844L12.2192 13.2877C13.0706 13.2887 13.901 13.4045 14.692 13.6315C14.9492 14.0599 15.2605 14.4599 15.6226 14.8228C15.8734 15.0741 16.1421 15.3011 16.4257 15.5027C12.7728 16.234 10.0579 18.8681 10.0544 21.9967L10.05 25.9383C7.22919 25.8962 4.56606 25.3317 2.11943 24.2561ZM28.5664 27.6141C27.4428 28.0638 23.9795 29.2913 19.6563 29.2913C19.656 29.2913 19.6566 29.2913 19.6563 29.2913C16.7081 29.2911 13.9258 28.7244 11.3819 27.6061L11.3882 21.9982C11.3898 20.6035 12.1085 19.2776 13.4121 18.2647C14.7651 17.2134 16.5652 16.6344 18.4807 16.6344L19.9858 16.6361C19.9857 16.6361 19.986 16.6361 19.9858 16.6361H19.9928L21.4817 16.6378C23.3994 16.6399 25.2006 17.222 26.5537 18.2768C27.8572 19.293 28.5742 20.6214 28.5727 22.0174L28.5664 27.6141ZM29.902 25.9392L29.9064 22.0189C29.9099 18.8885 27.2017 16.2496 23.5499 15.5105C23.8347 15.3089 24.1047 15.0819 24.3566 14.8302C24.7206 14.4667 25.0337 14.0656 25.2922 13.6358C26.0875 13.406 26.923 13.2887 27.7797 13.2878L30.7703 13.2844C30.7739 13.2844 30.7773 13.2844 30.7809 13.2844C32.6945 13.2844 34.4931 13.8624 35.8459 14.9121C37.1517 15.9254 37.8717 17.2523 37.8733 18.6482L37.8796 24.2562C35.4193 25.3377 32.7405 25.9027 29.902 25.9392Z" fill="#10B2BE"/>
</svg>
