<svg width="40" height="28" viewBox="0 0 40 28" fill="none" xmlns="http://www.w3.org/2000/svg">
<path d="M1.91976 0.25C0.864 0.25 0 1.11286 0 2.16862V24.1216C0 25.1157 0.765854 25.9387 1.73601 26.0322L2.42881 27.5035L2.42996 27.5023C2.50072 27.653 2.65138 27.75 2.81801 27.75H5.30731C5.47281 27.75 5.62459 27.653 5.69422 27.5023L6.38361 26.0402H12.5058L13.1918 27.5023H13.1929C13.2637 27.6541 13.4155 27.75 13.5821 27.75H16.0692C16.2369 27.75 16.3887 27.6541 16.4595 27.5023L17.1455 26.0391C18.1784 26.0129 19.0161 25.1603 19.0161 24.1205L19.0173 2.16868C19.0173 1.11292 18.1533 0.250057 17.0975 0.250057L1.91976 0.25ZM1.91976 1.10944H17.0975C17.691 1.10944 18.1567 1.57396 18.1567 2.16862V24.1216C18.1567 24.7163 17.691 25.1819 17.0975 25.1819L1.91976 25.1808C1.32627 25.1808 0.860582 24.7163 0.860582 24.1205V2.16865C0.860582 1.57399 1.32627 1.10944 1.91976 1.10944ZM9.50993 2.38207C7.09141 2.38207 5.12039 4.35434 5.12039 6.77512C5.12039 9.19478 7.09266 11.1647 9.50993 11.1647C11.9285 11.1647 13.8963 9.19467 13.8963 6.77512C13.8963 4.35556 11.9274 2.38207 9.50993 2.38207ZM9.50993 3.24151C11.4628 3.24151 13.0366 4.81886 13.0366 6.77523C13.0366 8.73152 11.4627 10.3055 9.50993 10.3055C7.55715 10.3055 5.97972 8.73038 5.97972 6.77523C5.97972 4.81895 7.55593 3.24151 9.50993 3.24151ZM9.50993 4.54493C8.28412 4.54493 7.27972 5.54819 7.27972 6.77514C7.27972 8.0021 8.28412 9.00536 9.50993 9.00536C10.7358 9.00536 11.7367 8.0021 11.7367 6.77514C11.7367 5.54819 10.7358 4.54493 9.50993 4.54493ZM9.50993 5.40437C10.2712 5.40437 10.8773 6.01271 10.8773 6.77514C10.8773 7.53758 10.2712 8.14592 9.50993 8.14592C8.74864 8.14592 8.1403 7.53758 8.1403 6.77514C8.1403 6.01271 8.74864 5.40437 9.50993 5.40437ZM9.50993 11.9134C6.20558 11.9134 3.5154 14.6048 3.5154 17.9112C3.5154 21.2188 6.20558 23.9089 9.50993 23.9089C12.8143 23.9089 15.5021 21.2176 15.5021 17.9112C15.5021 14.6036 12.8142 11.9134 9.50993 11.9134ZM9.50993 12.7729C12.3497 12.7729 14.6425 15.0682 14.6425 17.9113C14.6425 20.7544 12.3495 23.0497 9.50993 23.0497C6.67036 23.0497 4.37502 20.7544 4.37502 17.9113C4.37502 15.0682 6.6703 12.7729 9.50993 12.7729ZM9.50993 14.7406C7.76478 14.7406 6.33823 16.165 6.33823 17.9123C6.33823 19.6586 7.76379 21.084 9.50993 21.084C11.2551 21.084 12.6784 19.6584 12.6784 17.9123C12.6784 16.1662 11.2551 14.7406 9.50993 14.7406ZM9.50993 15.6C10.7905 15.6 11.82 16.6295 11.82 17.9125C11.82 19.1954 10.7917 20.2249 9.50993 20.2249C8.22933 20.2249 7.19753 19.1954 7.19753 17.9125C7.19753 16.6295 8.2293 15.6 9.50993 15.6ZM2.69026 26.0423H5.43408L5.03347 26.8926H3.08974L2.69026 26.0423ZM13.4556 26.0423H16.196L15.7954 26.8926H13.854L13.4556 26.0423Z" fill="#10B2BE"/>
<path d="M22.9037 0.25C21.8479 0.25 20.9839 1.11286 20.9839 2.16862V24.1216C20.9839 25.1157 21.7497 25.9387 22.7199 26.0322L23.4127 27.5035L23.4138 27.5023C23.4846 27.653 23.6353 27.75 23.8019 27.75H26.2912C26.4567 27.75 26.6085 27.653 26.6781 27.5023L27.3675 26.0402H33.4897L34.1757 27.5023H34.1768C34.2476 27.6541 34.3994 27.75 34.566 27.75H37.053C37.2208 27.75 37.3726 27.6541 37.4434 27.5023L38.1293 26.0391C39.1623 26.0129 40 25.1603 40 24.1205L40.0012 2.16868C40.0012 1.11292 39.1372 0.250057 38.0814 0.250057L22.9037 0.25ZM22.9037 1.10944H38.0814C38.6749 1.10944 39.1405 1.57396 39.1405 2.16862V24.1216C39.1405 24.7163 38.6749 25.1819 38.0814 25.1819L22.9037 25.1808C22.3102 25.1808 21.8445 24.7163 21.8445 24.1205V2.16865C21.8445 1.57399 22.3102 1.10944 22.9037 1.10944ZM30.4938 2.38207C28.0753 2.38207 26.1043 4.35434 26.1043 6.77512C26.1043 9.19478 28.0765 11.1647 30.4938 11.1647C32.9123 11.1647 34.8801 9.19467 34.8801 6.77512C34.8801 4.35556 32.9113 2.38207 30.4938 2.38207ZM30.4938 3.24151C32.4467 3.24151 34.0205 4.81886 34.0205 6.77523C34.0205 8.73152 32.4466 10.3055 30.4938 10.3055C28.541 10.3055 26.9636 8.73038 26.9636 6.77523C26.9636 4.81895 28.5398 3.24151 30.4938 3.24151ZM30.4938 4.54493C29.268 4.54493 28.2636 5.54819 28.2636 6.77514C28.2636 8.0021 29.268 9.00536 30.4938 9.00536C31.7196 9.00536 32.7206 8.0021 32.7206 6.77514C32.7206 5.54819 31.7196 4.54493 30.4938 4.54493ZM30.4938 5.40437C31.2551 5.40437 31.8612 6.01271 31.8612 6.77514C31.8612 7.53758 31.2551 8.14592 30.4938 8.14592C29.7325 8.14592 29.1242 7.53758 29.1242 6.77514C29.1242 6.01271 29.7325 5.40437 30.4938 5.40437ZM30.4938 11.9134C27.1895 11.9134 24.4993 14.6048 24.4993 17.9112C24.4993 21.2188 27.1895 23.9089 30.4938 23.9089C33.7982 23.9089 36.486 21.2176 36.486 17.9112C36.486 14.6036 33.7981 11.9134 30.4938 11.9134ZM30.4938 12.7729C33.3335 12.7729 35.6264 15.0682 35.6264 17.9113C35.6264 20.7544 33.3334 23.0497 30.4938 23.0497C27.6542 23.0497 25.3589 20.7544 25.3589 17.9113C25.3589 15.0682 27.6542 12.7729 30.4938 12.7729ZM30.4938 14.7406C28.7487 14.7406 27.3221 16.165 27.3221 17.9123C27.3221 19.6586 28.7477 21.084 30.4938 21.084C32.239 21.084 33.6623 19.6584 33.6623 17.9123C33.6623 16.1662 32.239 14.7406 30.4938 14.7406ZM30.4938 15.6C31.7744 15.6 32.8039 16.6295 32.8039 17.9125C32.8039 19.1954 31.7756 20.2249 30.4938 20.2249C29.2132 20.2249 28.1814 19.1954 28.1814 17.9125C28.1814 16.6295 29.2132 15.6 30.4938 15.6ZM23.6742 26.0423H26.418L26.0174 26.8926H24.0736L23.6742 26.0423ZM34.4395 26.0423H37.1799L36.7793 26.8926H34.8379L34.4395 26.0423Z" fill="#10B2BE"/>
</svg>
