<svg width="94" height="40" viewBox="0 0 94 40" fill="none" xmlns="http://www.w3.org/2000/svg">
<path d="M1.79852 12.384V0H5.77652V12.384H1.79852Z" fill="white"/>
<path d="M17.8306 12.384L12.6286 6.372V12.384H8.97462V0H12.4486L17.6506 6.102V0H21.3046V12.384H17.8306Z" fill="white"/>
<path d="M24.3288 0H34.3368V2.97H28.3068V5.094H33.4908V7.938H28.3068V12.384H24.3288V0Z" fill="white"/>
<path d="M36.8746 12.384V0H40.8526V12.384H36.8746Z" fill="white"/>
<path d="M52.9067 12.384L47.7047 6.372V12.384H44.0507V0H47.5247L52.7267 6.102V0H56.3807V12.384H52.9067Z" fill="white"/>
<path d="M59.5849 12.384V0H63.5629V12.384H59.5849Z" fill="white"/>
<path d="M73.889 3.168V12.384H69.9109V3.168H65.8429V0H77.939V3.168H73.889Z" fill="white"/>
<path d="M87.7972 12.384H83.8192V7.578L78.9052 0H83.4772L85.8532 4.122H85.9252L88.3012 0H92.6392L87.7972 7.578V12.384Z" fill="white"/>
<path d="M6.426 16.784C8.262 16.784 9.714 17.246 10.782 18.17C11.85 19.082 12.384 20.39 12.384 22.094H8.586C8.586 21.374 8.394 20.804 8.01 20.384C7.638 19.964 7.104 19.754 6.408 19.754C5.604 19.754 5.01 20.006 4.626 20.51C4.254 21.014 4.068 21.716 4.068 22.616V23.768C4.068 24.656 4.254 25.358 4.626 25.874C5.01 26.378 5.592 26.63 6.372 26.63C7.14 26.63 7.722 26.432 8.118 26.036C8.514 25.64 8.712 25.082 8.712 24.362H12.384C12.384 26.054 11.862 27.35 10.818 28.25C9.786 29.15 8.322 29.6 6.426 29.6C4.314 29.6 2.712 29.06 1.62 27.98C0.54 26.9 0 25.304 0 23.192C0 21.08 0.54 19.484 1.62 18.404C2.712 17.324 4.314 16.784 6.426 16.784Z" fill="white"/>
<path d="M22.5238 29.384V24.686H18.1498V29.384H14.1718V17H18.1498V21.518H22.5238V17H26.5018V29.384H22.5238Z" fill="white"/>
<path d="M37.1039 29.384L36.5819 27.638H32.2439L31.7219 29.384H27.6539L32.1719 17H36.7979L41.3159 29.384H37.1039ZM33.0719 24.866H35.7539L34.4579 20.456H34.3859L33.0719 24.866Z" fill="white"/>
<path d="M54.2097 20.798C54.2097 21.554 54.0057 22.238 53.5977 22.85C53.1897 23.462 52.5957 23.912 51.8157 24.2L54.5697 29.384H50.1057L47.9097 24.866H46.4337V29.384H42.4557V17H50.0337C50.9217 17 51.6777 17.174 52.3017 17.522C52.9377 17.858 53.4117 18.32 53.7237 18.908C54.0477 19.484 54.2097 20.114 54.2097 20.798ZM50.1597 20.96C50.1597 20.636 50.0517 20.366 49.8357 20.15C49.6197 19.934 49.3557 19.826 49.0437 19.826H46.4337V22.112H49.0437C49.3557 22.112 49.6197 22.004 49.8357 21.788C50.0517 21.56 50.1597 21.284 50.1597 20.96Z" fill="white"/>
<path d="M63.0752 20.168V29.384H59.0972V20.168H55.0292V17H67.1252V20.168H63.0752Z" fill="white"/>
<path d="M68.5775 17H79.2875V19.97H72.5555V21.68H78.3155V24.524H72.5555V26.414H79.4135V29.384H68.5775V17Z" fill="white"/>
<path d="M92.9617 20.798C92.9617 21.554 92.7577 22.238 92.3497 22.85C91.9417 23.462 91.3477 23.912 90.5677 24.2L93.3217 29.384H88.8577L86.6617 24.866H85.1857V29.384H81.2077V17H88.7857C89.6737 17 90.4297 17.174 91.0537 17.522C91.6897 17.858 92.1637 18.32 92.4757 18.908C92.7997 19.484 92.9617 20.114 92.9617 20.798ZM88.9117 20.96C88.9117 20.636 88.8037 20.366 88.5877 20.15C88.3717 19.934 88.1077 19.826 87.7957 19.826H85.1857V22.112H87.7957C88.1077 22.112 88.3717 22.004 88.5877 21.788C88.8037 21.56 88.9117 21.284 88.9117 20.96Z" fill="white"/>
<path d="M22.7917 33.536H24.6702V37.888H27.6707V39.384H22.7917V33.536Z" fill="white"/>
<path d="M32.1246 39.384L31.8781 38.5595H29.8296L29.5831 39.384H27.6621L29.7956 33.536H31.9801L34.1136 39.384H32.1246ZM30.2206 37.2505H31.4871L30.8751 35.168H30.8411L30.2206 37.2505Z" fill="white"/>
<path d="M42.1659 39.384V37.276C42.1659 37.0153 42.1744 36.749 42.1914 36.477C42.214 36.1993 42.2367 35.967 42.2594 35.78C42.282 35.593 42.2962 35.474 42.3019 35.423H42.2679L41.1884 39.384H39.7179L38.6299 35.4315H38.5959C38.6015 35.4825 38.6157 35.6015 38.6384 35.7885C38.6667 35.9698 38.6922 36.1993 38.7149 36.477C38.7375 36.749 38.7489 37.0153 38.7489 37.276V39.384H37.0234V33.536H39.6754L40.5594 36.9105H40.5934L41.4689 33.536H44.0274V39.384H42.1659Z" fill="white"/>
<path d="M48.8327 39.384L48.5862 38.5595H46.5377L46.2912 39.384H44.3702L46.5037 33.536H48.6882L50.8217 39.384H48.8327ZM46.9287 37.2505H48.1952L47.5832 35.168H47.5492L46.9287 37.2505Z" fill="white"/>
<path d="M55.457 39.384L53.0005 36.545V39.384H51.275V33.536H52.9155L55.372 36.4175V33.536H57.0975V39.384H55.457Z" fill="white"/>
<path d="M61.0415 33.434C61.6025 33.434 62.1069 33.519 62.5545 33.689C63.0022 33.859 63.3564 34.1112 63.617 34.4455C63.8834 34.7742 64.0165 35.1765 64.0165 35.6525H62.223C62.223 35.4088 62.1154 35.2133 61.9 35.066C61.6847 34.913 61.424 34.8365 61.118 34.8365C60.676 34.8365 60.3417 34.9555 60.115 35.1935C59.8884 35.4258 59.775 35.7573 59.775 36.188V36.732C59.775 37.1627 59.8884 37.497 60.115 37.735C60.3417 37.9673 60.676 38.0835 61.118 38.0835C61.424 38.0835 61.6847 38.0127 61.9 37.871C62.1154 37.7237 62.223 37.5367 62.223 37.31H60.897V36.12H64.0165V39.384H63.0475L62.8605 38.806C62.3279 39.2593 61.6309 39.486 60.7695 39.486C59.8005 39.486 59.0724 39.2338 58.585 38.7295C58.0977 38.2195 57.854 37.463 57.854 36.46C57.854 35.4683 58.1289 34.7175 58.6785 34.2075C59.2339 33.6918 60.0215 33.434 61.0415 33.434Z" fill="white"/>
<path d="M68.8446 39.384L68.5981 38.5595H66.5496L66.3031 39.384H64.3821L66.5156 33.536H68.7001L70.8336 39.384H68.8446ZM66.9406 37.2505H68.2071L67.5951 35.168H67.5611L66.9406 37.2505Z" fill="white"/>
</svg>
