<svg width="42" height="32" viewBox="0 0 42 32" fill="none" xmlns="http://www.w3.org/2000/svg">
<path fill-rule="evenodd" clip-rule="evenodd" d="M20.9413 31.2458C19.5967 31.2458 18.2957 30.8128 17.0821 29.9344C15.6188 28.8832 13.9702 28.4711 12.0406 28.6772C10.773 28.8062 9.6989 29.3828 8.72262 29.9781C8.08359 30.3799 7.31343 30.8128 6.48912 31.0189C4.53661 31.506 2.72776 31.1812 1.1124 30.0427C0.885508 29.8803 0.818899 29.5556 0.993746 29.3266C1.16652 29.0997 1.48083 29.0331 1.70983 29.2079C3.06493 30.1613 4.59279 30.4444 6.24135 30.0322C6.92408 29.8595 7.60685 29.4681 8.19387 29.1226C9.26793 28.4607 10.4711 27.832 11.9448 27.6697C14.1013 27.4428 16.033 27.9299 17.6898 29.1226C19.1531 30.1634 20.7247 30.4777 22.3733 30.0551C22.9915 29.8928 23.6639 29.5681 24.434 29.0581C26.2013 27.9091 28.0663 27.4532 30.1374 27.6697C31.4384 27.8112 32.6852 28.2983 33.9425 29.1767C35.156 30.0218 36.5007 30.3486 38.0181 30.1634C38.7883 30.0655 39.5147 29.772 40.3058 29.2538C40.5451 29.1018 40.8595 29.1663 41.0218 29.4057C41.1738 29.6451 41.1093 29.9594 40.8699 30.1218C39.9603 30.7171 39.0693 31.0752 38.1493 31.1834C36.3612 31.3999 34.7876 31.021 33.3575 30.0239C32.2418 29.2434 31.1573 28.8104 30.0291 28.6897C28.1974 28.494 26.5488 28.8958 24.998 29.9157C24.1425 30.4798 23.3723 30.8483 22.6355 31.0439C22.0505 31.1855 21.4969 31.25 20.9453 31.25L20.9413 31.2458Z" fill="#10B2BE"/>
<path fill-rule="evenodd" clip-rule="evenodd" d="M4.99232 25.9133C3.65805 25.9133 2.40079 25.4907 1.23096 24.6665C1.00407 24.5041 0.949954 24.1794 1.11231 23.9504C1.27467 23.7235 1.59939 23.6694 1.82839 23.8317C3.23758 24.8288 4.78836 25.1223 6.44736 24.7101C7.14053 24.5249 7.82325 24.1356 8.39988 23.788C9.44064 23.1593 10.6979 22.487 12.2049 22.3246C14.3302 22.1082 16.2265 22.5952 17.8646 23.7568C19.1552 24.6664 20.5207 25.0244 22.0485 24.8413C22.8291 24.7538 23.5764 24.4499 24.4236 23.8983C25.431 23.2468 26.5385 22.6078 27.8498 22.4121C29.9959 22.077 31.8402 22.4121 33.4866 23.4321C33.6156 23.5195 33.7468 23.5944 33.8779 23.6819C34.6377 24.1689 35.3516 24.6352 36.2093 24.7871C37.7808 25.0577 39.0922 24.8413 40.1996 24.1481C40.439 23.9962 40.7637 24.0732 40.9052 24.3105C41.0572 24.5499 40.9802 24.8746 40.7429 25.0161C39.4086 25.8612 37.8599 26.111 36.0261 25.8071C34.9645 25.6219 34.1298 25.0807 33.3159 24.5499C33.1972 24.4749 33.0661 24.3875 32.9475 24.3105C31.5154 23.4321 29.9 23.151 28.0142 23.4425C26.9526 23.6048 26.0409 24.094 25.0001 24.7767C24.0239 25.4158 23.1247 25.7738 22.1817 25.8716C20.4249 26.0881 18.7784 25.6656 17.2817 24.6144C15.8392 23.584 14.2239 23.1823 12.3276 23.3676C11.0267 23.5091 9.94217 24.0836 8.95555 24.6789C8.31652 25.0702 7.54636 25.5032 6.72205 25.7197C6.12672 25.8383 5.56262 25.9153 4.99852 25.9153L4.99232 25.9133Z" fill="#10B2BE"/>
<path fill-rule="evenodd" clip-rule="evenodd" d="M37.3539 20.5882C36.1945 20.5882 35.033 20.2531 33.884 19.5683C33.7112 19.4704 33.5488 19.3622 33.3969 19.2644C33.2012 19.1457 33.0181 19.025 32.8224 18.9167C30.4702 17.6158 28.1722 17.6054 25.8076 18.873C25.5682 19.0021 25.3309 19.154 25.0915 19.3185C24.9063 19.4371 24.7002 19.5683 24.5066 19.6869C22.8039 20.7069 20.8639 20.8693 18.9237 20.1636C18.3825 19.9575 17.9037 19.6536 17.4374 19.3726C17.198 19.2206 16.9711 19.0791 16.7442 18.95C14.3588 17.6158 12.0274 17.5949 9.6442 18.8959C9.3736 19.0479 9.1134 19.2102 8.83033 19.3955C8.67838 19.4933 8.53684 19.5912 8.38488 19.6765C6.96524 20.5549 5.34999 20.8047 3.69098 20.4134C2.91043 20.2281 2.08612 19.8597 1.17645 19.2852C0.937069 19.1332 0.862136 18.8189 1.01409 18.5795C1.16603 18.3402 1.48035 18.2652 1.71972 18.4172C2.54403 18.9271 3.26005 19.2519 3.93238 19.4142C5.33118 19.7494 6.65298 19.5433 7.84572 18.8064C7.98727 18.719 8.12673 18.6212 8.26828 18.5358C8.54928 18.3506 8.84277 18.1674 9.14667 18.005C11.836 16.5417 14.5564 16.5625 17.2459 18.0592C17.5061 18.2007 17.7454 18.3526 17.9827 18.5046C18.4157 18.7752 18.8383 19.0354 19.2733 19.2102C20.9323 19.818 22.5247 19.6869 23.9776 18.8189C24.1628 18.7107 24.346 18.592 24.5313 18.4713C24.7811 18.3089 25.0413 18.1466 25.3119 17.9946C27.9783 16.5625 30.6678 16.575 33.3237 18.0383C33.5401 18.157 33.7462 18.2881 33.9523 18.4172C34.1042 18.515 34.2562 18.6128 34.4081 18.6982C36.3814 19.8701 38.311 19.8701 40.2842 18.7086C40.534 18.567 40.8483 18.6441 40.9898 18.8938C41.1313 19.1436 41.0543 19.4579 40.8045 19.5995C39.666 20.251 38.5065 20.5862 37.3575 20.5862L37.3539 20.5882Z" fill="#10B2BE"/>
<path fill-rule="evenodd" clip-rule="evenodd" d="M14.0448 17.9867C13.7638 17.9867 13.5244 17.7599 13.5244 17.4664V2.78721C13.5244 0.955448 14.9336 0 16.3324 0C17.7312 0 19.1404 0.95337 19.1404 2.78721C19.1404 3.06822 18.9135 3.3076 18.62 3.3076C18.3265 3.3076 18.0997 3.08071 18.0997 2.78721C18.0997 1.57369 17.2108 1.03037 16.322 1.03037C15.4332 1.03037 14.5444 1.57156 14.5444 2.78721V17.4765C14.5548 17.7575 14.3279 17.9867 14.0448 17.9867Z" fill="#10B2BE"/>
<path fill-rule="evenodd" clip-rule="evenodd" d="M27.9561 18.0635C27.6751 18.0635 27.4357 17.8366 27.4357 17.5431V3.25348C27.4357 1.42172 28.8449 0.466267 30.2437 0.466267C31.6321 0.466267 33.0517 1.41964 33.0517 3.25348C33.0517 3.53449 32.8248 3.77386 32.5313 3.77386C32.2378 3.77386 32.0109 3.54698 32.0109 3.25348C32.0109 2.03996 31.1221 1.49664 30.2333 1.49664C29.3549 1.49664 28.4557 2.03783 28.4557 3.25348V17.5431C28.4661 17.8241 28.2392 18.0635 27.9561 18.0635Z" fill="#10B2BE"/>
<path fill-rule="evenodd" clip-rule="evenodd" d="M27.9561 7.92657H14.047C13.766 7.92657 13.5266 7.69968 13.5266 7.40619C13.5266 7.11269 13.7535 6.8858 14.047 6.8858H27.9561C28.2371 6.8858 28.4765 7.11269 28.4765 7.40619C28.4765 7.69968 28.2371 7.92657 27.9561 7.92657Z" fill="#10B2BE"/>
<path fill-rule="evenodd" clip-rule="evenodd" d="M27.9561 12.772H14.047C13.766 12.772 13.5266 12.5451 13.5266 12.2516C13.5266 11.9581 13.7535 11.7312 14.047 11.7312H27.9561C28.2371 11.7312 28.4765 11.9581 28.4765 12.2516C28.4765 12.5451 28.2371 12.772 27.9561 12.772Z" fill="#10B2BE"/>
</svg>
