<svg width="40" height="29" viewBox="0 0 40 29" fill="none" xmlns="http://www.w3.org/2000/svg">
<path d="M5.91565 0.278035C2.18445 4.01423 0.0878906 9.0815 0.0878906 14.3632C0.0878906 19.6449 2.18439 24.7123 5.91565 28.4483C6.09097 28.636 6.33297 28.7422 6.58978 28.7471C6.8466 28.7496 7.09354 28.6508 7.27378 28.4681C7.45405 28.2878 7.55529 28.0409 7.55282 27.7841C7.54788 27.5298 7.4417 27.2853 7.25402 27.11C3.88088 23.7269 1.9844 19.1435 1.9844 14.3631C1.9844 9.58485 3.88088 5.00144 7.25402 1.61875C7.61455 1.24588 7.60961 0.65572 7.24415 0.287739C6.87868 -0.077725 6.28609 -0.0824949 5.91565 0.278035Z" fill="#10B2BE"/>
<path d="M32.7477 0.278036C32.3773 0.645972 32.3773 1.24853 32.7477 1.61645C36.1208 4.99951 38.0173 9.58482 38.0173 14.3633C38.0173 19.1418 36.1208 23.7269 32.7477 27.1102C32.5575 27.2855 32.4489 27.53 32.4439 27.7868C32.4415 28.0436 32.5402 28.2905 32.723 28.4733C32.9033 28.656 33.1527 28.7548 33.4095 28.7498C33.6663 28.7474 33.9107 28.6362 34.0861 28.4486C37.8172 24.7099 39.9138 19.6451 39.9138 14.3634C39.9138 9.08171 37.8173 4.01432 34.0861 0.275722C33.7156 -0.0922144 33.1156 -0.0923698 32.7477 0.278036Z" fill="#10B2BE"/>
<path d="M11.7284 4.74741C11.358 4.37947 10.7554 4.37947 10.385 4.74741C7.83912 7.30076 6.4093 10.7579 6.4093 14.3632C6.4093 17.9685 7.83906 21.4257 10.385 23.979C10.5628 24.1592 10.8048 24.2605 11.0592 24.263C11.311 24.263 11.5555 24.1642 11.7333 23.9839C11.9136 23.8061 12.0123 23.5617 12.0123 23.3098C12.0099 23.0554 11.9086 22.8134 11.7284 22.6356C9.53552 20.4403 8.30577 17.4648 8.30577 14.3632C8.30577 11.2616 9.53552 8.28605 11.7284 6.09075C12.0963 5.72034 12.0963 5.11779 11.7284 4.74741Z" fill="#10B2BE"/>
<path d="M28.2732 23.979C28.6437 24.3469 29.2462 24.3469 29.6166 23.979C32.1625 21.4256 33.5923 17.9685 33.5923 14.3632C33.5923 10.7579 32.1625 7.3007 29.6166 4.74741C29.2437 4.38441 28.6486 4.38935 28.2806 4.75482C27.9152 5.12275 27.9102 5.71785 28.2732 6.09076C30.4661 8.28606 31.6958 11.2616 31.6958 14.3632C31.6958 17.4648 30.4661 20.4403 28.2732 22.6356C27.9053 23.0061 27.9053 23.6086 28.2732 23.979Z" fill="#10B2BE"/>
<path d="M25.1447 19.5071C27.6017 17.0525 27.9845 13.2027 26.0559 10.3136C24.1273 7.42441 20.4282 6.30081 17.2183 7.6269C14.0081 8.95544 12.1857 12.3656 12.8623 15.7735C13.5389 19.1788 16.5269 21.6333 20.0013 21.6333C21.9299 21.6333 23.7792 20.8677 25.1447 19.5071ZM16.2009 10.5633C17.7368 9.02485 20.0506 8.56553 22.0582 9.3977C24.0683 10.2299 25.3771 12.1881 25.3771 14.3636C25.3771 16.5392 24.0683 18.4974 22.0582 19.3296C20.0506 20.1617 17.7368 19.7024 16.2009 18.164C15.186 17.159 14.618 15.7909 14.618 14.3636C14.618 12.9363 15.186 11.5683 16.2009 10.5633Z" fill="#10B2BE"/>
</svg>
