<svg width="80" height="36" viewBox="0 0 80 36" fill="none" xmlns="http://www.w3.org/2000/svg">
<path d="M78.7271 13.6251L61.5428 14.8097L56.4237 7.0136L57.4622 6.94437C58.3621 6.88283 58.8583 5.89823 58.4198 5.14442L56.7891 2.34835C55.8968 0.821428 54.2469 -0.0554575 52.4853 0.0599377L27.6931 1.69841C25.9892 1.8138 24.6509 3.24069 24.6509 4.94454V7.82913C24.6509 8.15605 24.7893 8.47143 25.0355 8.70604C25.2547 8.90988 25.5508 9.02911 25.8508 9.02911C25.8778 9.02911 25.9047 9.02911 25.9316 9.02141L26.8008 8.96757H26.8047L26.2739 17.2483L17.7856 17.829V15.3021L20.424 15.0906C21.0855 15.0368 21.5779 14.4599 21.524 13.7983C21.4701 13.1368 20.8855 12.6521 20.2317 12.6983L1.10484 14.2329C0.443305 14.2868 -0.0490154 14.8637 0.00484226 15.5252C0.0548413 16.1521 0.577909 16.629 1.1971 16.629C1.27786 16.629 0.60864 16.679 7.597 16.1214V18.5405L1.11636 18.9867C0.400986 19.029 -0.129753 19.7174 0.0278813 20.4329C3.50087 36.6906 2.30477 31.0823 2.56244 32.2983C3.01628 34.4136 4.92007 35.9482 7.0855 35.9482C53.7615 35.9405 51.6584 35.9674 51.8731 35.929C64.7733 33.4598 75.6226 27.6829 79.9303 15.2218C80.2226 14.4026 79.5533 13.5603 78.7187 13.6334L78.7271 13.6251ZM43.5502 16.0519L42.5849 7.92898L53.6734 7.19438L58.8003 15.002L43.5502 16.0519ZM27.0542 4.94859C27.0542 4.50245 27.4119 4.12553 27.8542 4.09092L52.6543 2.46022C53.3159 2.36407 54.2505 2.74868 54.7236 3.55638L55.3736 4.67941C55.3043 4.68326 26.9698 6.55626 27.0545 6.54858V4.94476L27.0542 4.94859ZM29.2234 8.80626L40.185 8.08704L41.1503 16.2254L28.6971 17.083H28.6932L29.2234 8.80626ZM10.004 15.9293L15.3962 15.4985V17.9985L10.004 18.3754V15.9293ZM77.015 16.1485C76.6342 17.0523 76.0073 18.2754 75.8034 18.6292L3.17724 23.6446L2.66956 21.2831C2.66956 21.2831 6.27723 21.0254 77.0148 16.1524L77.015 16.1485ZM51.5384 33.5484L7.09251 33.5445C6.05021 33.5445 5.13482 32.8061 4.91949 31.783L3.68106 26.01L74.2031 21.1408C69.6685 27.4215 62.2225 31.4831 51.5347 33.5488L51.5384 33.5484Z" fill="#FEFEFE"/>
</svg>
