<svg width="42" height="36" viewBox="0 0 42 36" fill="none" xmlns="http://www.w3.org/2000/svg">
<path d="M34.5569 6.12621C32.0714 6.12621 29.9475 8.79245 28.7725 12.9048H27.1457H23.7564H20.3671L30.8513 2.42059C31.3032 1.96869 31.3032 1.24564 30.8513 0.838928C30.3994 0.387024 29.6763 0.387024 29.2696 0.838928L17.7461 12.2721C16.8422 8.65688 15.2606 6.12621 13.0914 6.12621C9.56658 6.12621 7.66858 12.7692 7.44263 19.6833H4.05335C3.73701 19.6833 3.37549 19.8189 3.19473 20.0901C3.01397 20.3612 2.87839 20.6775 2.96878 21.0391L3.82739 25.3322H1.79382C1.16116 25.3322 0.664062 25.8292 0.664062 26.4619C0.664062 27.0946 1.16116 27.5917 1.79382 27.5917H5.18311C5.49944 27.5917 5.86096 27.4561 6.04173 27.185C6.22249 26.9138 6.35806 26.5975 6.26768 26.236L5.40906 21.9429H7.44263C7.62339 28.857 9.56658 35.5 13.0914 35.5C15.3961 35.5 17.023 32.653 17.9268 28.7214H28.7725C29.9475 32.8338 32.0262 35.5 34.5569 35.5C38.4433 35.5 41.3355 29.1733 41.3355 20.8131C41.3355 12.4529 38.4433 6.12621 34.5569 6.12621ZM19.87 20.8131C19.87 23.9312 19.3277 25.9196 18.9662 26.4619H18.3335C18.6047 24.6543 18.7402 22.7563 18.7402 20.8131C18.7402 18.8699 18.6047 16.9719 18.3335 15.1643H19.4181C19.5989 16.2941 19.87 18.418 19.87 20.8131ZM21.7228 15.1643H22.8074C22.9881 16.2941 23.2593 18.418 23.2593 20.8131C23.2593 23.9312 22.717 25.9196 22.3555 26.4619H21.4065C22.0391 24.5639 22.1295 21.9429 22.1295 20.8131C22.1295 18.4632 21.9036 16.4296 21.7228 15.1643ZM25.1121 15.1643H26.1967C26.3774 16.2941 26.6486 18.418 26.6486 20.8131C26.6486 23.9312 26.1063 25.9196 25.7448 26.4619H24.7958C25.4284 24.5639 25.5188 21.9429 25.5188 20.8131C25.5188 18.4632 25.2929 16.4296 25.1121 15.1643ZM28.9081 20.8131C28.9081 18.4632 28.6821 16.4296 28.5014 15.1643H29.586C29.7667 16.2941 30.0379 18.418 30.0379 20.8131C30.0379 23.9312 29.4956 25.9196 29.134 26.4619H28.185C28.8177 24.5639 28.9081 21.9429 28.9081 20.8131ZM31.8907 15.1643H32.5233C32.8849 15.7066 33.4271 17.695 33.4271 20.8131C33.4271 23.9312 32.8849 25.9196 32.5233 26.4619H31.5743C32.207 24.5639 32.2974 21.9429 32.2974 20.8131C32.2974 18.4632 32.0714 16.4296 31.8907 15.1643ZM13.0914 33.2405C12.0069 33.2405 9.9281 29.2637 9.70215 21.9429H10.4704C10.6512 24.2024 11.3742 26.4619 13.0462 26.4619C14.9894 26.4619 15.6673 23.4342 15.6673 20.8131C15.6673 18.1921 14.9894 15.1643 13.0462 15.1643C11.3742 15.1643 10.6512 17.4238 10.4704 19.6833H9.70215C9.88291 12.3625 11.9617 8.38573 13.0914 8.38573C14.2212 8.38573 16.4807 12.7692 16.4807 20.8131C16.4807 28.857 14.2212 33.2405 13.0914 33.2405ZM13.0914 21.9429C13.227 21.9429 13.3174 21.9429 13.4078 21.8977C13.3626 22.6659 13.227 23.2534 13.0914 23.6601C12.9559 23.2534 12.8203 22.7111 12.7751 21.9881H13.0914V21.9429ZM12.7751 19.6833C12.8655 18.9603 12.9559 18.3728 13.0914 18.0113C13.227 18.418 13.3626 19.0055 13.4078 19.7737C13.3174 19.7285 13.1818 19.7285 13.0914 19.7285H12.7751V19.6833ZM34.5569 33.2405C33.3368 33.2405 32.0262 31.5232 31.1676 28.7214H32.7945C35.5059 28.7214 35.6867 22.6659 35.6867 20.8131C35.6867 18.9603 35.4607 12.9048 32.7945 12.9048H31.1676C32.0714 10.103 33.3368 8.38573 34.5569 8.38573C36.6809 8.38573 39.0759 13.7182 39.0759 20.8131C39.0759 27.908 36.6809 33.2405 34.5569 33.2405Z" fill="#10B2BE"/>
</svg>
