<svg width="40" height="27" viewBox="0 0 40 27" fill="none" xmlns="http://www.w3.org/2000/svg">
<path d="M36.6261 1.21079C35.5424 1.21079 34.5829 1.74682 33.9867 2.56256H31.5299C31.0482 1.35453 29.8693 0.5 28.4923 0.5H10.7156C9.49203 0.5 8.47238 1.39535 8.27425 2.56256H6.00774C5.41538 1.74687 4.45594 1.21079 3.36832 1.21079C1.57375 1.21079 0.107422 2.67324 0.107422 4.47169C0.107422 6.27209 1.56987 7.7326 3.36832 7.7326C4.45206 7.7326 5.41732 7.19657 6.00774 6.38082H8.2296V18.6357C8.2296 19.2727 8.74623 19.7893 9.38324 19.7893H12.0537C12.0693 19.7893 12.0829 19.7835 12.0984 19.7835V25.4371C12.0984 26.1576 12.6849 26.75 13.4113 26.75H30.4556C31.1762 26.75 31.7685 26.1635 31.7685 25.4371V6.37266H33.9904C34.5827 7.19224 35.5422 7.72443 36.6298 7.72443C38.4244 7.72443 39.8907 6.26198 39.8907 4.46353C39.8926 2.66314 38.4246 1.21079 36.6261 1.21079ZM3.3722 6.62574C2.18361 6.62574 1.22029 5.66049 1.22029 4.47383C1.22029 3.28524 2.18555 2.32192 3.3722 2.32192C4.5608 2.32192 5.52411 3.28718 5.52411 4.47383C5.52606 5.66049 4.5608 6.62574 3.3722 6.62574ZM10.7158 1.60308C11.0828 1.60308 11.4324 1.7468 11.6907 2.0051C11.85 2.16436 11.9549 2.35275 12.0248 2.56251L9.40869 2.56445C9.59319 2.00705 10.1059 1.60308 10.7158 1.60308ZM12.0986 16.9072V18.628C12.0986 18.6571 12.0792 18.6727 12.0539 18.6727H9.38342C9.35429 18.6727 9.33875 18.6532 9.33875 18.628V16.3013H12.1025L12.1044 16.9072H12.0986ZM12.0986 15.1981H9.33486V13.5978H12.0986V15.1981ZM12.0986 12.4869H9.33486V6.37088H12.0986V12.4869ZM12.0986 5.2676H6.52452C6.58861 5.00929 6.6294 4.74515 6.6294 4.46742C6.6294 4.18969 6.59055 3.91971 6.52452 3.66723H12.0986V5.2676ZM30.6599 25.4294C30.6599 25.5439 30.5647 25.6333 30.4559 25.6333H13.4116C13.297 25.6333 13.2077 25.5381 13.2077 25.4294V24.0329H30.6637V25.4294H30.6599ZM30.6599 22.9279H13.2018V21.3275H30.6579L30.6599 22.9279ZM30.6599 20.2244H13.2018V10.4982H30.6579L30.6599 20.2244ZM30.6599 9.39497H13.2018V7.7946H30.6579L30.6599 9.39497ZM30.6599 6.68953H13.2018V2.9897C13.2018 2.49251 13.0581 2.01475 12.7843 1.6069H28.4966C29.6891 1.6069 30.6641 2.57604 30.6641 3.77438V6.68958L30.6599 6.68953ZM33.4741 5.26785H31.7689V3.77045C31.7689 3.73549 31.763 3.70053 31.763 3.66557H33.4741C33.41 3.92388 33.3692 4.1919 33.3692 4.46576C33.3692 4.74543 33.408 5.01538 33.4741 5.26785ZM36.6262 6.62544C35.4376 6.62544 34.4743 5.66019 34.4743 4.47353C34.4743 3.28494 35.4395 2.32162 36.6262 2.32162C37.8148 2.32162 38.7781 3.28688 38.7781 4.47353C38.7781 5.66019 37.8129 6.62544 36.6262 6.62544Z" fill="#10B2BE"/>
</svg>
