<svg width="34" height="34" viewBox="0 0 34 34" fill="none" xmlns="http://www.w3.org/2000/svg">
<path fill-rule="evenodd" clip-rule="evenodd" d="M3.45833 7.25492V2.37989C3.45833 2.08104 3.70115 1.83822 4 1.83822H9.41667C9.71551 1.83822 9.95833 2.08104 9.95833 2.37989V7.25492H3.45833ZM10.5 8.33825C10.7992 8.33825 11.0417 8.09574 11.0417 7.79658V2.37989C11.0417 1.48273 10.3138 0.754883 9.41667 0.754883H4C3.10285 0.754883 2.375 1.48273 2.375 2.37989V7.79658C2.375 8.09574 2.61751 8.33825 2.91667 8.33825H10.5Z" fill="#10B2BE"/>
<path fill-rule="evenodd" clip-rule="evenodd" d="M1.83333 21.3383V8.33825H11.5833V21.3383H1.83333ZM11.5833 22.4217C12.1816 22.4217 12.6667 21.9369 12.6667 21.3383V8.33825C12.6667 7.73966 12.1816 7.25492 11.5833 7.25492H1.83333C1.23508 7.25492 0.75 7.73966 0.75 8.33825V21.3383C0.75 21.9369 1.23508 22.4217 1.83333 22.4217H11.5833Z" fill="#10B2BE"/>
<path fill-rule="evenodd" clip-rule="evenodd" d="M5.08333 22.4217H8.33333V24.0467H5.08333V22.4217ZM8.33333 25.13C8.93159 25.13 9.41667 24.6453 9.41667 24.0467V21.88C9.41667 21.5808 9.17415 21.3383 8.875 21.3383H4.54167C4.24251 21.3383 4 21.5808 4 21.88V24.0467C4 24.6453 4.48508 25.13 5.08333 25.13H8.33333Z" fill="#10B2BE"/>
<path fill-rule="evenodd" clip-rule="evenodd" d="M20.7917 10.505H31.625C31.9242 10.505 32.1667 10.2625 32.1667 9.96337V1.29666C32.1667 0.997505 31.9242 0.754991 31.625 0.754991H20.7917C20.4925 0.754991 20.25 0.997505 20.25 1.29666V9.96337C20.25 10.2625 20.4925 10.505 20.7917 10.505ZM21.3333 1.83833H31.0833V9.4217H21.3333V1.83833Z" fill="#10B2BE"/>
<path fill-rule="evenodd" clip-rule="evenodd" d="M20.25 21.3383V10.5049H32.1667V21.3383H20.25ZM32.1667 22.4217C32.7649 22.4217 33.25 21.9369 33.25 21.3383V10.5049C33.25 9.90634 32.7649 9.42159 32.1667 9.42159H20.25C19.6517 9.42159 19.1667 9.90634 19.1667 10.5049V21.3383C19.1667 21.9369 19.6517 22.4217 20.25 22.4217H32.1667Z" fill="#10B2BE"/>
<path fill-rule="evenodd" clip-rule="evenodd" d="M24.5833 22.4217H27.8333V24.0467H24.5833V22.4217ZM27.8333 25.13C28.4316 25.13 28.9167 24.6453 28.9167 24.0467V21.88C28.9167 21.5808 28.6742 21.3383 28.375 21.3383H24.0417C23.7425 21.3383 23.5 21.5808 23.5 21.88V24.0467C23.5 24.6453 23.9851 25.13 24.5833 25.13H27.8333Z" fill="#10B2BE"/>
<path fill-rule="evenodd" clip-rule="evenodd" d="M22.9583 7.25502H25.125C25.4242 7.25502 25.6667 7.01251 25.6667 6.71335V4.54668C25.6667 4.24752 25.4242 4.00501 25.125 4.00501H22.9583C22.6592 4.00501 22.4167 4.24752 22.4167 4.54668V6.71335C22.4167 7.01251 22.6592 7.25502 22.9583 7.25502ZM23.5 6.17168V5.08835H24.5833V6.17168H23.5Z" fill="#10B2BE"/>
<path fill-rule="evenodd" clip-rule="evenodd" d="M27.2917 7.25502H29.4583C29.7575 7.25502 30 7.01251 30 6.71335V4.54668C30 4.24752 29.7575 4.00501 29.4583 4.00501H27.2917C26.9925 4.00501 26.75 4.24752 26.75 4.54668V6.71335C26.75 7.01251 26.9925 7.25502 27.2917 7.25502ZM27.8333 6.17168V5.08835H28.9167V6.17168H27.8333Z" fill="#10B2BE"/>
<path fill-rule="evenodd" clip-rule="evenodd" d="M8.33333 26.7695V24.5882C8.33333 24.289 8.09082 24.0465 7.79167 24.0465H5.625C5.32585 24.0465 5.08333 24.289 5.08333 24.5882V26.7695C5.08333 30.3515 7.99659 33.2549 11.5833 33.2549H21.3333C24.9188 33.2549 27.8333 30.3451 27.8333 26.7619V24.5882C27.8333 24.289 27.5908 24.0465 27.2917 24.0465H25.125C24.8258 24.0465 24.5833 24.289 24.5833 24.5882V26.7619C24.5833 28.5519 23.1267 30.0049 21.3333 30.0049H11.5833C9.78841 30.0049 8.33333 28.5574 8.33333 26.7695ZM26.75 25.1298V26.7619C26.75 29.7464 24.3209 32.1715 21.3333 32.1715H11.5833C8.59408 32.1715 6.16667 29.7523 6.16667 26.7695V25.1298H7.25V26.7695C7.25 29.157 9.19137 31.0882 11.5833 31.0882H21.3333C23.7244 31.0882 25.6667 29.1509 25.6667 26.7619V25.1298H26.75Z" fill="#10B2BE"/>
</svg>
