<svg width="38" height="35" viewBox="0 0 38 35" fill="none" xmlns="http://www.w3.org/2000/svg">
<path d="M35.7689 10.4315C34.836 10.4315 34.0548 11.0837 33.8455 11.9539H27.8015C28.002 11.5127 28.3141 11.3156 28.9 11.3156C29.7981 11.3156 30.5253 10.5885 30.5253 9.69042C30.5253 8.79237 29.7981 8.0652 28.9 8.0652H27.355V3.4997C27.355 2.01747 26.1501 0.8125 24.6678 0.8125H9.84728C8.36504 0.8125 7.16007 2.01747 7.16007 3.4997L7.15833 8.06654H5.61333C4.71527 8.06654 3.98811 8.79371 3.98811 9.69176C3.98811 10.5898 4.71527 11.317 5.61333 11.317C6.62299 11.317 6.81481 11.8889 7.0415 13.2945C7.08161 13.5351 7.11823 13.7723 7.16706 14.0042C7.45304 15.3609 8.50631 16.2363 9.84555 16.2363H11.5597V25.6338L3.81528 25.632C3.74378 25.5431 3.65833 25.4629 3.57463 25.3914L4.27041 21.1679C4.33668 20.7668 4.23903 20.3954 3.98443 20.0972C3.5694 19.6107 2.8283 19.4363 2.27028 19.4363C1.71226 19.4363 0.971124 19.6107 0.556135 20.0972C0.30154 20.3971 0.203886 20.7668 0.270147 21.1679L0.965932 25.3914C0.533466 25.7663 0.252693 26.3156 0.252693 26.9312C0.252693 27.5467 0.529957 28.1013 0.967672 28.4675L0.271889 32.691C0.205623 33.092 0.303277 33.4635 0.557872 33.7616C0.9729 34.2481 1.714 34.4226 2.27202 34.4226C2.83004 34.4226 3.57118 34.2482 3.98617 33.7616C4.24076 33.4617 4.33842 33.092 4.27215 32.691L3.57637 28.4675C3.66182 28.3907 3.74552 28.3105 3.81701 28.2268H11.5632V30.4676C11.5632 32.7224 13.389 34.4278 15.8129 34.4278C17.9421 34.4278 19.6213 33.1374 19.9911 31.2174L22.8753 16.2397H24.6697C26.0089 16.2397 27.0622 15.3644 27.3482 14.0077C27.397 13.7757 27.4371 13.5351 27.4737 13.2979C27.4964 13.1462 27.5226 13.0085 27.5452 12.8742H33.8491C34.0549 13.7444 34.8396 14.3966 35.7725 14.3966C36.8624 14.3966 37.75 13.509 37.75 12.4191C37.7517 11.3205 36.864 10.4315 35.7689 10.4315ZM8.07371 3.50001C8.07371 2.52174 8.86887 1.72828 9.84545 1.72828H10.9528V3.69706C10.9528 3.95166 11.1586 4.15218 11.4079 4.15218C11.6625 4.15218 11.863 3.94641 11.863 3.69706L11.8648 1.72654H13.7568V3.69532C13.7568 3.94992 13.9626 4.15044 14.2119 4.15044C14.4613 4.15044 14.6671 3.94467 14.6671 3.69532V1.72654H16.5591V3.69532C16.5591 3.94992 16.7649 4.15044 17.0142 4.15044C17.2636 4.15044 17.4693 3.94467 17.4693 3.69532L17.4711 1.72654H24.6593C25.6376 1.72654 26.431 2.52169 26.431 3.49827V8.0669H8.07394L8.07371 3.50001ZM2.2703 28.0337C1.66344 28.0337 1.16819 27.5385 1.16819 26.9316C1.16819 26.3247 1.66344 25.8295 2.2703 25.8295C2.87716 25.8295 3.37241 26.3247 3.37241 26.9316C3.37241 27.5385 2.87716 28.0337 2.2703 28.0337ZM1.17694 21.0218C1.15427 20.8841 1.17694 20.7812 1.25715 20.6923C1.42631 20.4917 1.84656 20.3522 2.2703 20.3522C2.69927 20.3522 3.11429 20.49 3.28344 20.6923C3.36017 20.7812 3.38632 20.8841 3.36365 21.0218L2.71671 24.9629C2.57372 24.9315 2.422 24.914 2.27029 24.914C2.11858 24.914 1.96687 24.9315 1.82387 24.9629L1.17694 21.0218ZM3.36366 32.8429C3.38633 32.9807 3.36366 33.0836 3.28345 33.1725C3.11429 33.3731 2.69404 33.5126 2.2703 33.5126C1.84133 33.5126 1.42631 33.3748 1.25716 33.1725C1.18043 33.0836 1.15428 32.9807 1.17695 32.8429L1.82389 28.9019C1.96688 28.9333 2.1186 28.9508 2.27031 28.9508C2.42202 28.9508 2.57373 28.9333 2.71672 28.9019L3.36366 32.8429ZM4.25301 27.3114C4.27568 27.1859 4.28789 27.062 4.28789 26.9313C4.28789 26.8022 4.27394 26.6732 4.25301 26.5511H11.5613V27.3149H4.25301V27.3114ZM19.091 31.0432C18.8015 32.5429 17.5146 33.5124 15.8091 33.5124C13.9066 33.5124 12.4749 32.2045 12.4749 30.4677V16.2346H21.9439L19.091 31.0432ZM26.5685 13.1464C26.5336 13.3696 26.497 13.598 26.4481 13.816C26.2964 14.5431 25.7436 15.3244 24.6677 15.3244H9.84713C8.76595 15.3244 8.21842 14.5431 8.06669 13.816C8.02135 13.598 7.98647 13.3748 7.94636 13.1516C7.75803 11.9954 7.50518 10.4068 5.61661 10.4068C5.22425 10.4068 4.9069 10.0895 4.9069 9.69712C4.9069 9.30478 5.22427 8.98741 5.61661 8.98741H28.9017C29.294 8.98741 29.6114 9.30478 29.6114 9.69712C29.6114 10.0895 29.294 10.4068 28.9017 10.4068C27.0114 10.3999 26.7568 11.9902 26.5685 13.1464ZM35.7687 13.4724C35.1845 13.4724 34.7067 12.9946 34.7067 12.4105C34.7067 11.8263 35.1845 11.3485 35.7687 11.3485C36.3528 11.3485 36.8306 11.8263 36.8306 12.4105C36.8359 12.9946 36.3581 13.4724 35.7687 13.4724Z" fill="#10B2BE"/>
</svg>
