<svg width="80" height="65" viewBox="0 0 80 65" fill="none" xmlns="http://www.w3.org/2000/svg">
<path d="M64.0603 65H15.9356C15.6862 65 15.4463 64.9046 15.2651 64.7333L0.351201 51.9554C0.2508 51.8681 0.169194 51.7613 0.111339 51.6415C0.0534834 51.5217 0.0205876 51.3914 0.0146499 51.2585C0.00871227 51.1256 0.0298566 50.9929 0.0767983 50.8684C0.12374 50.7439 0.195499 50.6303 0.287716 50.5344L15.2308 35.2109C15.4187 35.0263 15.6721 34.9237 15.9355 34.9253C16.1989 34.927 16.451 35.0329 16.6365 35.2199L24.0592 43.0381H30.3973C24.9254 35.8999 21.9127 27.1814 21.8101 18.1877C21.8101 13.364 23.7263 8.73792 27.1372 5.32706C30.548 1.9162 35.1742 0 39.9978 0C44.8215 0 49.4477 1.9162 52.8585 5.32706C56.2694 8.73792 58.1856 13.364 58.1856 18.1877C58.0826 27.1815 55.0694 35.9 49.5971 43.0381H55.9366L63.3592 35.2198C63.5453 35.0338 63.7971 34.9285 64.0603 34.9268C64.3234 34.9251 64.5766 35.0272 64.765 35.211L79.7082 50.5344C79.8012 50.6299 79.8736 50.7434 79.921 50.868C79.9684 50.9925 79.9897 51.1255 79.9838 51.2586C79.9778 51.3918 79.9447 51.5223 79.8864 51.6421C79.8281 51.762 79.7458 51.8686 79.6447 51.9554L64.7308 64.7333C64.5496 64.9046 64.3097 65 64.0603 65ZM17.3567 63.0494H62.6393L55.6751 44.9887H48.0708C45.8733 47.7272 43.3528 50.19 40.5643 52.3237C40.3989 52.4414 40.2009 52.5047 39.9979 52.5047C39.7949 52.5047 39.597 52.4414 39.4316 52.3237C36.6421 50.1911 34.1216 47.7281 31.9251 44.9887H24.3209L17.3567 63.0494ZM57.4809 44.2439L64.4794 62.3795L77.5849 51.1509L64.0755 37.2981L57.4809 44.2439ZM2.411 51.1509L15.5165 62.3795L22.515 44.2439L15.9204 37.2981L2.411 51.1509ZM33.2598 43.5384C35.2604 46.0246 37.5191 48.2916 39.998 50.3014C48.1115 43.4312 56.0116 33.1802 56.2353 18.1879C56.2314 13.8841 54.5191 9.7578 51.4744 6.71585C48.4298 3.67391 44.302 1.96518 39.9981 1.96516C35.6943 1.96514 31.5664 3.67383 28.5218 6.71574C25.4771 9.75766 23.7647 13.8839 23.7608 18.1878C23.9018 27.4819 27.2585 36.4402 33.2598 43.5384ZM39.998 28.1705C37.3502 28.1674 34.8118 27.1142 32.9396 25.2418C31.0674 23.3695 30.0143 20.8311 30.0113 18.1833C30.5503 4.93772 49.4477 4.94153 49.9846 18.1834C49.9816 20.8311 48.9285 23.3696 47.0563 25.2419C45.1841 27.1142 42.6457 28.1674 39.998 28.1705ZM39.998 10.1466C37.8673 10.1492 35.8247 10.9968 34.3182 12.5034C32.8117 14.01 31.9643 16.0527 31.9619 18.1833C32.3396 28.8198 47.6579 28.8171 48.034 18.1832C48.0316 16.0526 47.1841 14.0099 45.6776 12.5033C44.1711 10.9967 42.1285 10.1492 39.998 10.1466ZM31.0285 59.3019C30.3544 59.3866 29.5946 59.0352 29.6444 58.2611C29.7867 56.8912 31.4541 57.5344 32.3619 57.216C32.6153 57.1644 32.8787 57.2155 33.0945 57.358C33.3102 57.5005 33.4605 57.7228 33.5125 57.9761C33.7145 59.3467 31.9556 59.2593 31.0285 59.3019ZM53.2965 59.1711C53.1542 59.1904 53.0093 59.179 52.8718 59.1375C52.7343 59.0961 52.6073 59.0255 52.4994 58.9307C52.3915 58.8358 52.3052 58.7189 52.2464 58.5879C52.1876 58.4568 52.1577 58.3147 52.1586 58.171C52.2931 56.8193 53.9424 57.3752 54.8394 57.0389C54.964 57.009 55.0933 57.0041 55.2198 57.0242C55.3464 57.0444 55.4677 57.0892 55.5769 57.1563C55.6861 57.2233 55.781 57.3112 55.8563 57.4149C55.9315 57.5187 55.9856 57.6362 56.0154 57.7608C56.2505 59.2292 54.2757 59.103 53.2965 59.1711ZM36.3469 58.2237C36.1111 58.2192 35.8849 58.1295 35.71 57.9713C35.5351 57.8132 35.4232 57.5971 35.3951 57.3629C35.367 57.1287 35.4244 56.8923 35.5569 56.6972C35.6893 56.502 35.8878 56.3614 36.1159 56.3011L38.0105 55.8363C38.2596 55.7807 38.5205 55.825 38.7374 55.9595C38.9542 56.0941 39.1097 56.3082 39.1705 56.5561C39.2313 56.8039 39.1925 57.0658 39.0626 57.2854C38.9326 57.505 38.7218 57.665 38.4752 57.731C38.3466 57.7546 36.4172 58.2622 36.3469 58.2237ZM26.9064 58.1863C26.156 57.9563 25.4272 57.661 24.7285 57.3037C24.4975 57.1947 24.3185 56.9994 24.2299 56.7599C24.1413 56.5204 24.1501 56.2556 24.2546 56.0225C24.359 55.7895 24.5506 55.6066 24.7883 55.5133C25.0261 55.4199 25.2909 55.4235 25.526 55.5233L27.3051 56.3208C27.5044 56.4155 27.6659 56.5746 27.7635 56.7725C27.8611 56.9703 27.8891 57.1953 27.843 57.4111C27.7969 57.6268 27.6793 57.8207 27.5094 57.9614C27.3394 58.1021 27.1269 58.1813 26.9064 58.1863ZM49.4207 58.1151C48.6383 58.0283 48.0776 57.2873 47.3406 57.0352C47.1052 56.9278 46.9222 56.7313 46.8317 56.489C46.7412 56.2466 46.7507 55.9783 46.858 55.743C47.6056 54.4092 49.0474 55.8146 49.9159 56.2991C50.0965 56.4102 50.2362 56.5768 50.3141 56.7739C50.392 56.971 50.404 57.1881 50.3483 57.3926C50.2925 57.597 50.172 57.778 50.0048 57.9082C49.8376 58.0385 49.6326 58.1111 49.4207 58.1151ZM58.5705 57.2878C58.3588 57.2837 58.1541 57.2113 57.987 57.0813C57.8199 56.9512 57.6993 56.7707 57.6433 56.5665C57.5873 56.3623 57.5988 56.1455 57.6762 55.9484C57.7536 55.7513 57.8927 55.5846 58.0727 55.4731L59.7515 54.4794C59.8618 54.413 59.9841 54.3692 60.1114 54.3503C60.2387 54.3314 60.3685 54.3379 60.4933 54.3695C60.618 54.401 60.7353 54.4569 60.8384 54.534C60.9415 54.611 61.0283 54.7077 61.0938 54.8185C61.1593 54.9293 61.2023 55.0519 61.2202 55.1794C61.2381 55.3068 61.2306 55.4365 61.1981 55.5611C61.1657 55.6856 61.1089 55.8025 61.031 55.905C60.9532 56.0074 60.8558 56.0935 60.7446 56.1582C60.3939 56.3173 58.9642 57.3487 58.5705 57.2878ZM42.0298 56.8294C41.794 56.8248 41.5679 56.7351 41.393 56.577C41.2181 56.4188 41.1063 56.2027 41.0781 55.9685C41.05 55.7344 41.1074 55.498 41.2399 55.3029C41.3723 55.1077 41.5708 54.9671 41.7988 54.9067C42.4737 54.7165 43.1636 54.5839 43.861 54.5105C44.1159 54.4941 44.367 54.5783 44.5604 54.7449C44.7539 54.9115 44.8744 55.1474 44.896 55.4018C44.9176 55.6562 44.8386 55.909 44.676 56.1058C44.5133 56.3027 44.28 56.428 44.0261 56.4548C43.3775 56.4784 42.6681 56.7506 42.0298 56.8294ZM21.5677 55.7925C20.8169 55.5623 20.0877 55.2668 19.3885 54.9093C19.1575 54.8003 18.9785 54.605 18.8899 54.3655C18.8013 54.126 18.8102 53.8612 18.9146 53.6281C19.019 53.3951 19.2106 53.2122 19.4484 53.1189C19.6861 53.0255 19.951 53.0291 20.1861 53.1289L21.9664 53.927C22.1657 54.0217 22.3271 54.1809 22.4247 54.3787C22.5223 54.5766 22.5503 54.8016 22.5042 55.0173C22.4581 55.233 22.3406 55.4269 22.1706 55.5676C22.0007 55.7083 21.7882 55.7875 21.5677 55.7925Z" fill="#10B2BE"/>
</svg>
