<svg width="81" height="66" viewBox="0 0 81 66" fill="none" xmlns="http://www.w3.org/2000/svg">
<path d="M76.1785 10.1547H67.3328V5.11078C67.3328 2.29195 65.037 0 62.2221 0H61.5773C58.7585 0 56.4665 2.29588 56.4665 5.11078V10.1547H24.5283V5.11078C24.5283 2.29195 22.2324 0 19.4175 0H18.7728C15.954 0 13.662 2.29588 13.662 5.11078V10.1547H4.81636C2.30027 10.1547 0.248047 12.2069 0.248047 14.723V61.4317C0.248047 63.9595 2.30027 66 4.81636 66H76.1827C78.6988 66 80.751 63.9478 80.751 61.4317L80.747 14.723C80.747 12.2069 78.6946 10.1547 76.1785 10.1547ZM58.6252 5.11078C58.6252 3.49102 59.9423 2.17007 61.566 2.17007H62.2107C63.8305 2.17007 65.1514 3.4871 65.1514 5.11078V14.4597C65.1514 16.0794 63.8344 17.4004 62.2107 17.4004H61.566C59.9462 17.4004 58.6252 16.0833 58.6252 14.4597V5.11078ZM15.8316 5.11078C15.8316 3.49102 17.1486 2.17007 18.7723 2.17007H19.4171C21.0368 2.17007 22.3578 3.4871 22.3578 5.11078V14.4597C22.3578 16.0794 21.0408 17.4004 19.4171 17.4004H18.7723C17.1526 17.4004 15.8316 16.0833 15.8316 14.4597V5.11078ZM78.5728 61.4319C78.5728 62.7489 77.4956 63.8261 76.1786 63.8261H4.80019C3.48317 63.8261 2.40598 62.7489 2.40598 61.4319V25.3814H78.573L78.5728 61.4319ZM78.5728 23.2075H2.40578V14.7235C2.40578 13.4065 3.48297 12.3293 4.79999 12.3293H13.6457V14.4641C13.6457 17.2829 15.9415 19.5749 18.7564 19.5749H19.4012C22.22 19.5749 24.512 17.279 24.512 14.4641V12.3293H56.427V14.4641C56.427 17.2829 58.7229 19.5749 61.5378 19.5749H62.1825C65.0014 19.5749 67.2933 17.279 67.2933 14.4641V12.3293H76.139C77.456 12.3293 78.5332 13.4065 78.5332 14.7235L78.5411 23.2075H78.5728Z" fill="#10B2BE"/>
<path d="M59.3479 60.2047C67.9419 60.2047 74.9476 53.2108 74.9476 44.605C74.9476 35.9992 67.9537 29.0053 59.3479 29.0053C50.742 29.0053 43.7481 35.9992 43.7481 44.605C43.7481 53.2069 50.746 60.2047 59.3479 60.2047ZM59.3479 31.1872C66.7468 31.1872 72.7616 37.2062 72.7616 44.601C72.7616 51.9999 66.7427 58.0147 59.3479 58.0147C51.949 58.0147 45.9341 51.9958 45.9341 44.601C45.9341 37.2062 51.9531 31.1872 59.3479 31.1872Z" fill="#10B2BE"/>
<path d="M55.0826 50.8127C55.3932 50.8127 55.7077 50.683 55.916 50.4196L60.1816 45.297C60.3428 45.0965 60.4332 44.8528 60.4332 44.6011L60.4372 36.9232C60.4372 36.3177 59.9536 35.8381 59.3521 35.8381C58.7467 35.8381 58.2671 36.3217 58.2671 36.9232V44.208L54.2531 49.0279C53.8718 49.4919 53.9307 50.1759 54.3946 50.5572C54.5912 50.7341 54.8428 50.8127 55.0826 50.8127Z" fill="#10B2BE"/>
<path d="M7.12798 42.7924H18.7332C19.3386 42.7924 19.8182 42.3088 19.8182 41.7074V30.1022C19.8182 29.4967 19.3347 29.0171 18.7332 29.0171L7.12798 29.0132C6.52255 29.0132 6.04294 29.4968 6.04294 30.0982V41.7034C6.03901 42.3089 6.52257 42.7924 7.12798 42.7924ZM8.21301 31.1872H17.6444V40.6186H8.21301V31.1872Z" fill="#10B2BE"/>
<path d="M7.12798 60.2047H18.7332C19.3386 60.2047 19.8182 59.7212 19.8182 59.1197V47.5024C19.8182 46.897 19.3347 46.4174 18.7332 46.4174L7.12798 46.4135C6.52255 46.4135 6.04294 46.897 6.04294 47.4985V59.1037C6.03901 59.7091 6.52257 60.2047 7.12798 60.2047ZM8.21301 48.5995H17.6444V58.0309H8.21301V48.5995Z" fill="#10B2BE"/>
<path d="M25.9866 42.7924H37.5918C38.1972 42.7924 38.6768 42.3088 38.6768 41.7074V30.1022C38.6768 29.4967 38.1932 29.0171 37.5918 29.0171L25.9866 29.0132C25.3811 29.0132 24.9015 29.4968 24.9015 30.0982V41.7034C24.8897 42.3089 25.3811 42.7924 25.9866 42.7924ZM27.0755 31.1872H36.5069V40.6186H27.0755V31.1872Z" fill="#10B2BE"/>
<path d="M25.9866 60.2047H37.5918C38.1972 60.2047 38.6768 59.7212 38.6768 59.1197V47.5024C38.6768 46.897 38.1932 46.4174 37.5918 46.4174L25.9866 46.4135C25.3811 46.4135 24.9015 46.897 24.9015 47.4985V59.1037C24.8897 59.7091 25.3811 60.2047 25.9866 60.2047ZM27.0755 48.5995H36.5069V58.0309H27.0755V48.5995Z" fill="#10B2BE"/>
</svg>
