<svg width="41" height="41" viewBox="0 0 41 41" fill="none" xmlns="http://www.w3.org/2000/svg">
<path d="M32.5003 13.5C32.5003 10.7386 30.2617 8.5 27.5003 8.5C24.7389 8.5 22.5003 10.7386 22.5003 13.5C22.5003 16.2614 24.7389 18.5 27.5003 18.5V19.75C24.0485 19.75 21.2503 16.9518 21.2503 13.5C21.2503 10.0482 24.0485 7.25 27.5003 7.25C30.9521 7.25 33.7503 10.0482 33.7503 13.5C33.7503 16.9518 30.9521 19.75 27.5003 19.75V18.5C30.2617 18.5 32.5003 16.2614 32.5003 13.5Z" fill="#10B2BE"/>
<path d="M26.8753 5.46387V1C26.8753 0.654822 27.1551 0.375 27.5003 0.375C27.8455 0.375 28.1253 0.654822 28.1253 1V5.46387C28.1253 5.80905 27.8455 6.08887 27.5003 6.08887C27.1551 6.08887 26.8753 5.80905 26.8753 5.46387Z" fill="#10B2BE"/>
<path d="M40.0001 14.5712H35.5362C35.191 14.5712 34.9112 14.2913 34.9112 13.9462C34.9112 13.601 35.191 13.3212 35.5362 13.3212H40.0001C40.3453 13.3212 40.6251 13.601 40.6251 13.9462C40.6251 14.2913 40.3453 14.5712 40.0001 14.5712Z" fill="#10B2BE"/>
<path d="M36.4648 23.3484L33.3084 20.1919C33.0643 19.9479 33.0643 19.5521 33.3084 19.3081C33.5525 19.064 33.9482 19.064 34.1923 19.3081L37.3487 22.4645C37.5928 22.7086 37.5928 23.1043 37.3487 23.3484C37.1046 23.5924 36.7089 23.5924 36.4648 23.3484Z" fill="#10B2BE"/>
<path d="M19.0143 22.4554L22.1708 19.299C22.4149 19.0549 22.4149 18.6592 22.1708 18.4151C21.9267 18.171 21.531 18.171 21.2869 18.4151L18.1305 21.5715C17.8864 21.8156 17.8864 22.2113 18.1305 22.4554C18.3745 22.6995 18.7703 22.6995 19.0143 22.4554Z" fill="#10B2BE"/>
<path d="M19.4642 14.5712H15.0003C14.6551 14.5712 14.3753 14.2913 14.3753 13.9462C14.3753 13.601 14.6551 13.3212 15.0003 13.3212H19.4642C19.8094 13.3212 20.0892 13.601 20.0892 13.9462C20.0892 14.2913 19.8094 14.5712 19.4642 14.5712Z" fill="#10B2BE"/>
<path d="M21.4648 8.34837L18.3084 5.19194C18.0643 4.94786 18.0643 4.55214 18.3084 4.30806C18.5525 4.06398 18.9482 4.06398 19.1923 4.30806L22.3487 7.46449C22.5928 7.70857 22.5928 8.10429 22.3487 8.34837C22.1046 8.59245 21.7089 8.59245 21.4648 8.34837Z" fill="#10B2BE"/>
<path d="M34.1926 8.34837L37.349 5.19194C37.5931 4.94786 37.5931 4.55214 37.349 4.30806C37.1049 4.06398 36.7092 4.06398 36.4651 4.30806L33.3087 7.46449C33.0646 7.70857 33.0646 8.10429 33.3087 8.34837C33.5528 8.59245 33.9485 8.59245 34.1926 8.34837Z" fill="#10B2BE"/>
<path d="M26.8753 25.9998V21.5359C26.8753 21.1907 27.1551 20.9109 27.5003 20.9109C27.8455 20.9109 28.1253 21.1907 28.1253 21.5359V25.9998C28.1253 26.3449 27.8455 26.6248 27.5003 26.6248C27.1551 26.6248 26.8753 26.3449 26.8753 25.9998Z" fill="#10B2BE"/>
<path d="M14.8431 27.9346C15.0111 27.8555 15.2071 27.8547 15.3773 27.9355L39.0189 39.1855L39.1273 39.251C39.3594 39.426 39.4445 39.7458 39.3148 40.0186C39.185 40.2913 38.8831 40.4271 38.6009 40.3574L38.4818 40.3145L15.1527 29.2129L1.58626 37.8662L1.47297 37.9229C1.2016 38.0267 0.885366 37.9303 0.722974 37.6758C0.537356 37.3848 0.623358 36.9981 0.91438 36.8125L14.7728 27.9727L14.8431 27.9346Z" fill="#10B2BE"/>
</svg>
