<svg width="37" height="36" viewBox="0 0 37 36" fill="none" xmlns="http://www.w3.org/2000/svg">
<path d="M35.0975 13.4787L22.5337 26.9918C22.3982 27.1358 22.2084 27.22 22.0092 27.22H7.39331C6.88502 27.22 6.40519 27.4415 6.07581 27.8287L0.171449 34.7537C-0.0237364 34.9819 0.00337281 35.3243 0.231089 35.5186C0.332748 35.6056 0.45745 35.6504 0.583508 35.6504C0.736674 35.6504 0.888485 35.5852 0.995566 35.4588L6.89993 28.5338C7.02327 28.3898 7.20355 28.3069 7.39331 28.3069H22.0105C22.1393 28.3069 22.2667 28.292 22.3901 28.2648L29.5049 35.395C29.6106 35.5009 29.7502 35.5539 29.8884 35.5539C30.0267 35.5539 30.1663 35.5009 30.272 35.395C30.4835 35.183 30.4835 34.8379 30.272 34.626L23.3592 27.6983L35.8904 14.2192C36.0937 13.9991 36.0829 13.6553 35.8619 13.4515C35.6437 13.245 35.3021 13.2586 35.0975 13.4787Z" fill="#10B2BE"/>
<path d="M13.7965 9.37559C13.7965 6.54962 11.5031 4.25215 8.68506 4.25215C5.86707 4.25215 3.57229 6.55098 3.57229 9.37559C3.57229 12.2002 5.86572 14.499 8.68371 14.499C11.5017 14.499 13.7965 12.2016 13.7965 9.37559ZM8.68506 13.4135C6.46347 13.4135 4.65665 11.6024 4.65665 9.37559C4.65665 7.14878 6.46347 5.33771 8.68506 5.33771C10.9067 5.33771 12.7135 7.14878 12.7135 9.37559C12.7135 11.6024 10.9067 13.4135 8.68506 13.4135Z" fill="#10B2BE"/>
<path d="M4.19037 4.10134C4.29745 4.24672 4.46146 4.32552 4.62954 4.32552C4.74069 4.32552 4.85183 4.29155 4.94807 4.22226C5.1907 4.04564 5.24356 3.70598 5.06735 3.46278L4.32592 2.43701C4.14971 2.19517 3.8122 2.14218 3.56822 2.31745C3.32559 2.49407 3.27273 2.83373 3.44894 3.07693L4.19037 4.10134Z" fill="#10B2BE"/>
<path d="M0.754295 7.3648L1.95523 7.75609C2.0108 7.77375 2.06773 7.78327 2.1233 7.78327C2.35102 7.78327 2.56518 7.63789 2.63838 7.40828C2.73055 7.12296 2.57603 6.81591 2.29003 6.72352L1.08909 6.33088C0.803091 6.23985 0.496759 6.39337 0.405943 6.68005C0.313772 6.96536 0.468294 7.27106 0.754295 7.3648Z" fill="#10B2BE"/>
<path d="M0.921016 12.4475C0.97659 12.4475 1.03352 12.4393 1.08909 12.4203L2.29003 12.029C2.57467 11.9366 2.73055 11.6296 2.63838 11.3443C2.54621 11.059 2.23987 10.9041 1.95523 10.9951L0.754295 11.3864C0.469649 11.4788 0.313772 11.7858 0.405943 12.0711C0.480493 12.3021 0.6933 12.4475 0.921016 12.4475Z" fill="#10B2BE"/>
<path d="M3.8854 16.5384C4.05347 16.5384 4.21884 16.4609 4.32456 16.3142L5.06735 15.2898C5.24356 15.0466 5.18934 14.7069 4.94807 14.5303C4.70409 14.3537 4.36658 14.408 4.19037 14.6498L3.44758 15.6743C3.27137 15.9175 3.32559 16.2571 3.56686 16.4337C3.66446 16.5058 3.7756 16.5384 3.8854 16.5384Z" fill="#10B2BE"/>
<path d="M8.14288 16.2924V17.5587C8.14288 17.859 8.38551 18.1022 8.68506 18.1022C8.98462 18.1022 9.22724 17.859 9.22724 17.5587V16.2924C9.22724 15.9922 8.98462 15.749 8.68506 15.749C8.38551 15.749 8.14288 15.9922 8.14288 16.2924Z" fill="#10B2BE"/>
<path d="M13.0442 16.3155C13.1513 16.4609 13.3153 16.5397 13.4834 16.5397C13.5945 16.5397 13.7057 16.5058 13.8019 16.4365C14.0445 16.2598 14.0974 15.9202 13.9212 15.677L13.1784 14.6526C13.0022 14.4107 12.6647 14.3564 12.4207 14.533C12.1781 14.7096 12.1252 15.0493 12.3014 15.2925L13.0442 16.3155Z" fill="#10B2BE"/>
<path d="M15.0787 12.0304L16.281 12.4217C16.3366 12.4393 16.3935 12.4488 16.4491 12.4488C16.6768 12.4488 16.891 12.3035 16.9642 12.0739C17.0564 11.7885 16.9005 11.4815 16.6158 11.3891L15.4135 10.9978C15.1275 10.9068 14.8212 11.0603 14.7304 11.347C14.6382 11.6309 14.7941 11.9366 15.0787 12.0304Z" fill="#10B2BE"/>
<path d="M15.2468 7.78191C15.3024 7.78191 15.3593 7.77375 15.4149 7.75473L16.6172 7.36344C16.9018 7.27106 17.0577 6.964 16.9655 6.67869C16.8734 6.39337 16.5697 6.23985 16.2824 6.32952L15.0801 6.72081C14.7955 6.81319 14.6396 7.12025 14.7317 7.40556C14.8049 7.63653 15.0177 7.78191 15.2468 7.78191Z" fill="#10B2BE"/>
<path d="M12.7392 4.32416C12.9073 4.32416 13.0727 4.24672 13.1784 4.09998L13.9212 3.07557C14.0974 2.83237 14.0432 2.49271 13.8019 2.31609C13.5579 2.14082 13.2191 2.19381 13.0442 2.43565L12.3014 3.46006C12.1252 3.70326 12.1794 4.04292 12.4207 4.21955C12.5183 4.29019 12.6294 4.32416 12.7392 4.32416Z" fill="#10B2BE"/>
<path d="M8.68506 3.00356C8.98462 3.00356 9.22724 2.76036 9.22724 2.4601V1.19385C9.22724 0.893588 8.98462 0.650391 8.68506 0.650391C8.38551 0.650391 8.14288 0.893588 8.14288 1.19385V2.4601C8.14288 2.76036 8.38551 3.00356 8.68506 3.00356Z" fill="#10B2BE"/>
</svg>
