<svg width="80" height="80" viewBox="0 0 80 80" fill="none" xmlns="http://www.w3.org/2000/svg">
    <path d="M39.9788 14.528C41.9058 14.528 43.6452 13.3671 44.38 11.5887C45.1187 9.80635 44.7083 7.75817 43.3441 6.39402C41.98 5.03377 39.9279 4.62732 38.1495 5.36998C36.3711 6.10872 35.2101 7.84813 35.214 9.77503C35.2219 12.4017 37.3522 14.528 39.9788 14.528ZM39.9788 7.28518C40.9755 7.28518 41.8706 7.88321 42.2536 8.80562C42.6328 9.72416 42.4217 10.7835 41.7181 11.487C41.0146 12.1905 39.9553 12.4016 39.0368 12.0225C38.1182 11.6394 37.5163 10.7405 37.5163 9.74767C37.5163 9.09492 37.7782 8.46957 38.2394 8.00438C38.7007 7.54316 39.326 7.28518 39.9788 7.28518Z" fill="#FEFEFE"/>
    <path d="M72.4244 41.7444C72.358 41.3261 72.0687 40.9744 71.67 40.8336C71.2713 40.689 70.8257 40.7789 70.5131 41.0643L60.2337 50.5702C59.9484 50.8399 59.8155 51.2425 59.8858 51.6294C59.964 52.0203 60.2376 52.3447 60.605 52.4933L63.8062 53.7049V53.701C61.5743 56.4254 58.6311 58.4774 55.3009 59.6266C54.0813 60.1191 52.7759 60.3693 51.4587 60.3575C49.309 60.4826 47.3311 59.1732 46.608 57.1446C46.3656 56.5075 46.2445 55.8274 46.2562 55.1434V34.0602H56.0826C57.478 34.0563 58.6076 32.9228 58.6154 31.5275V27.7673C58.6076 26.3719 57.478 25.2384 56.0826 25.2345H46.2562V18.9103C49.8835 16.2055 51.3688 11.4838 49.946 7.19199C48.5193 2.89631 44.5051 0 39.9828 0C35.4605 0 31.4463 2.89631 30.0196 7.19199C28.5968 11.4838 30.0821 16.2054 33.7094 18.9103V25.2345H23.883C22.4876 25.2384 21.358 26.3719 21.3502 27.7673V31.5588C21.3736 32.9424 22.4993 34.0564 23.883 34.0603H33.7094V55.1635C33.7211 55.8475 33.5999 56.5276 33.3576 57.1647C32.6384 59.1933 30.6645 60.5027 28.5148 60.3776C27.1937 60.3894 25.8803 60.1392 24.653 59.6467C21.3267 58.4976 18.3874 56.4455 16.1594 53.7211L19.3606 52.5095V52.5134C19.728 52.3648 20.0016 52.0404 20.0798 51.6496C20.1501 51.2626 20.0172 50.8639 19.7319 50.5903L9.45249 41.0649C9.14371 40.7795 8.70202 40.6896 8.30728 40.8225C7.90859 40.9593 7.61543 41.2994 7.54118 41.7137L5.21163 55.2141C5.14127 55.6284 5.30153 56.0506 5.63377 56.3125C5.96601 56.5744 6.4155 56.633 6.8025 56.4649L8.99526 55.4643C10.4259 61.4681 14.3072 66.209 21.0928 70.3016C22.9885 71.439 25.0014 72.3693 27.0966 73.0728C31.3101 74.4839 36.0318 76.3757 39.1741 79.6863V79.6902C39.2444 79.745 39.3187 79.7919 39.4047 79.827C39.4438 79.8583 39.4868 79.8857 39.5337 79.9091C39.8073 80.0303 40.12 80.0303 40.3936 79.9091C40.4405 79.8857 40.4835 79.8583 40.5226 79.827C40.6047 79.7919 40.6828 79.745 40.7532 79.6902C43.9857 76.4148 48.68 74.5268 52.8898 73.0845C54.9888 72.3849 57.0017 71.4585 58.8935 70.3211C65.6594 66.2522 69.5412 61.507 71.0031 55.5028L73.1958 56.5035C73.5828 56.6715 74.0323 56.6129 74.3607 56.351C74.6929 56.0931 74.8571 55.6709 74.7867 55.2527L72.4244 41.7444ZM31.7861 10.5339C31.7822 7.64932 33.2987 4.97185 35.773 3.49042C38.2511 2.009 41.3233 1.93865 43.8678 3.30672C46.4085 4.67477 48.0423 7.27799 48.1713 10.1626C48.2964 13.0472 46.8971 15.7833 44.4854 17.3702C44.2978 17.4914 44.1531 17.6673 44.0632 17.8705C44.0593 17.894 44.0593 17.9174 44.0632 17.9409C44.0085 18.0698 43.9812 18.2106 43.9733 18.3513V25.2345H35.9801V18.3396C35.9762 18.2028 35.9488 18.0699 35.9019 17.9409C35.9058 17.9135 35.9058 17.8862 35.9019 17.8588C35.8511 17.7415 35.7807 17.6321 35.6908 17.5383C35.64 17.4875 35.5814 17.4367 35.5188 17.4015C33.1854 15.9005 31.7744 13.313 31.7861 10.5339ZM23.8827 31.7852V31.7891C23.7537 31.7891 23.6521 31.6875 23.6521 31.5585V27.767C23.6521 27.638 23.7537 27.5364 23.8827 27.5364H56.0828C56.2118 27.5364 56.3134 27.638 56.3134 27.767V31.5585C56.3134 31.621 56.29 31.6796 56.247 31.7226C56.204 31.7656 56.1454 31.7891 56.0828 31.7891L23.8827 31.7852ZM70.5919 52.7983V52.8022C70.2753 52.6497 69.9078 52.6497 69.5912 52.8022C69.2785 52.9663 69.0636 53.2712 69.0128 53.623C68.0121 59.6267 64.4005 64.2586 57.6967 68.3042L57.6928 68.3002C55.9495 69.3478 54.0967 70.2076 52.1698 70.8643C47.9875 72.3145 43.4144 74.175 39.9822 77.3567C36.5504 74.175 31.9773 72.3536 27.8147 70.9308V70.9347C25.8838 70.278 24.0311 69.4182 22.28 68.3706C15.5766 64.3681 11.9846 59.666 10.964 53.6894V53.6934C10.9092 53.3416 10.6943 53.0367 10.3855 52.8725C10.0689 52.7201 9.69755 52.7201 9.38485 52.8725L7.8527 53.5448L9.45529 44.2578L16.8193 51.0433L13.9659 52.0712C13.6415 52.1924 13.3874 52.4582 13.278 52.7865C13.1685 53.1187 13.2154 53.4783 13.407 53.7715C15.9163 57.5121 19.5866 60.3264 23.8515 61.7765C25.3602 62.3941 26.9784 62.695 28.6044 62.6677C31.6611 62.7419 34.4323 60.8735 35.5111 58.0164C35.8472 57.1017 36.0036 56.1363 35.9801 55.163V34.0598H43.9851V55.163C43.9773 56.1362 44.1532 57.0978 44.5049 58.0045C45.5837 60.8657 48.355 62.7302 51.4115 62.6558C53.0337 62.6793 54.6441 62.3822 56.1528 61.7764C60.4211 60.3224 64.0914 57.512 66.6083 53.7714C66.7959 53.4743 66.835 53.1069 66.7178 52.7747C66.5966 52.4425 66.3308 52.1845 65.9986 52.0711L63.1374 50.9924L70.5014 44.2069L72.104 53.4939L70.5919 52.7983Z" fill="#FEFEFE"/>
</svg>
